<svg xmlns="http://www.w3.org/2000/svg" xmlns:xlink="http://www.w3.org/1999/xlink" width="1080" zoomAndPan="magnify" viewBox="0 0 810 809.999993" height="1080" preserveAspectRatio="xMidYMid meet" version="1.0"><defs><g/><clipPath id="5fab4ba65b"><path d="M 67.464844 67.464844 L 742.464844 67.464844 L 742.464844 742.464844 L 67.464844 742.464844 Z M 67.464844 67.464844 " clip-rule="nonzero"/></clipPath><clipPath id="8c128a4303"><path d="M 405 67.464844 C 218.585938 67.464844 67.464844 218.585938 67.464844 405 C 67.464844 591.414062 218.585938 742.535156 405 742.535156 C 591.414062 742.535156 742.535156 591.414062 742.535156 405 C 742.535156 218.585938 591.414062 67.464844 405 67.464844 Z M 405 67.464844 " clip-rule="nonzero"/></clipPath><clipPath id="99505daf88"><path d="M 120.332031 253.457031 L 304.414062 253.457031 L 304.414062 437.539062 L 120.332031 437.539062 Z M 120.332031 253.457031 " clip-rule="nonzero"/></clipPath><clipPath id="c0078ba4e5"><path d="M 212.371094 253.457031 C 161.539062 253.457031 120.332031 294.664062 120.332031 345.496094 C 120.332031 396.328125 161.539062 437.539062 212.371094 437.539062 C 263.207031 437.539062 304.414062 396.328125 304.414062 345.496094 C 304.414062 294.664062 263.207031 253.457031 212.371094 253.457031 Z M 212.371094 253.457031 " clip-rule="nonzero"/></clipPath><clipPath id="ba2122f84f"><path d="M 312.960938 116.085938 L 497.039062 116.085938 L 497.039062 300.167969 L 312.960938 300.167969 Z M 312.960938 116.085938 " clip-rule="nonzero"/></clipPath><clipPath id="1a7c7ce763"><path d="M 405 116.085938 C 354.167969 116.085938 312.960938 157.292969 312.960938 208.125 C 312.960938 258.960938 354.167969 300.167969 405 300.167969 C 455.832031 300.167969 497.039062 258.960938 497.039062 208.125 C 497.039062 157.292969 455.832031 116.085938 405 116.085938 Z M 405 116.085938 " clip-rule="nonzero"/></clipPath><clipPath id="2045642743"><path d="M 505.289062 253.457031 L 689.371094 253.457031 L 689.371094 437.539062 L 505.289062 437.539062 Z M 505.289062 253.457031 " clip-rule="nonzero"/></clipPath><clipPath id="2714a72b2c"><path d="M 597.332031 253.457031 C 546.5 253.457031 505.289062 294.664062 505.289062 345.496094 C 505.289062 396.328125 546.5 437.539062 597.332031 437.539062 C 648.164062 437.539062 689.371094 396.328125 689.371094 345.496094 C 689.371094 294.664062 648.164062 253.457031 597.332031 253.457031 Z M 597.332031 253.457031 " clip-rule="nonzero"/></clipPath><clipPath id="595235ec20"><path d="M 204.871094 480.109375 L 388.953125 480.109375 L 388.953125 664.1875 L 204.871094 664.1875 Z M 204.871094 480.109375 " clip-rule="nonzero"/></clipPath><clipPath id="0730d11392"><path d="M 296.914062 480.109375 C 246.082031 480.109375 204.871094 521.316406 204.871094 572.148438 C 204.871094 622.980469 246.082031 664.1875 296.914062 664.1875 C 347.746094 664.1875 388.953125 622.980469 388.953125 572.148438 C 388.953125 521.316406 347.746094 480.109375 296.914062 480.109375 Z M 296.914062 480.109375 " clip-rule="nonzero"/></clipPath><clipPath id="31d1425a87"><path d="M 420.75 480.109375 L 604.832031 480.109375 L 604.832031 664.1875 L 420.75 664.1875 Z M 420.75 480.109375 " clip-rule="nonzero"/></clipPath><clipPath id="b36c0e0c34"><path d="M 512.789062 480.109375 C 461.957031 480.109375 420.75 521.316406 420.75 572.148438 C 420.75 622.980469 461.957031 664.1875 512.789062 664.1875 C 563.625 664.1875 604.832031 622.980469 604.832031 572.148438 C 604.832031 521.316406 563.625 480.109375 512.789062 480.109375 Z M 512.789062 480.109375 " clip-rule="nonzero"/></clipPath><clipPath id="ff65985ff8"><path d="M 338.292969 337.054688 L 471.792969 337.054688 L 471.792969 471 L 338.292969 471 Z M 338.292969 337.054688 " clip-rule="nonzero"/></clipPath></defs><g clip-path="url(#5fab4ba65b)"><g clip-path="url(#8c128a4303)"><path stroke-linecap="butt" transform="matrix(0.75, 0, 0, 0.75, 67.464617, 67.464633)" fill="none" stroke-linejoin="miter" d="M 450.0472 0.000280459 C 201.495104 0.000280459 0.000302459 201.495082 0.000302459 450.047178 C 0.000302459 698.599274 201.495104 900.094076 450.0472 900.094076 C 698.599296 900.094076 900.094098 698.599274 900.094098 450.047178 C 900.094098 201.495082 698.599296 0.000280459 450.0472 0.000280459 Z M 450.0472 0.000280459 " stroke="#ed6c25" stroke-width="46" stroke-opacity="1" stroke-miterlimit="4"/></g></g><g clip-path="url(#99505daf88)"><g clip-path="url(#c0078ba4e5)"><path fill="#084772" d="M 120.332031 253.457031 L 304.414062 253.457031 L 304.414062 437.539062 L 120.332031 437.539062 Z M 120.332031 253.457031 " fill-opacity="1" fill-rule="nonzero"/></g></g><g fill="#ffffff" fill-opacity="1"><g transform="translate(150.789269, 352.45673)"><g><path d="M 5.078125 0 L 5.078125 -13.109375 L 0.765625 -13.109375 L 0.765625 -15.40625 L 11.90625 -15.40625 L 11.90625 -13.109375 L 7.453125 -13.109375 L 7.453125 0 Z M 5.078125 0 "/></g></g></g><g fill="#ffffff" fill-opacity="1"><g transform="translate(163.459011, 352.45673)"><g><path d="M 6.96875 0.21875 C 5.78125 0.21875 4.726562 -0.03125 3.8125 -0.53125 C 2.894531 -1.039062 2.175781 -1.734375 1.65625 -2.609375 C 1.132812 -3.492188 0.875 -4.507812 0.875 -5.65625 C 0.875 -6.5625 1.019531 -7.390625 1.3125 -8.140625 C 1.613281 -8.890625 2.023438 -9.535156 2.546875 -10.078125 C 3.066406 -10.628906 3.6875 -11.054688 4.40625 -11.359375 C 5.132812 -11.660156 5.925781 -11.8125 6.78125 -11.8125 C 7.519531 -11.8125 8.210938 -11.664062 8.859375 -11.375 C 9.503906 -11.09375 10.066406 -10.703125 10.546875 -10.203125 C 11.023438 -9.703125 11.390625 -9.109375 11.640625 -8.421875 C 11.898438 -7.742188 12.023438 -7.003906 12.015625 -6.203125 L 11.984375 -5.234375 L 2.546875 -5.234375 L 2.046875 -7.046875 L 10.03125 -7.046875 L 9.703125 -6.671875 L 9.703125 -7.1875 C 9.660156 -7.675781 9.5 -8.109375 9.21875 -8.484375 C 8.9375 -8.867188 8.582031 -9.171875 8.15625 -9.390625 C 7.738281 -9.609375 7.28125 -9.71875 6.78125 -9.71875 C 5.988281 -9.71875 5.316406 -9.566406 4.765625 -9.265625 C 4.222656 -8.972656 3.8125 -8.535156 3.53125 -7.953125 C 3.257812 -7.367188 3.125 -6.65625 3.125 -5.8125 C 3.125 -5 3.289062 -4.296875 3.625 -3.703125 C 3.96875 -3.109375 4.445312 -2.648438 5.0625 -2.328125 C 5.675781 -2.003906 6.382812 -1.84375 7.1875 -1.84375 C 7.757812 -1.84375 8.289062 -1.9375 8.78125 -2.125 C 9.28125 -2.320312 9.816406 -2.671875 10.390625 -3.171875 L 11.53125 -1.5625 C 11.175781 -1.207031 10.742188 -0.894531 10.234375 -0.625 C 9.734375 -0.363281 9.195312 -0.15625 8.625 0 C 8.0625 0.144531 7.507812 0.21875 6.96875 0.21875 Z M 6.96875 0.21875 "/></g></g></g><g fill="#ffffff" fill-opacity="1"><g transform="translate(176.348708, 352.45673)"><g><path d="M 6.484375 0.21875 C 5.421875 0.21875 4.46875 -0.0390625 3.625 -0.5625 C 2.78125 -1.09375 2.109375 -1.8125 1.609375 -2.71875 C 1.117188 -3.632812 0.875 -4.65625 0.875 -5.78125 C 0.875 -6.914062 1.117188 -7.9375 1.609375 -8.84375 C 2.109375 -9.75 2.78125 -10.46875 3.625 -11 C 4.46875 -11.53125 5.421875 -11.796875 6.484375 -11.796875 C 7.515625 -11.796875 8.453125 -11.582031 9.296875 -11.15625 C 10.140625 -10.738281 10.78125 -10.171875 11.21875 -9.453125 L 9.96875 -7.921875 C 9.726562 -8.253906 9.425781 -8.5625 9.0625 -8.84375 C 8.695312 -9.125 8.304688 -9.34375 7.890625 -9.5 C 7.484375 -9.664062 7.085938 -9.75 6.703125 -9.75 C 6.003906 -9.75 5.378906 -9.578125 4.828125 -9.234375 C 4.273438 -8.890625 3.835938 -8.414062 3.515625 -7.8125 C 3.191406 -7.207031 3.03125 -6.53125 3.03125 -5.78125 C 3.03125 -5.03125 3.195312 -4.359375 3.53125 -3.765625 C 3.875 -3.171875 4.320312 -2.695312 4.875 -2.34375 C 5.4375 -2 6.054688 -1.828125 6.734375 -1.828125 C 7.128906 -1.828125 7.515625 -1.890625 7.890625 -2.015625 C 8.265625 -2.148438 8.625 -2.347656 8.96875 -2.609375 C 9.320312 -2.878906 9.65625 -3.207031 9.96875 -3.59375 L 11.21875 -2.046875 C 10.75 -1.390625 10.078125 -0.847656 9.203125 -0.421875 C 8.328125 0.00390625 7.421875 0.21875 6.484375 0.21875 Z M 6.484375 0.21875 "/></g></g></g><g fill="#ffffff" fill-opacity="1"><g transform="translate(188.11661, 352.45673)"><g><path d="M 1.578125 0 L 1.578125 -16.28125 L 3.84375 -16.28125 L 3.84375 -9.171875 L 3.453125 -8.90625 C 3.597656 -9.425781 3.882812 -9.898438 4.3125 -10.328125 C 4.738281 -10.765625 5.242188 -11.117188 5.828125 -11.390625 C 6.410156 -11.660156 7.015625 -11.796875 7.640625 -11.796875 C 8.515625 -11.796875 9.242188 -11.625 9.828125 -11.28125 C 10.421875 -10.9375 10.863281 -10.410156 11.15625 -9.703125 C 11.445312 -8.992188 11.59375 -8.109375 11.59375 -7.046875 L 11.59375 0 L 9.328125 0 L 9.328125 -6.890625 C 9.328125 -7.546875 9.238281 -8.085938 9.0625 -8.515625 C 8.882812 -8.953125 8.613281 -9.269531 8.25 -9.46875 C 7.882812 -9.664062 7.429688 -9.75 6.890625 -9.71875 C 6.441406 -9.71875 6.035156 -9.648438 5.671875 -9.515625 C 5.304688 -9.378906 4.988281 -9.1875 4.71875 -8.9375 C 4.445312 -8.6875 4.234375 -8.394531 4.078125 -8.0625 C 3.921875 -7.726562 3.84375 -7.375 3.84375 -7 L 3.84375 0 L 2.734375 0 C 2.535156 0 2.34375 0 2.15625 0 C 1.96875 0 1.773438 0 1.578125 0 Z M 1.578125 0 "/></g></g></g><g fill="#ffffff" fill-opacity="1"><g transform="translate(201.204279, 352.45673)"><g><path d="M 1.578125 0 L 1.578125 -11.546875 L 3.84375 -11.546875 L 3.84375 -9.171875 L 3.453125 -8.90625 C 3.597656 -9.425781 3.882812 -9.898438 4.3125 -10.328125 C 4.738281 -10.765625 5.242188 -11.117188 5.828125 -11.390625 C 6.410156 -11.660156 7.015625 -11.796875 7.640625 -11.796875 C 8.515625 -11.796875 9.242188 -11.625 9.828125 -11.28125 C 10.421875 -10.9375 10.863281 -10.410156 11.15625 -9.703125 C 11.445312 -8.992188 11.59375 -8.109375 11.59375 -7.046875 L 11.59375 0 L 9.328125 0 L 9.328125 -6.890625 C 9.328125 -7.546875 9.238281 -8.085938 9.0625 -8.515625 C 8.882812 -8.953125 8.613281 -9.269531 8.25 -9.46875 C 7.882812 -9.664062 7.429688 -9.75 6.890625 -9.71875 C 6.441406 -9.71875 6.035156 -9.648438 5.671875 -9.515625 C 5.304688 -9.378906 4.988281 -9.1875 4.71875 -8.9375 C 4.445312 -8.6875 4.234375 -8.394531 4.078125 -8.0625 C 3.921875 -7.726562 3.84375 -7.375 3.84375 -7 L 3.84375 0 L 2.734375 0 C 2.535156 0 2.34375 0 2.15625 0 C 1.96875 0 1.773438 0 1.578125 0 Z M 1.578125 0 "/></g></g></g><g fill="#ffffff" fill-opacity="1"><g transform="translate(214.291947, 352.45673)"><g><path d="M 6.78125 0.21875 C 5.644531 0.21875 4.632812 -0.0390625 3.75 -0.5625 C 2.863281 -1.082031 2.160156 -1.789062 1.640625 -2.6875 C 1.128906 -3.59375 0.875 -4.625 0.875 -5.78125 C 0.875 -6.945312 1.128906 -7.976562 1.640625 -8.875 C 2.160156 -9.78125 2.863281 -10.492188 3.75 -11.015625 C 4.632812 -11.535156 5.644531 -11.796875 6.78125 -11.796875 C 7.894531 -11.796875 8.894531 -11.535156 9.78125 -11.015625 C 10.664062 -10.492188 11.363281 -9.78125 11.875 -8.875 C 12.394531 -7.976562 12.65625 -6.945312 12.65625 -5.78125 C 12.65625 -4.625 12.394531 -3.59375 11.875 -2.6875 C 11.363281 -1.789062 10.664062 -1.082031 9.78125 -0.5625 C 8.894531 -0.0390625 7.894531 0.21875 6.78125 0.21875 Z M 6.78125 -1.84375 C 7.46875 -1.84375 8.082031 -2.015625 8.625 -2.359375 C 9.164062 -2.703125 9.585938 -3.171875 9.890625 -3.765625 C 10.203125 -4.359375 10.351562 -5.03125 10.34375 -5.78125 C 10.351562 -6.550781 10.203125 -7.234375 9.890625 -7.828125 C 9.585938 -8.421875 9.164062 -8.882812 8.625 -9.21875 C 8.082031 -9.550781 7.46875 -9.71875 6.78125 -9.71875 C 6.082031 -9.71875 5.457031 -9.546875 4.90625 -9.203125 C 4.363281 -8.859375 3.9375 -8.390625 3.625 -7.796875 C 3.320312 -7.203125 3.175781 -6.53125 3.1875 -5.78125 C 3.175781 -5.03125 3.320312 -4.359375 3.625 -3.765625 C 3.9375 -3.171875 4.363281 -2.703125 4.90625 -2.359375 C 5.457031 -2.015625 6.082031 -1.84375 6.78125 -1.84375 Z M 6.78125 -1.84375 "/></g></g></g><g fill="#ffffff" fill-opacity="1"><g transform="translate(227.819539, 352.45673)"><g><path d="M 1.625 0 L 1.625 -16.28125 L 3.890625 -16.28125 L 3.890625 0 Z M 1.625 0 "/></g></g></g><g fill="#ffffff" fill-opacity="1"><g transform="translate(233.340557, 352.45673)"><g><path d="M 6.78125 0.21875 C 5.644531 0.21875 4.632812 -0.0390625 3.75 -0.5625 C 2.863281 -1.082031 2.160156 -1.789062 1.640625 -2.6875 C 1.128906 -3.59375 0.875 -4.625 0.875 -5.78125 C 0.875 -6.945312 1.128906 -7.976562 1.640625 -8.875 C 2.160156 -9.78125 2.863281 -10.492188 3.75 -11.015625 C 4.632812 -11.535156 5.644531 -11.796875 6.78125 -11.796875 C 7.894531 -11.796875 8.894531 -11.535156 9.78125 -11.015625 C 10.664062 -10.492188 11.363281 -9.78125 11.875 -8.875 C 12.394531 -7.976562 12.65625 -6.945312 12.65625 -5.78125 C 12.65625 -4.625 12.394531 -3.59375 11.875 -2.6875 C 11.363281 -1.789062 10.664062 -1.082031 9.78125 -0.5625 C 8.894531 -0.0390625 7.894531 0.21875 6.78125 0.21875 Z M 6.78125 -1.84375 C 7.46875 -1.84375 8.082031 -2.015625 8.625 -2.359375 C 9.164062 -2.703125 9.585938 -3.171875 9.890625 -3.765625 C 10.203125 -4.359375 10.351562 -5.03125 10.34375 -5.78125 C 10.351562 -6.550781 10.203125 -7.234375 9.890625 -7.828125 C 9.585938 -8.421875 9.164062 -8.882812 8.625 -9.21875 C 8.082031 -9.550781 7.46875 -9.71875 6.78125 -9.71875 C 6.082031 -9.71875 5.457031 -9.546875 4.90625 -9.203125 C 4.363281 -8.859375 3.9375 -8.390625 3.625 -7.796875 C 3.320312 -7.203125 3.175781 -6.53125 3.1875 -5.78125 C 3.175781 -5.03125 3.320312 -4.359375 3.625 -3.765625 C 3.9375 -3.171875 4.363281 -2.703125 4.90625 -2.359375 C 5.457031 -2.015625 6.082031 -1.84375 6.78125 -1.84375 Z M 6.78125 -1.84375 "/></g></g></g><g fill="#ffffff" fill-opacity="1"><g transform="translate(246.868148, 352.45673)"><g><path d="M 6.75 5.0625 C 5.925781 5.0625 5.109375 4.929688 4.296875 4.671875 C 3.484375 4.421875 2.828125 4.085938 2.328125 3.671875 L 3.171875 1.90625 C 3.460938 2.132812 3.804688 2.332031 4.203125 2.5 C 4.597656 2.664062 5.015625 2.796875 5.453125 2.890625 C 5.890625 2.984375 6.320312 3.03125 6.75 3.03125 C 7.5625 3.03125 8.238281 2.898438 8.78125 2.640625 C 9.320312 2.378906 9.726562 1.988281 10 1.46875 C 10.28125 0.957031 10.421875 0.320312 10.421875 -0.4375 L 10.421875 -2.65625 L 10.671875 -2.515625 C 10.597656 -2.054688 10.359375 -1.617188 9.953125 -1.203125 C 9.546875 -0.785156 9.039062 -0.441406 8.4375 -0.171875 C 7.84375 0.0859375 7.226562 0.21875 6.59375 0.21875 C 5.5 0.21875 4.519531 -0.0390625 3.65625 -0.5625 C 2.800781 -1.082031 2.125 -1.789062 1.625 -2.6875 C 1.125 -3.59375 0.875 -4.625 0.875 -5.78125 C 0.875 -6.945312 1.117188 -7.976562 1.609375 -8.875 C 2.109375 -9.78125 2.785156 -10.492188 3.640625 -11.015625 C 4.492188 -11.535156 5.457031 -11.796875 6.53125 -11.796875 C 6.96875 -11.796875 7.390625 -11.738281 7.796875 -11.625 C 8.210938 -11.519531 8.597656 -11.367188 8.953125 -11.171875 C 9.304688 -10.972656 9.617188 -10.753906 9.890625 -10.515625 C 10.171875 -10.273438 10.398438 -10.023438 10.578125 -9.765625 C 10.753906 -9.503906 10.863281 -9.253906 10.90625 -9.015625 L 10.421875 -8.84375 L 10.421875 -11.546875 L 12.6875 -11.546875 L 12.6875 -0.703125 C 12.6875 0.222656 12.550781 1.039062 12.28125 1.75 C 12.007812 2.457031 11.617188 3.054688 11.109375 3.546875 C 10.597656 4.046875 9.972656 4.421875 9.234375 4.671875 C 8.503906 4.929688 7.675781 5.0625 6.75 5.0625 Z M 6.84375 -1.875 C 7.5625 -1.875 8.195312 -2.039062 8.75 -2.375 C 9.3125 -2.707031 9.742188 -3.164062 10.046875 -3.75 C 10.359375 -4.34375 10.515625 -5.019531 10.515625 -5.78125 C 10.515625 -6.550781 10.351562 -7.234375 10.03125 -7.828125 C 9.71875 -8.421875 9.285156 -8.882812 8.734375 -9.21875 C 8.191406 -9.550781 7.5625 -9.71875 6.84375 -9.71875 C 6.132812 -9.71875 5.503906 -9.546875 4.953125 -9.203125 C 4.410156 -8.859375 3.976562 -8.390625 3.65625 -7.796875 C 3.34375 -7.203125 3.1875 -6.53125 3.1875 -5.78125 C 3.1875 -5.03125 3.34375 -4.359375 3.65625 -3.765625 C 3.976562 -3.171875 4.410156 -2.707031 4.953125 -2.375 C 5.503906 -2.039062 6.132812 -1.875 6.84375 -1.875 Z M 6.84375 -1.875 "/></g></g></g><g fill="#ffffff" fill-opacity="1"><g transform="translate(261.1436, 352.45673)"><g><path d="M 3.515625 5.0625 L 5.859375 -0.328125 L 5.875 1.46875 L 0.109375 -11.546875 L 2.75 -11.546875 L 6.359375 -3.0625 C 6.429688 -2.914062 6.519531 -2.691406 6.625 -2.390625 C 6.726562 -2.085938 6.816406 -1.789062 6.890625 -1.5 L 6.3125 -1.359375 C 6.425781 -1.671875 6.535156 -1.976562 6.640625 -2.28125 C 6.753906 -2.59375 6.863281 -2.90625 6.96875 -3.21875 L 9.984375 -11.546875 L 12.671875 -11.546875 L 7.921875 0 L 5.96875 5.0625 Z M 3.515625 5.0625 "/></g></g></g><g clip-path="url(#ba2122f84f)"><g clip-path="url(#1a7c7ce763)"><path fill="#084772" d="M 312.960938 116.085938 L 497.039062 116.085938 L 497.039062 300.167969 L 312.960938 300.167969 Z M 312.960938 116.085938 " fill-opacity="1" fill-rule="nonzero"/></g></g><g fill="#ffffff" fill-opacity="1"><g transform="translate(358.310934, 215.085859)"><g><path d="M 6.90625 0.21875 C 6.070312 0.21875 5.296875 0.109375 4.578125 -0.109375 C 3.867188 -0.328125 3.222656 -0.660156 2.640625 -1.109375 C 2.066406 -1.554688 1.550781 -2.109375 1.09375 -2.765625 L 2.734375 -4.640625 C 3.453125 -3.617188 4.140625 -2.90625 4.796875 -2.5 C 5.453125 -2.101562 6.238281 -1.90625 7.15625 -1.90625 C 7.707031 -1.90625 8.207031 -1.992188 8.65625 -2.171875 C 9.113281 -2.347656 9.472656 -2.585938 9.734375 -2.890625 C 10.003906 -3.203125 10.140625 -3.554688 10.140625 -3.953125 C 10.140625 -4.222656 10.09375 -4.472656 10 -4.703125 C 9.914062 -4.941406 9.78125 -5.15625 9.59375 -5.34375 C 9.414062 -5.53125 9.179688 -5.703125 8.890625 -5.859375 C 8.609375 -6.023438 8.273438 -6.171875 7.890625 -6.296875 C 7.515625 -6.421875 7.078125 -6.53125 6.578125 -6.625 C 5.785156 -6.78125 5.09375 -6.988281 4.5 -7.25 C 3.914062 -7.519531 3.425781 -7.851562 3.03125 -8.25 C 2.632812 -8.644531 2.34375 -9.09375 2.15625 -9.59375 C 1.96875 -10.101562 1.875 -10.675781 1.875 -11.3125 C 1.875 -11.925781 2.007812 -12.492188 2.28125 -13.015625 C 2.550781 -13.546875 2.921875 -14.003906 3.390625 -14.390625 C 3.867188 -14.785156 4.429688 -15.085938 5.078125 -15.296875 C 5.722656 -15.515625 6.421875 -15.625 7.171875 -15.625 C 7.960938 -15.625 8.6875 -15.519531 9.34375 -15.3125 C 10.007812 -15.101562 10.597656 -14.796875 11.109375 -14.390625 C 11.617188 -13.992188 12.046875 -13.5 12.390625 -12.90625 L 10.71875 -11.265625 C 10.425781 -11.742188 10.09375 -12.148438 9.71875 -12.484375 C 9.351562 -12.816406 8.953125 -13.066406 8.515625 -13.234375 C 8.078125 -13.398438 7.609375 -13.484375 7.109375 -13.484375 C 6.535156 -13.484375 6.035156 -13.394531 5.609375 -13.21875 C 5.179688 -13.039062 4.847656 -12.796875 4.609375 -12.484375 C 4.367188 -12.171875 4.25 -11.800781 4.25 -11.375 C 4.25 -11.0625 4.304688 -10.773438 4.421875 -10.515625 C 4.535156 -10.265625 4.710938 -10.039062 4.953125 -9.84375 C 5.203125 -9.644531 5.53125 -9.46875 5.9375 -9.3125 C 6.351562 -9.164062 6.84375 -9.03125 7.40625 -8.90625 C 8.21875 -8.726562 8.9375 -8.503906 9.5625 -8.234375 C 10.195312 -7.960938 10.734375 -7.644531 11.171875 -7.28125 C 11.617188 -6.914062 11.953125 -6.503906 12.171875 -6.046875 C 12.398438 -5.597656 12.515625 -5.109375 12.515625 -4.578125 C 12.515625 -3.597656 12.285156 -2.75 11.828125 -2.03125 C 11.378906 -1.3125 10.734375 -0.753906 9.890625 -0.359375 C 9.054688 0.0234375 8.0625 0.21875 6.90625 0.21875 Z M 6.90625 0.21875 "/></g></g></g><g fill="#ffffff" fill-opacity="1"><g transform="translate(372.036484, 215.085859)"><g><path d="M 3.015625 0 L 3.015625 -14.5 L 5.28125 -14.5 L 5.28125 0 Z M 0.609375 -9.34375 L 0.609375 -11.546875 L 7.96875 -11.546875 L 7.96875 -9.34375 Z M 0.609375 -9.34375 "/></g></g></g><g fill="#ffffff" fill-opacity="1"><g transform="translate(380.482979, 215.085859)"><g><path d="M 1.578125 0 L 1.578125 -11.546875 L 3.875 -11.546875 L 3.875 -7.921875 L 3.65625 -8.796875 C 3.8125 -9.359375 4.082031 -9.863281 4.46875 -10.3125 C 4.863281 -10.769531 5.3125 -11.128906 5.8125 -11.390625 C 6.320312 -11.660156 6.847656 -11.796875 7.390625 -11.796875 C 7.640625 -11.796875 7.878906 -11.769531 8.109375 -11.71875 C 8.335938 -11.675781 8.515625 -11.628906 8.640625 -11.578125 L 8.046875 -9.109375 C 7.867188 -9.179688 7.675781 -9.242188 7.46875 -9.296875 C 7.257812 -9.347656 7.050781 -9.375 6.84375 -9.375 C 6.445312 -9.375 6.066406 -9.296875 5.703125 -9.140625 C 5.347656 -8.984375 5.035156 -8.769531 4.765625 -8.5 C 4.492188 -8.226562 4.273438 -7.910156 4.109375 -7.546875 C 3.953125 -7.191406 3.875 -6.800781 3.875 -6.375 L 3.875 0 Z M 1.578125 0 "/></g></g></g><g fill="#ffffff" fill-opacity="1"><g transform="translate(389.3474, 215.085859)"><g><path d="M 6.03125 0.21875 C 5.070312 0.21875 4.203125 -0.0390625 3.421875 -0.5625 C 2.640625 -1.09375 2.015625 -1.8125 1.546875 -2.71875 C 1.078125 -3.632812 0.84375 -4.664062 0.84375 -5.8125 C 0.84375 -6.96875 1.078125 -7.992188 1.546875 -8.890625 C 2.023438 -9.796875 2.671875 -10.503906 3.484375 -11.015625 C 4.296875 -11.535156 5.207031 -11.796875 6.21875 -11.796875 C 6.820312 -11.796875 7.375 -11.707031 7.875 -11.53125 C 8.375 -11.351562 8.8125 -11.101562 9.1875 -10.78125 C 9.5625 -10.46875 9.867188 -10.109375 10.109375 -9.703125 C 10.347656 -9.296875 10.5 -8.851562 10.5625 -8.375 L 10.046875 -8.5625 L 10.046875 -11.546875 L 12.34375 -11.546875 L 12.34375 0 L 10.046875 0 L 10.046875 -2.75 L 10.578125 -2.90625 C 10.492188 -2.507812 10.316406 -2.125 10.046875 -1.75 C 9.773438 -1.375 9.425781 -1.039062 9 -0.75 C 8.582031 -0.457031 8.117188 -0.222656 7.609375 -0.046875 C 7.109375 0.128906 6.582031 0.21875 6.03125 0.21875 Z M 6.625 -1.875 C 7.3125 -1.875 7.914062 -2.039062 8.4375 -2.375 C 8.96875 -2.707031 9.382812 -3.171875 9.6875 -3.765625 C 9.988281 -4.359375 10.140625 -5.039062 10.140625 -5.8125 C 10.140625 -6.5625 9.988281 -7.226562 9.6875 -7.8125 C 9.382812 -8.394531 8.96875 -8.851562 8.4375 -9.1875 C 7.914062 -9.53125 7.3125 -9.703125 6.625 -9.703125 C 5.945312 -9.703125 5.347656 -9.53125 4.828125 -9.1875 C 4.304688 -8.851562 3.894531 -8.394531 3.59375 -7.8125 C 3.289062 -7.226562 3.140625 -6.5625 3.140625 -5.8125 C 3.140625 -5.039062 3.289062 -4.359375 3.59375 -3.765625 C 3.894531 -3.171875 4.304688 -2.707031 4.828125 -2.375 C 5.347656 -2.039062 5.945312 -1.875 6.625 -1.875 Z M 6.625 -1.875 "/></g></g></g><g fill="#ffffff" fill-opacity="1"><g transform="translate(403.270922, 215.085859)"><g><path d="M 3.015625 0 L 3.015625 -14.5 L 5.28125 -14.5 L 5.28125 0 Z M 0.609375 -9.34375 L 0.609375 -11.546875 L 7.96875 -11.546875 L 7.96875 -9.34375 Z M 0.609375 -9.34375 "/></g></g></g><g fill="#ffffff" fill-opacity="1"><g transform="translate(411.717417, 215.085859)"><g><path d="M 6.96875 0.21875 C 5.78125 0.21875 4.726562 -0.03125 3.8125 -0.53125 C 2.894531 -1.039062 2.175781 -1.734375 1.65625 -2.609375 C 1.132812 -3.492188 0.875 -4.507812 0.875 -5.65625 C 0.875 -6.5625 1.019531 -7.390625 1.3125 -8.140625 C 1.613281 -8.890625 2.023438 -9.535156 2.546875 -10.078125 C 3.066406 -10.628906 3.6875 -11.054688 4.40625 -11.359375 C 5.132812 -11.660156 5.925781 -11.8125 6.78125 -11.8125 C 7.519531 -11.8125 8.210938 -11.664062 8.859375 -11.375 C 9.503906 -11.09375 10.066406 -10.703125 10.546875 -10.203125 C 11.023438 -9.703125 11.390625 -9.109375 11.640625 -8.421875 C 11.898438 -7.742188 12.023438 -7.003906 12.015625 -6.203125 L 11.984375 -5.234375 L 2.546875 -5.234375 L 2.046875 -7.046875 L 10.03125 -7.046875 L 9.703125 -6.671875 L 9.703125 -7.1875 C 9.660156 -7.675781 9.5 -8.109375 9.21875 -8.484375 C 8.9375 -8.867188 8.582031 -9.171875 8.15625 -9.390625 C 7.738281 -9.609375 7.28125 -9.71875 6.78125 -9.71875 C 5.988281 -9.71875 5.316406 -9.566406 4.765625 -9.265625 C 4.222656 -8.972656 3.8125 -8.535156 3.53125 -7.953125 C 3.257812 -7.367188 3.125 -6.65625 3.125 -5.8125 C 3.125 -5 3.289062 -4.296875 3.625 -3.703125 C 3.96875 -3.109375 4.445312 -2.648438 5.0625 -2.328125 C 5.675781 -2.003906 6.382812 -1.84375 7.1875 -1.84375 C 7.757812 -1.84375 8.289062 -1.9375 8.78125 -2.125 C 9.28125 -2.320312 9.816406 -2.671875 10.390625 -3.171875 L 11.53125 -1.5625 C 11.175781 -1.207031 10.742188 -0.894531 10.234375 -0.625 C 9.734375 -0.363281 9.195312 -0.15625 8.625 0 C 8.0625 0.144531 7.507812 0.21875 6.96875 0.21875 Z M 6.96875 0.21875 "/></g></g></g><g fill="#ffffff" fill-opacity="1"><g transform="translate(424.607114, 215.085859)"><g><path d="M 6.75 5.0625 C 5.925781 5.0625 5.109375 4.929688 4.296875 4.671875 C 3.484375 4.421875 2.828125 4.085938 2.328125 3.671875 L 3.171875 1.90625 C 3.460938 2.132812 3.804688 2.332031 4.203125 2.5 C 4.597656 2.664062 5.015625 2.796875 5.453125 2.890625 C 5.890625 2.984375 6.320312 3.03125 6.75 3.03125 C 7.5625 3.03125 8.238281 2.898438 8.78125 2.640625 C 9.320312 2.378906 9.726562 1.988281 10 1.46875 C 10.28125 0.957031 10.421875 0.320312 10.421875 -0.4375 L 10.421875 -2.65625 L 10.671875 -2.515625 C 10.597656 -2.054688 10.359375 -1.617188 9.953125 -1.203125 C 9.546875 -0.785156 9.039062 -0.441406 8.4375 -0.171875 C 7.84375 0.0859375 7.226562 0.21875 6.59375 0.21875 C 5.5 0.21875 4.519531 -0.0390625 3.65625 -0.5625 C 2.800781 -1.082031 2.125 -1.789062 1.625 -2.6875 C 1.125 -3.59375 0.875 -4.625 0.875 -5.78125 C 0.875 -6.945312 1.117188 -7.976562 1.609375 -8.875 C 2.109375 -9.78125 2.785156 -10.492188 3.640625 -11.015625 C 4.492188 -11.535156 5.457031 -11.796875 6.53125 -11.796875 C 6.96875 -11.796875 7.390625 -11.738281 7.796875 -11.625 C 8.210938 -11.519531 8.597656 -11.367188 8.953125 -11.171875 C 9.304688 -10.972656 9.617188 -10.753906 9.890625 -10.515625 C 10.171875 -10.273438 10.398438 -10.023438 10.578125 -9.765625 C 10.753906 -9.503906 10.863281 -9.253906 10.90625 -9.015625 L 10.421875 -8.84375 L 10.421875 -11.546875 L 12.6875 -11.546875 L 12.6875 -0.703125 C 12.6875 0.222656 12.550781 1.039062 12.28125 1.75 C 12.007812 2.457031 11.617188 3.054688 11.109375 3.546875 C 10.597656 4.046875 9.972656 4.421875 9.234375 4.671875 C 8.503906 4.929688 7.675781 5.0625 6.75 5.0625 Z M 6.84375 -1.875 C 7.5625 -1.875 8.195312 -2.039062 8.75 -2.375 C 9.3125 -2.707031 9.742188 -3.164062 10.046875 -3.75 C 10.359375 -4.34375 10.515625 -5.019531 10.515625 -5.78125 C 10.515625 -6.550781 10.351562 -7.234375 10.03125 -7.828125 C 9.71875 -8.421875 9.285156 -8.882812 8.734375 -9.21875 C 8.191406 -9.550781 7.5625 -9.71875 6.84375 -9.71875 C 6.132812 -9.71875 5.503906 -9.546875 4.953125 -9.203125 C 4.410156 -8.859375 3.976562 -8.390625 3.65625 -7.796875 C 3.34375 -7.203125 3.1875 -6.53125 3.1875 -5.78125 C 3.1875 -5.03125 3.34375 -4.359375 3.65625 -3.765625 C 3.976562 -3.171875 4.410156 -2.707031 4.953125 -2.375 C 5.503906 -2.039062 6.132812 -1.875 6.84375 -1.875 Z M 6.84375 -1.875 "/></g></g></g><g fill="#ffffff" fill-opacity="1"><g transform="translate(438.882565, 215.085859)"><g><path d="M 3.515625 5.0625 L 5.859375 -0.328125 L 5.875 1.46875 L 0.109375 -11.546875 L 2.75 -11.546875 L 6.359375 -3.0625 C 6.429688 -2.914062 6.519531 -2.691406 6.625 -2.390625 C 6.726562 -2.085938 6.816406 -1.789062 6.890625 -1.5 L 6.3125 -1.359375 C 6.425781 -1.671875 6.535156 -1.976562 6.640625 -2.28125 C 6.753906 -2.59375 6.863281 -2.90625 6.96875 -3.21875 L 9.984375 -11.546875 L 12.671875 -11.546875 L 7.921875 0 L 5.96875 5.0625 Z M 3.515625 5.0625 "/></g></g></g><g clip-path="url(#2045642743)"><g clip-path="url(#2714a72b2c)"><path fill="#084772" d="M 505.289062 253.457031 L 689.371094 253.457031 L 689.371094 437.539062 L 505.289062 437.539062 Z M 505.289062 253.457031 " fill-opacity="1" fill-rule="nonzero"/></g></g><g fill="#ffffff" fill-opacity="1"><g transform="translate(561.892186, 337.456731)"><g><path d="M 2.15625 0 L 2.15625 -15.40625 L 8.1875 -15.40625 C 9.28125 -15.40625 10.269531 -15.21875 11.15625 -14.84375 C 12.050781 -14.476562 12.8125 -13.953125 13.4375 -13.265625 C 14.070312 -12.578125 14.554688 -11.765625 14.890625 -10.828125 C 15.234375 -9.890625 15.40625 -8.847656 15.40625 -7.703125 C 15.40625 -6.554688 15.234375 -5.507812 14.890625 -4.5625 C 14.554688 -3.613281 14.078125 -2.796875 13.453125 -2.109375 C 12.828125 -1.429688 12.066406 -0.910156 11.171875 -0.546875 C 10.273438 -0.179688 9.28125 0 8.1875 0 Z M 4.53125 -2.046875 L 4.46875 -2.28125 L 8.078125 -2.28125 C 8.847656 -2.28125 9.535156 -2.40625 10.140625 -2.65625 C 10.753906 -2.90625 11.269531 -3.257812 11.6875 -3.71875 C 12.101562 -4.1875 12.421875 -4.757812 12.640625 -5.4375 C 12.867188 -6.113281 12.984375 -6.867188 12.984375 -7.703125 C 12.984375 -8.535156 12.867188 -9.285156 12.640625 -9.953125 C 12.421875 -10.617188 12.097656 -11.1875 11.671875 -11.65625 C 11.253906 -12.125 10.742188 -12.484375 10.140625 -12.734375 C 9.535156 -12.984375 8.847656 -13.109375 8.078125 -13.109375 L 4.40625 -13.109375 L 4.53125 -13.3125 Z M 4.53125 -2.046875 "/></g></g></g><g fill="#ffffff" fill-opacity="1"><g transform="translate(578.345253, 337.456731)"><g><path d="M 1.953125 0 L 1.953125 -11.546875 L 4.21875 -11.546875 L 4.21875 0 Z M 3.0625 -14.109375 C 2.570312 -14.109375 2.195312 -14.226562 1.9375 -14.46875 C 1.675781 -14.71875 1.546875 -15.070312 1.546875 -15.53125 C 1.546875 -15.957031 1.679688 -16.300781 1.953125 -16.5625 C 2.222656 -16.832031 2.59375 -16.96875 3.0625 -16.96875 C 3.539062 -16.96875 3.910156 -16.84375 4.171875 -16.59375 C 4.441406 -16.34375 4.578125 -15.988281 4.578125 -15.53125 C 4.578125 -15.101562 4.441406 -14.757812 4.171875 -14.5 C 3.898438 -14.238281 3.53125 -14.109375 3.0625 -14.109375 Z M 3.0625 -14.109375 "/></g></g></g><g fill="#ffffff" fill-opacity="1"><g transform="translate(584.460163, 337.456731)"><g><path d="M 6.75 5.0625 C 5.925781 5.0625 5.109375 4.929688 4.296875 4.671875 C 3.484375 4.421875 2.828125 4.085938 2.328125 3.671875 L 3.171875 1.90625 C 3.460938 2.132812 3.804688 2.332031 4.203125 2.5 C 4.597656 2.664062 5.015625 2.796875 5.453125 2.890625 C 5.890625 2.984375 6.320312 3.03125 6.75 3.03125 C 7.5625 3.03125 8.238281 2.898438 8.78125 2.640625 C 9.320312 2.378906 9.726562 1.988281 10 1.46875 C 10.28125 0.957031 10.421875 0.320312 10.421875 -0.4375 L 10.421875 -2.65625 L 10.671875 -2.515625 C 10.597656 -2.054688 10.359375 -1.617188 9.953125 -1.203125 C 9.546875 -0.785156 9.039062 -0.441406 8.4375 -0.171875 C 7.84375 0.0859375 7.226562 0.21875 6.59375 0.21875 C 5.5 0.21875 4.519531 -0.0390625 3.65625 -0.5625 C 2.800781 -1.082031 2.125 -1.789062 1.625 -2.6875 C 1.125 -3.59375 0.875 -4.625 0.875 -5.78125 C 0.875 -6.945312 1.117188 -7.976562 1.609375 -8.875 C 2.109375 -9.78125 2.785156 -10.492188 3.640625 -11.015625 C 4.492188 -11.535156 5.457031 -11.796875 6.53125 -11.796875 C 6.96875 -11.796875 7.390625 -11.738281 7.796875 -11.625 C 8.210938 -11.519531 8.597656 -11.367188 8.953125 -11.171875 C 9.304688 -10.972656 9.617188 -10.753906 9.890625 -10.515625 C 10.171875 -10.273438 10.398438 -10.023438 10.578125 -9.765625 C 10.753906 -9.503906 10.863281 -9.253906 10.90625 -9.015625 L 10.421875 -8.84375 L 10.421875 -11.546875 L 12.6875 -11.546875 L 12.6875 -0.703125 C 12.6875 0.222656 12.550781 1.039062 12.28125 1.75 C 12.007812 2.457031 11.617188 3.054688 11.109375 3.546875 C 10.597656 4.046875 9.972656 4.421875 9.234375 4.671875 C 8.503906 4.929688 7.675781 5.0625 6.75 5.0625 Z M 6.84375 -1.875 C 7.5625 -1.875 8.195312 -2.039062 8.75 -2.375 C 9.3125 -2.707031 9.742188 -3.164062 10.046875 -3.75 C 10.359375 -4.34375 10.515625 -5.019531 10.515625 -5.78125 C 10.515625 -6.550781 10.351562 -7.234375 10.03125 -7.828125 C 9.71875 -8.421875 9.285156 -8.882812 8.734375 -9.21875 C 8.191406 -9.550781 7.5625 -9.71875 6.84375 -9.71875 C 6.132812 -9.71875 5.503906 -9.546875 4.953125 -9.203125 C 4.410156 -8.859375 3.976562 -8.390625 3.65625 -7.796875 C 3.34375 -7.203125 3.1875 -6.53125 3.1875 -5.78125 C 3.1875 -5.03125 3.34375 -4.359375 3.65625 -3.765625 C 3.976562 -3.171875 4.410156 -2.707031 4.953125 -2.375 C 5.503906 -2.039062 6.132812 -1.875 6.84375 -1.875 Z M 6.84375 -1.875 "/></g></g></g><g fill="#ffffff" fill-opacity="1"><g transform="translate(598.735614, 337.456731)"><g><path d="M 1.953125 0 L 1.953125 -11.546875 L 4.21875 -11.546875 L 4.21875 0 Z M 3.0625 -14.109375 C 2.570312 -14.109375 2.195312 -14.226562 1.9375 -14.46875 C 1.675781 -14.71875 1.546875 -15.070312 1.546875 -15.53125 C 1.546875 -15.957031 1.679688 -16.300781 1.953125 -16.5625 C 2.222656 -16.832031 2.59375 -16.96875 3.0625 -16.96875 C 3.539062 -16.96875 3.910156 -16.84375 4.171875 -16.59375 C 4.441406 -16.34375 4.578125 -15.988281 4.578125 -15.53125 C 4.578125 -15.101562 4.441406 -14.757812 4.171875 -14.5 C 3.898438 -14.238281 3.53125 -14.109375 3.0625 -14.109375 Z M 3.0625 -14.109375 "/></g></g></g><g fill="#ffffff" fill-opacity="1"><g transform="translate(604.850524, 337.456731)"><g><path d="M 3.015625 0 L 3.015625 -14.5 L 5.28125 -14.5 L 5.28125 0 Z M 0.609375 -9.34375 L 0.609375 -11.546875 L 7.96875 -11.546875 L 7.96875 -9.34375 Z M 0.609375 -9.34375 "/></g></g></g><g fill="#ffffff" fill-opacity="1"><g transform="translate(613.297018, 337.456731)"><g><path d="M 6.03125 0.21875 C 5.070312 0.21875 4.203125 -0.0390625 3.421875 -0.5625 C 2.640625 -1.09375 2.015625 -1.8125 1.546875 -2.71875 C 1.078125 -3.632812 0.84375 -4.664062 0.84375 -5.8125 C 0.84375 -6.96875 1.078125 -7.992188 1.546875 -8.890625 C 2.023438 -9.796875 2.671875 -10.503906 3.484375 -11.015625 C 4.296875 -11.535156 5.207031 -11.796875 6.21875 -11.796875 C 6.820312 -11.796875 7.375 -11.707031 7.875 -11.53125 C 8.375 -11.351562 8.8125 -11.101562 9.1875 -10.78125 C 9.5625 -10.46875 9.867188 -10.109375 10.109375 -9.703125 C 10.347656 -9.296875 10.5 -8.851562 10.5625 -8.375 L 10.046875 -8.5625 L 10.046875 -11.546875 L 12.34375 -11.546875 L 12.34375 0 L 10.046875 0 L 10.046875 -2.75 L 10.578125 -2.90625 C 10.492188 -2.507812 10.316406 -2.125 10.046875 -1.75 C 9.773438 -1.375 9.425781 -1.039062 9 -0.75 C 8.582031 -0.457031 8.117188 -0.222656 7.609375 -0.046875 C 7.109375 0.128906 6.582031 0.21875 6.03125 0.21875 Z M 6.625 -1.875 C 7.3125 -1.875 7.914062 -2.039062 8.4375 -2.375 C 8.96875 -2.707031 9.382812 -3.171875 9.6875 -3.765625 C 9.988281 -4.359375 10.140625 -5.039062 10.140625 -5.8125 C 10.140625 -6.5625 9.988281 -7.226562 9.6875 -7.8125 C 9.382812 -8.394531 8.96875 -8.851562 8.4375 -9.1875 C 7.914062 -9.53125 7.3125 -9.703125 6.625 -9.703125 C 5.945312 -9.703125 5.347656 -9.53125 4.828125 -9.1875 C 4.304688 -8.851562 3.894531 -8.394531 3.59375 -7.8125 C 3.289062 -7.226562 3.140625 -6.5625 3.140625 -5.8125 C 3.140625 -5.039062 3.289062 -4.359375 3.59375 -3.765625 C 3.894531 -3.171875 4.304688 -2.707031 4.828125 -2.375 C 5.347656 -2.039062 5.945312 -1.875 6.625 -1.875 Z M 6.625 -1.875 "/></g></g></g><g fill="#ffffff" fill-opacity="1"><g transform="translate(627.22054, 337.456731)"><g><path d="M 1.625 0 L 1.625 -16.28125 L 3.890625 -16.28125 L 3.890625 0 Z M 1.625 0 "/></g></g></g><g fill="#ffffff" fill-opacity="1"><g transform="translate(548.778905, 368.206729)"><g><path d="M 8.40625 0.21875 C 7.332031 0.21875 6.347656 0.03125 5.453125 -0.34375 C 4.554688 -0.726562 3.78125 -1.273438 3.125 -1.984375 C 2.46875 -2.703125 1.957031 -3.546875 1.59375 -4.515625 C 1.238281 -5.484375 1.0625 -6.546875 1.0625 -7.703125 C 1.0625 -8.796875 1.253906 -9.816406 1.640625 -10.765625 C 2.023438 -11.710938 2.5625 -12.546875 3.25 -13.265625 C 3.945312 -13.984375 4.75 -14.539062 5.65625 -14.9375 C 6.5625 -15.332031 7.546875 -15.53125 8.609375 -15.53125 C 9.347656 -15.53125 10.070312 -15.414062 10.78125 -15.1875 C 11.5 -14.957031 12.144531 -14.640625 12.71875 -14.234375 C 13.300781 -13.835938 13.773438 -13.382812 14.140625 -12.875 L 12.5625 -11.21875 C 12.132812 -11.644531 11.703125 -12 11.265625 -12.28125 C 10.835938 -12.570312 10.398438 -12.789062 9.953125 -12.9375 C 9.503906 -13.082031 9.054688 -13.15625 8.609375 -13.15625 C 7.890625 -13.15625 7.21875 -13.019531 6.59375 -12.75 C 5.96875 -12.476562 5.421875 -12.097656 4.953125 -11.609375 C 4.492188 -11.128906 4.128906 -10.554688 3.859375 -9.890625 C 3.597656 -9.222656 3.46875 -8.492188 3.46875 -7.703125 C 3.46875 -6.867188 3.597656 -6.109375 3.859375 -5.421875 C 4.117188 -4.742188 4.484375 -4.160156 4.953125 -3.671875 C 5.421875 -3.191406 5.976562 -2.820312 6.625 -2.5625 C 7.28125 -2.300781 8.003906 -2.171875 8.796875 -2.171875 C 9.285156 -2.171875 9.765625 -2.238281 10.234375 -2.375 C 10.703125 -2.507812 11.140625 -2.703125 11.546875 -2.953125 C 11.960938 -3.203125 12.335938 -3.492188 12.671875 -3.828125 L 13.859375 -1.890625 C 13.523438 -1.492188 13.066406 -1.132812 12.484375 -0.8125 C 11.898438 -0.488281 11.253906 -0.234375 10.546875 -0.046875 C 9.835938 0.128906 9.125 0.21875 8.40625 0.21875 Z M 8.40625 0.21875 "/></g></g></g><g fill="#ffffff" fill-opacity="1"><g transform="translate(563.714245, 368.206729)"><g><path d="M 1.578125 0 L 1.578125 -16.28125 L 3.84375 -16.28125 L 3.84375 -9.171875 L 3.453125 -8.90625 C 3.597656 -9.425781 3.882812 -9.898438 4.3125 -10.328125 C 4.738281 -10.765625 5.242188 -11.117188 5.828125 -11.390625 C 6.410156 -11.660156 7.015625 -11.796875 7.640625 -11.796875 C 8.515625 -11.796875 9.242188 -11.625 9.828125 -11.28125 C 10.421875 -10.9375 10.863281 -10.410156 11.15625 -9.703125 C 11.445312 -8.992188 11.59375 -8.109375 11.59375 -7.046875 L 11.59375 0 L 9.328125 0 L 9.328125 -6.890625 C 9.328125 -7.546875 9.238281 -8.085938 9.0625 -8.515625 C 8.882812 -8.953125 8.613281 -9.269531 8.25 -9.46875 C 7.882812 -9.664062 7.429688 -9.75 6.890625 -9.71875 C 6.441406 -9.71875 6.035156 -9.648438 5.671875 -9.515625 C 5.304688 -9.378906 4.988281 -9.1875 4.71875 -8.9375 C 4.445312 -8.6875 4.234375 -8.394531 4.078125 -8.0625 C 3.921875 -7.726562 3.84375 -7.375 3.84375 -7 L 3.84375 0 L 2.734375 0 C 2.535156 0 2.34375 0 2.15625 0 C 1.96875 0 1.773438 0 1.578125 0 Z M 1.578125 0 "/></g></g></g><g fill="#ffffff" fill-opacity="1"><g transform="translate(576.801914, 368.206729)"><g><path d="M 6.03125 0.21875 C 5.070312 0.21875 4.203125 -0.0390625 3.421875 -0.5625 C 2.640625 -1.09375 2.015625 -1.8125 1.546875 -2.71875 C 1.078125 -3.632812 0.84375 -4.664062 0.84375 -5.8125 C 0.84375 -6.96875 1.078125 -7.992188 1.546875 -8.890625 C 2.023438 -9.796875 2.671875 -10.503906 3.484375 -11.015625 C 4.296875 -11.535156 5.207031 -11.796875 6.21875 -11.796875 C 6.820312 -11.796875 7.375 -11.707031 7.875 -11.53125 C 8.375 -11.351562 8.8125 -11.101562 9.1875 -10.78125 C 9.5625 -10.46875 9.867188 -10.109375 10.109375 -9.703125 C 10.347656 -9.296875 10.5 -8.851562 10.5625 -8.375 L 10.046875 -8.5625 L 10.046875 -11.546875 L 12.34375 -11.546875 L 12.34375 0 L 10.046875 0 L 10.046875 -2.75 L 10.578125 -2.90625 C 10.492188 -2.507812 10.316406 -2.125 10.046875 -1.75 C 9.773438 -1.375 9.425781 -1.039062 9 -0.75 C 8.582031 -0.457031 8.117188 -0.222656 7.609375 -0.046875 C 7.109375 0.128906 6.582031 0.21875 6.03125 0.21875 Z M 6.625 -1.875 C 7.3125 -1.875 7.914062 -2.039062 8.4375 -2.375 C 8.96875 -2.707031 9.382812 -3.171875 9.6875 -3.765625 C 9.988281 -4.359375 10.140625 -5.039062 10.140625 -5.8125 C 10.140625 -6.5625 9.988281 -7.226562 9.6875 -7.8125 C 9.382812 -8.394531 8.96875 -8.851562 8.4375 -9.1875 C 7.914062 -9.53125 7.3125 -9.703125 6.625 -9.703125 C 5.945312 -9.703125 5.347656 -9.53125 4.828125 -9.1875 C 4.304688 -8.851562 3.894531 -8.394531 3.59375 -7.8125 C 3.289062 -7.226562 3.140625 -6.5625 3.140625 -5.8125 C 3.140625 -5.039062 3.289062 -4.359375 3.59375 -3.765625 C 3.894531 -3.171875 4.304688 -2.707031 4.828125 -2.375 C 5.347656 -2.039062 5.945312 -1.875 6.625 -1.875 Z M 6.625 -1.875 "/></g></g></g><g fill="#ffffff" fill-opacity="1"><g transform="translate(590.725436, 368.206729)"><g><path d="M 1.578125 0 L 1.578125 -11.546875 L 3.84375 -11.546875 L 3.84375 -9.171875 L 3.453125 -8.90625 C 3.597656 -9.425781 3.882812 -9.898438 4.3125 -10.328125 C 4.738281 -10.765625 5.242188 -11.117188 5.828125 -11.390625 C 6.410156 -11.660156 7.015625 -11.796875 7.640625 -11.796875 C 8.515625 -11.796875 9.242188 -11.625 9.828125 -11.28125 C 10.421875 -10.9375 10.863281 -10.410156 11.15625 -9.703125 C 11.445312 -8.992188 11.59375 -8.109375 11.59375 -7.046875 L 11.59375 0 L 9.328125 0 L 9.328125 -6.890625 C 9.328125 -7.546875 9.238281 -8.085938 9.0625 -8.515625 C 8.882812 -8.953125 8.613281 -9.269531 8.25 -9.46875 C 7.882812 -9.664062 7.429688 -9.75 6.890625 -9.71875 C 6.441406 -9.71875 6.035156 -9.648438 5.671875 -9.515625 C 5.304688 -9.378906 4.988281 -9.1875 4.71875 -8.9375 C 4.445312 -8.6875 4.234375 -8.394531 4.078125 -8.0625 C 3.921875 -7.726562 3.84375 -7.375 3.84375 -7 L 3.84375 0 L 2.734375 0 C 2.535156 0 2.34375 0 2.15625 0 C 1.96875 0 1.773438 0 1.578125 0 Z M 1.578125 0 "/></g></g></g><g fill="#ffffff" fill-opacity="1"><g transform="translate(603.813105, 368.206729)"><g><path d="M 1.578125 0 L 1.578125 -11.546875 L 3.84375 -11.546875 L 3.84375 -9.171875 L 3.453125 -8.90625 C 3.597656 -9.425781 3.882812 -9.898438 4.3125 -10.328125 C 4.738281 -10.765625 5.242188 -11.117188 5.828125 -11.390625 C 6.410156 -11.660156 7.015625 -11.796875 7.640625 -11.796875 C 8.515625 -11.796875 9.242188 -11.625 9.828125 -11.28125 C 10.421875 -10.9375 10.863281 -10.410156 11.15625 -9.703125 C 11.445312 -8.992188 11.59375 -8.109375 11.59375 -7.046875 L 11.59375 0 L 9.328125 0 L 9.328125 -6.890625 C 9.328125 -7.546875 9.238281 -8.085938 9.0625 -8.515625 C 8.882812 -8.953125 8.613281 -9.269531 8.25 -9.46875 C 7.882812 -9.664062 7.429688 -9.75 6.890625 -9.71875 C 6.441406 -9.71875 6.035156 -9.648438 5.671875 -9.515625 C 5.304688 -9.378906 4.988281 -9.1875 4.71875 -8.9375 C 4.445312 -8.6875 4.234375 -8.394531 4.078125 -8.0625 C 3.921875 -7.726562 3.84375 -7.375 3.84375 -7 L 3.84375 0 L 2.734375 0 C 2.535156 0 2.34375 0 2.15625 0 C 1.96875 0 1.773438 0 1.578125 0 Z M 1.578125 0 "/></g></g></g><g fill="#ffffff" fill-opacity="1"><g transform="translate(616.900774, 368.206729)"><g><path d="M 6.96875 0.21875 C 5.78125 0.21875 4.726562 -0.03125 3.8125 -0.53125 C 2.894531 -1.039062 2.175781 -1.734375 1.65625 -2.609375 C 1.132812 -3.492188 0.875 -4.507812 0.875 -5.65625 C 0.875 -6.5625 1.019531 -7.390625 1.3125 -8.140625 C 1.613281 -8.890625 2.023438 -9.535156 2.546875 -10.078125 C 3.066406 -10.628906 3.6875 -11.054688 4.40625 -11.359375 C 5.132812 -11.660156 5.925781 -11.8125 6.78125 -11.8125 C 7.519531 -11.8125 8.210938 -11.664062 8.859375 -11.375 C 9.503906 -11.09375 10.066406 -10.703125 10.546875 -10.203125 C 11.023438 -9.703125 11.390625 -9.109375 11.640625 -8.421875 C 11.898438 -7.742188 12.023438 -7.003906 12.015625 -6.203125 L 11.984375 -5.234375 L 2.546875 -5.234375 L 2.046875 -7.046875 L 10.03125 -7.046875 L 9.703125 -6.671875 L 9.703125 -7.1875 C 9.660156 -7.675781 9.5 -8.109375 9.21875 -8.484375 C 8.9375 -8.867188 8.582031 -9.171875 8.15625 -9.390625 C 7.738281 -9.609375 7.28125 -9.71875 6.78125 -9.71875 C 5.988281 -9.71875 5.316406 -9.566406 4.765625 -9.265625 C 4.222656 -8.972656 3.8125 -8.535156 3.53125 -7.953125 C 3.257812 -7.367188 3.125 -6.65625 3.125 -5.8125 C 3.125 -5 3.289062 -4.296875 3.625 -3.703125 C 3.96875 -3.109375 4.445312 -2.648438 5.0625 -2.328125 C 5.675781 -2.003906 6.382812 -1.84375 7.1875 -1.84375 C 7.757812 -1.84375 8.289062 -1.9375 8.78125 -2.125 C 9.28125 -2.320312 9.816406 -2.671875 10.390625 -3.171875 L 11.53125 -1.5625 C 11.175781 -1.207031 10.742188 -0.894531 10.234375 -0.625 C 9.734375 -0.363281 9.195312 -0.15625 8.625 0 C 8.0625 0.144531 7.507812 0.21875 6.96875 0.21875 Z M 6.96875 0.21875 "/></g></g></g><g fill="#ffffff" fill-opacity="1"><g transform="translate(629.790471, 368.206729)"><g><path d="M 1.625 0 L 1.625 -16.28125 L 3.890625 -16.28125 L 3.890625 0 Z M 1.625 0 "/></g></g></g><g fill="#ffffff" fill-opacity="1"><g transform="translate(635.31149, 368.206729)"><g><path d="M 5.4375 0.21875 C 4.46875 0.21875 3.59375 0.0507812 2.8125 -0.28125 C 2.039062 -0.625 1.394531 -1.125 0.875 -1.78125 L 2.421875 -3.109375 C 2.859375 -2.585938 3.335938 -2.210938 3.859375 -1.984375 C 4.378906 -1.765625 4.96875 -1.65625 5.625 -1.65625 C 5.894531 -1.65625 6.140625 -1.6875 6.359375 -1.75 C 6.585938 -1.8125 6.785156 -1.910156 6.953125 -2.046875 C 7.128906 -2.179688 7.257812 -2.335938 7.34375 -2.515625 C 7.4375 -2.703125 7.484375 -2.90625 7.484375 -3.125 C 7.484375 -3.507812 7.34375 -3.816406 7.0625 -4.046875 C 6.914062 -4.148438 6.679688 -4.265625 6.359375 -4.390625 C 6.046875 -4.515625 5.640625 -4.644531 5.140625 -4.78125 C 4.296875 -5 3.601562 -5.242188 3.0625 -5.515625 C 2.519531 -5.796875 2.097656 -6.113281 1.796875 -6.46875 C 1.578125 -6.75 1.414062 -7.050781 1.3125 -7.375 C 1.21875 -7.707031 1.171875 -8.070312 1.171875 -8.46875 C 1.171875 -8.957031 1.273438 -9.398438 1.484375 -9.796875 C 1.691406 -10.203125 1.984375 -10.554688 2.359375 -10.859375 C 2.734375 -11.160156 3.171875 -11.390625 3.671875 -11.546875 C 4.179688 -11.710938 4.722656 -11.796875 5.296875 -11.796875 C 5.835938 -11.796875 6.375 -11.722656 6.90625 -11.578125 C 7.445312 -11.429688 7.945312 -11.21875 8.40625 -10.9375 C 8.863281 -10.65625 9.242188 -10.320312 9.546875 -9.9375 L 8.25 -8.515625 C 7.96875 -8.796875 7.660156 -9.039062 7.328125 -9.25 C 7.003906 -9.457031 6.671875 -9.617188 6.328125 -9.734375 C 5.992188 -9.859375 5.6875 -9.921875 5.40625 -9.921875 C 5.101562 -9.921875 4.828125 -9.890625 4.578125 -9.828125 C 4.328125 -9.773438 4.117188 -9.6875 3.953125 -9.5625 C 3.785156 -9.445312 3.65625 -9.300781 3.5625 -9.125 C 3.476562 -8.945312 3.4375 -8.75 3.4375 -8.53125 C 3.445312 -8.34375 3.492188 -8.164062 3.578125 -8 C 3.660156 -7.832031 3.773438 -7.6875 3.921875 -7.5625 C 4.078125 -7.445312 4.316406 -7.320312 4.640625 -7.1875 C 4.960938 -7.0625 5.375 -6.9375 5.875 -6.8125 C 6.601562 -6.625 7.207031 -6.414062 7.6875 -6.1875 C 8.164062 -5.96875 8.546875 -5.707031 8.828125 -5.40625 C 9.117188 -5.132812 9.320312 -4.8125 9.4375 -4.4375 C 9.550781 -4.070312 9.609375 -3.664062 9.609375 -3.21875 C 9.609375 -2.550781 9.421875 -1.957031 9.046875 -1.4375 C 8.671875 -0.914062 8.164062 -0.507812 7.53125 -0.21875 C 6.90625 0.0703125 6.207031 0.21875 5.4375 0.21875 Z M 5.4375 0.21875 "/></g></g></g><g clip-path="url(#595235ec20)"><g clip-path="url(#0730d11392)"><path fill="#084772" d="M 204.871094 480.109375 L 388.953125 480.109375 L 388.953125 664.1875 L 204.871094 664.1875 Z M 204.871094 480.109375 " fill-opacity="1" fill-rule="nonzero"/></g></g><g fill="#ffffff" fill-opacity="1"><g transform="translate(228.017394, 579.108135)"><g><path d="M 8.609375 0.21875 C 7.515625 0.21875 6.507812 0.0195312 5.59375 -0.375 C 4.675781 -0.769531 3.875 -1.320312 3.1875 -2.03125 C 2.507812 -2.75 1.984375 -3.585938 1.609375 -4.546875 C 1.242188 -5.503906 1.0625 -6.554688 1.0625 -7.703125 C 1.0625 -8.847656 1.242188 -9.898438 1.609375 -10.859375 C 1.984375 -11.816406 2.507812 -12.648438 3.1875 -13.359375 C 3.875 -14.078125 4.675781 -14.632812 5.59375 -15.03125 C 6.507812 -15.425781 7.515625 -15.625 8.609375 -15.625 C 9.691406 -15.625 10.691406 -15.425781 11.609375 -15.03125 C 12.523438 -14.632812 13.320312 -14.078125 14 -13.359375 C 14.6875 -12.640625 15.210938 -11.796875 15.578125 -10.828125 C 15.953125 -9.867188 16.140625 -8.828125 16.140625 -7.703125 C 16.140625 -6.566406 15.953125 -5.519531 15.578125 -4.5625 C 15.210938 -3.601562 14.6875 -2.765625 14 -2.046875 C 13.320312 -1.328125 12.523438 -0.769531 11.609375 -0.375 C 10.691406 0.0195312 9.691406 0.21875 8.609375 0.21875 Z M 8.609375 -2.09375 C 9.347656 -2.09375 10.03125 -2.226562 10.65625 -2.5 C 11.28125 -2.78125 11.816406 -3.171875 12.265625 -3.671875 C 12.722656 -4.179688 13.082031 -4.773438 13.34375 -5.453125 C 13.601562 -6.140625 13.734375 -6.890625 13.734375 -7.703125 C 13.734375 -8.503906 13.601562 -9.242188 13.34375 -9.921875 C 13.082031 -10.609375 12.722656 -11.203125 12.265625 -11.703125 C 11.816406 -12.210938 11.28125 -12.609375 10.65625 -12.890625 C 10.03125 -13.171875 9.347656 -13.3125 8.609375 -13.3125 C 7.859375 -13.3125 7.171875 -13.171875 6.546875 -12.890625 C 5.921875 -12.609375 5.375 -12.21875 4.90625 -11.71875 C 4.445312 -11.226562 4.09375 -10.640625 3.84375 -9.953125 C 3.59375 -9.273438 3.46875 -8.523438 3.46875 -7.703125 C 3.46875 -6.890625 3.59375 -6.140625 3.84375 -5.453125 C 4.09375 -4.765625 4.445312 -4.171875 4.90625 -3.671875 C 5.375 -3.171875 5.921875 -2.78125 6.546875 -2.5 C 7.171875 -2.226562 7.859375 -2.09375 8.609375 -2.09375 Z M 8.609375 -2.09375 "/></g></g></g><g fill="#ffffff" fill-opacity="1"><g transform="translate(245.218332, 579.108135)"><g><path d="M 1.578125 4.84375 L 1.578125 -11.546875 L 3.875 -11.546875 L 3.875 -8.90625 L 3.515625 -9.109375 C 3.609375 -9.546875 3.859375 -9.96875 4.265625 -10.375 C 4.679688 -10.78125 5.1875 -11.109375 5.78125 -11.359375 C 6.375 -11.617188 6.984375 -11.75 7.609375 -11.75 C 8.648438 -11.75 9.570312 -11.488281 10.375 -10.96875 C 11.1875 -10.457031 11.828125 -9.753906 12.296875 -8.859375 C 12.765625 -7.972656 13 -6.945312 13 -5.78125 C 13 -4.632812 12.765625 -3.609375 12.296875 -2.703125 C 11.835938 -1.804688 11.207031 -1.097656 10.40625 -0.578125 C 9.601562 -0.0546875 8.691406 0.203125 7.671875 0.203125 C 7.003906 0.203125 6.351562 0.0664062 5.71875 -0.203125 C 5.09375 -0.472656 4.554688 -0.820312 4.109375 -1.25 C 3.671875 -1.675781 3.398438 -2.117188 3.296875 -2.578125 L 3.875 -2.875 L 3.875 4.84375 Z M 7.296875 -1.890625 C 7.972656 -1.890625 8.578125 -2.054688 9.109375 -2.390625 C 9.640625 -2.734375 10.054688 -3.195312 10.359375 -3.78125 C 10.671875 -4.363281 10.828125 -5.03125 10.828125 -5.78125 C 10.828125 -6.53125 10.675781 -7.191406 10.375 -7.765625 C 10.070312 -8.347656 9.65625 -8.804688 9.125 -9.140625 C 8.601562 -9.484375 7.992188 -9.65625 7.296875 -9.65625 C 6.609375 -9.65625 6 -9.488281 5.46875 -9.15625 C 4.945312 -8.832031 4.53125 -8.375 4.21875 -7.78125 C 3.914062 -7.195312 3.765625 -6.53125 3.765625 -5.78125 C 3.765625 -5.03125 3.914062 -4.363281 4.21875 -3.78125 C 4.53125 -3.195312 4.945312 -2.734375 5.46875 -2.390625 C 6 -2.054688 6.609375 -1.890625 7.296875 -1.890625 Z M 7.296875 -1.890625 "/></g></g></g><g fill="#ffffff" fill-opacity="1"><g transform="translate(259.097863, 579.108135)"><g><path d="M 3.015625 0 L 3.015625 -14.5 L 5.28125 -14.5 L 5.28125 0 Z M 0.609375 -9.34375 L 0.609375 -11.546875 L 7.96875 -11.546875 L 7.96875 -9.34375 Z M 0.609375 -9.34375 "/></g></g></g><g fill="#ffffff" fill-opacity="1"><g transform="translate(267.544358, 579.108135)"><g><path d="M 1.953125 0 L 1.953125 -11.546875 L 4.21875 -11.546875 L 4.21875 0 Z M 3.0625 -14.109375 C 2.570312 -14.109375 2.195312 -14.226562 1.9375 -14.46875 C 1.675781 -14.71875 1.546875 -15.070312 1.546875 -15.53125 C 1.546875 -15.957031 1.679688 -16.300781 1.953125 -16.5625 C 2.222656 -16.832031 2.59375 -16.96875 3.0625 -16.96875 C 3.539062 -16.96875 3.910156 -16.84375 4.171875 -16.59375 C 4.441406 -16.34375 4.578125 -15.988281 4.578125 -15.53125 C 4.578125 -15.101562 4.441406 -14.757812 4.171875 -14.5 C 3.898438 -14.238281 3.53125 -14.109375 3.0625 -14.109375 Z M 3.0625 -14.109375 "/></g></g></g><g fill="#ffffff" fill-opacity="1"><g transform="translate(273.659268, 579.108135)"><g><path d="M 1.546875 0 L 1.546875 -11.546875 L 3.828125 -11.546875 L 3.828125 -9.09375 L 3.40625 -8.828125 C 3.53125 -9.203125 3.71875 -9.566406 3.96875 -9.921875 C 4.226562 -10.273438 4.546875 -10.585938 4.921875 -10.859375 C 5.296875 -11.128906 5.695312 -11.34375 6.125 -11.5 C 6.5625 -11.664062 7.003906 -11.75 7.453125 -11.75 C 8.117188 -11.75 8.695312 -11.640625 9.1875 -11.421875 C 9.6875 -11.203125 10.097656 -10.867188 10.421875 -10.421875 C 10.742188 -9.984375 10.976562 -9.4375 11.125 -8.78125 L 10.78125 -8.859375 L 10.9375 -9.234375 C 11.09375 -9.578125 11.3125 -9.894531 11.59375 -10.1875 C 11.882812 -10.488281 12.210938 -10.757812 12.578125 -11 C 12.953125 -11.238281 13.34375 -11.421875 13.75 -11.546875 C 14.15625 -11.679688 14.554688 -11.75 14.953125 -11.75 C 15.828125 -11.75 16.546875 -11.570312 17.109375 -11.21875 C 17.671875 -10.863281 18.09375 -10.328125 18.375 -9.609375 C 18.664062 -8.890625 18.8125 -8 18.8125 -6.9375 L 18.8125 0 L 16.515625 0 L 16.515625 -6.796875 C 16.515625 -7.453125 16.429688 -7.988281 16.265625 -8.40625 C 16.097656 -8.832031 15.84375 -9.144531 15.5 -9.34375 C 15.164062 -9.550781 14.738281 -9.65625 14.21875 -9.65625 C 13.800781 -9.65625 13.410156 -9.582031 13.046875 -9.4375 C 12.691406 -9.300781 12.378906 -9.109375 12.109375 -8.859375 C 11.847656 -8.609375 11.644531 -8.316406 11.5 -7.984375 C 11.351562 -7.660156 11.28125 -7.300781 11.28125 -6.90625 L 11.28125 0 L 9 0 L 9 -6.84375 C 9 -7.445312 8.910156 -7.957031 8.734375 -8.375 C 8.554688 -8.789062 8.296875 -9.109375 7.953125 -9.328125 C 7.617188 -9.546875 7.210938 -9.65625 6.734375 -9.65625 C 6.316406 -9.65625 5.929688 -9.582031 5.578125 -9.4375 C 5.234375 -9.300781 4.925781 -9.113281 4.65625 -8.875 C 4.394531 -8.632812 4.191406 -8.347656 4.046875 -8.015625 C 3.898438 -7.691406 3.828125 -7.335938 3.828125 -6.953125 L 3.828125 0 Z M 1.546875 0 "/></g></g></g><g fill="#ffffff" fill-opacity="1"><g transform="translate(293.917655, 579.108135)"><g><path d="M 1.953125 0 L 1.953125 -11.546875 L 4.21875 -11.546875 L 4.21875 0 Z M 3.0625 -14.109375 C 2.570312 -14.109375 2.195312 -14.226562 1.9375 -14.46875 C 1.675781 -14.71875 1.546875 -15.070312 1.546875 -15.53125 C 1.546875 -15.957031 1.679688 -16.300781 1.953125 -16.5625 C 2.222656 -16.832031 2.59375 -16.96875 3.0625 -16.96875 C 3.539062 -16.96875 3.910156 -16.84375 4.171875 -16.59375 C 4.441406 -16.34375 4.578125 -15.988281 4.578125 -15.53125 C 4.578125 -15.101562 4.441406 -14.757812 4.171875 -14.5 C 3.898438 -14.238281 3.53125 -14.109375 3.0625 -14.109375 Z M 3.0625 -14.109375 "/></g></g></g><g fill="#ffffff" fill-opacity="1"><g transform="translate(300.032565, 579.108135)"><g><path d="M 1.09375 0 L 1.09375 -1.890625 L 7.0625 -9.859375 L 7.0625 -9.59375 L 1.09375 -9.59375 L 1.09375 -11.546875 L 9.53125 -11.546875 L 9.53125 -9.703125 L 3.65625 -1.84375 L 3.5625 -1.953125 L 9.65625 -1.953125 L 9.65625 0 Z M 1.09375 0 "/></g></g></g><g fill="#ffffff" fill-opacity="1"><g transform="translate(310.678671, 579.108135)"><g><path d="M 6.03125 0.21875 C 5.070312 0.21875 4.203125 -0.0390625 3.421875 -0.5625 C 2.640625 -1.09375 2.015625 -1.8125 1.546875 -2.71875 C 1.078125 -3.632812 0.84375 -4.664062 0.84375 -5.8125 C 0.84375 -6.96875 1.078125 -7.992188 1.546875 -8.890625 C 2.023438 -9.796875 2.671875 -10.503906 3.484375 -11.015625 C 4.296875 -11.535156 5.207031 -11.796875 6.21875 -11.796875 C 6.820312 -11.796875 7.375 -11.707031 7.875 -11.53125 C 8.375 -11.351562 8.8125 -11.101562 9.1875 -10.78125 C 9.5625 -10.46875 9.867188 -10.109375 10.109375 -9.703125 C 10.347656 -9.296875 10.5 -8.851562 10.5625 -8.375 L 10.046875 -8.5625 L 10.046875 -11.546875 L 12.34375 -11.546875 L 12.34375 0 L 10.046875 0 L 10.046875 -2.75 L 10.578125 -2.90625 C 10.492188 -2.507812 10.316406 -2.125 10.046875 -1.75 C 9.773438 -1.375 9.425781 -1.039062 9 -0.75 C 8.582031 -0.457031 8.117188 -0.222656 7.609375 -0.046875 C 7.109375 0.128906 6.582031 0.21875 6.03125 0.21875 Z M 6.625 -1.875 C 7.3125 -1.875 7.914062 -2.039062 8.4375 -2.375 C 8.96875 -2.707031 9.382812 -3.171875 9.6875 -3.765625 C 9.988281 -4.359375 10.140625 -5.039062 10.140625 -5.8125 C 10.140625 -6.5625 9.988281 -7.226562 9.6875 -7.8125 C 9.382812 -8.394531 8.96875 -8.851562 8.4375 -9.1875 C 7.914062 -9.53125 7.3125 -9.703125 6.625 -9.703125 C 5.945312 -9.703125 5.347656 -9.53125 4.828125 -9.1875 C 4.304688 -8.851562 3.894531 -8.394531 3.59375 -7.8125 C 3.289062 -7.226562 3.140625 -6.5625 3.140625 -5.8125 C 3.140625 -5.039062 3.289062 -4.359375 3.59375 -3.765625 C 3.894531 -3.171875 4.304688 -2.707031 4.828125 -2.375 C 5.347656 -2.039062 5.945312 -1.875 6.625 -1.875 Z M 6.625 -1.875 "/></g></g></g><g fill="#ffffff" fill-opacity="1"><g transform="translate(324.602193, 579.108135)"><g><path d="M 3.015625 0 L 3.015625 -14.5 L 5.28125 -14.5 L 5.28125 0 Z M 0.609375 -9.34375 L 0.609375 -11.546875 L 7.96875 -11.546875 L 7.96875 -9.34375 Z M 0.609375 -9.34375 "/></g></g></g><g fill="#ffffff" fill-opacity="1"><g transform="translate(333.048688, 579.108135)"><g><path d="M 1.953125 0 L 1.953125 -11.546875 L 4.21875 -11.546875 L 4.21875 0 Z M 3.0625 -14.109375 C 2.570312 -14.109375 2.195312 -14.226562 1.9375 -14.46875 C 1.675781 -14.71875 1.546875 -15.070312 1.546875 -15.53125 C 1.546875 -15.957031 1.679688 -16.300781 1.953125 -16.5625 C 2.222656 -16.832031 2.59375 -16.96875 3.0625 -16.96875 C 3.539062 -16.96875 3.910156 -16.84375 4.171875 -16.59375 C 4.441406 -16.34375 4.578125 -15.988281 4.578125 -15.53125 C 4.578125 -15.101562 4.441406 -14.757812 4.171875 -14.5 C 3.898438 -14.238281 3.53125 -14.109375 3.0625 -14.109375 Z M 3.0625 -14.109375 "/></g></g></g><g fill="#ffffff" fill-opacity="1"><g transform="translate(339.163598, 579.108135)"><g><path d="M 6.78125 0.21875 C 5.644531 0.21875 4.632812 -0.0390625 3.75 -0.5625 C 2.863281 -1.082031 2.160156 -1.789062 1.640625 -2.6875 C 1.128906 -3.59375 0.875 -4.625 0.875 -5.78125 C 0.875 -6.945312 1.128906 -7.976562 1.640625 -8.875 C 2.160156 -9.78125 2.863281 -10.492188 3.75 -11.015625 C 4.632812 -11.535156 5.644531 -11.796875 6.78125 -11.796875 C 7.894531 -11.796875 8.894531 -11.535156 9.78125 -11.015625 C 10.664062 -10.492188 11.363281 -9.78125 11.875 -8.875 C 12.394531 -7.976562 12.65625 -6.945312 12.65625 -5.78125 C 12.65625 -4.625 12.394531 -3.59375 11.875 -2.6875 C 11.363281 -1.789062 10.664062 -1.082031 9.78125 -0.5625 C 8.894531 -0.0390625 7.894531 0.21875 6.78125 0.21875 Z M 6.78125 -1.84375 C 7.46875 -1.84375 8.082031 -2.015625 8.625 -2.359375 C 9.164062 -2.703125 9.585938 -3.171875 9.890625 -3.765625 C 10.203125 -4.359375 10.351562 -5.03125 10.34375 -5.78125 C 10.351562 -6.550781 10.203125 -7.234375 9.890625 -7.828125 C 9.585938 -8.421875 9.164062 -8.882812 8.625 -9.21875 C 8.082031 -9.550781 7.46875 -9.71875 6.78125 -9.71875 C 6.082031 -9.71875 5.457031 -9.546875 4.90625 -9.203125 C 4.363281 -8.859375 3.9375 -8.390625 3.625 -7.796875 C 3.320312 -7.203125 3.175781 -6.53125 3.1875 -5.78125 C 3.175781 -5.03125 3.320312 -4.359375 3.625 -3.765625 C 3.9375 -3.171875 4.363281 -2.703125 4.90625 -2.359375 C 5.457031 -2.015625 6.082031 -1.84375 6.78125 -1.84375 Z M 6.78125 -1.84375 "/></g></g></g><g fill="#ffffff" fill-opacity="1"><g transform="translate(352.691189, 579.108135)"><g><path d="M 1.578125 0 L 1.578125 -11.546875 L 3.84375 -11.546875 L 3.84375 -9.171875 L 3.453125 -8.90625 C 3.597656 -9.425781 3.882812 -9.898438 4.3125 -10.328125 C 4.738281 -10.765625 5.242188 -11.117188 5.828125 -11.390625 C 6.410156 -11.660156 7.015625 -11.796875 7.640625 -11.796875 C 8.515625 -11.796875 9.242188 -11.625 9.828125 -11.28125 C 10.421875 -10.9375 10.863281 -10.410156 11.15625 -9.703125 C 11.445312 -8.992188 11.59375 -8.109375 11.59375 -7.046875 L 11.59375 0 L 9.328125 0 L 9.328125 -6.890625 C 9.328125 -7.546875 9.238281 -8.085938 9.0625 -8.515625 C 8.882812 -8.953125 8.613281 -9.269531 8.25 -9.46875 C 7.882812 -9.664062 7.429688 -9.75 6.890625 -9.71875 C 6.441406 -9.71875 6.035156 -9.648438 5.671875 -9.515625 C 5.304688 -9.378906 4.988281 -9.1875 4.71875 -8.9375 C 4.445312 -8.6875 4.234375 -8.394531 4.078125 -8.0625 C 3.921875 -7.726562 3.84375 -7.375 3.84375 -7 L 3.84375 0 L 2.734375 0 C 2.535156 0 2.34375 0 2.15625 0 C 1.96875 0 1.773438 0 1.578125 0 Z M 1.578125 0 "/></g></g></g><g clip-path="url(#31d1425a87)"><g clip-path="url(#b36c0e0c34)"><path fill="#084772" d="M 420.75 480.109375 L 604.832031 480.109375 L 604.832031 664.1875 L 420.75 664.1875 Z M 420.75 480.109375 " fill-opacity="1" fill-rule="nonzero"/></g></g><g fill="#ffffff" fill-opacity="1"><g transform="translate(476.449198, 548.358136)"><g><path d="M 2.15625 0 L 2.15625 -15.40625 L 8.421875 -15.40625 C 9.265625 -15.40625 10.023438 -15.191406 10.703125 -14.765625 C 11.378906 -14.347656 11.921875 -13.78125 12.328125 -13.0625 C 12.742188 -12.34375 12.953125 -11.546875 12.953125 -10.671875 C 12.953125 -9.785156 12.742188 -8.984375 12.328125 -8.265625 C 11.921875 -7.546875 11.378906 -6.96875 10.703125 -6.53125 C 10.023438 -6.101562 9.265625 -5.890625 8.421875 -5.890625 L 4.53125 -5.890625 L 4.53125 0 Z M 4.53125 -8.1875 L 8.375 -8.1875 C 8.769531 -8.1875 9.128906 -8.296875 9.453125 -8.515625 C 9.773438 -8.742188 10.035156 -9.046875 10.234375 -9.421875 C 10.429688 -9.796875 10.53125 -10.210938 10.53125 -10.671875 C 10.53125 -11.128906 10.429688 -11.539062 10.234375 -11.90625 C 10.035156 -12.269531 9.773438 -12.5625 9.453125 -12.78125 C 9.128906 -13 8.769531 -13.109375 8.375 -13.109375 L 4.53125 -13.109375 Z M 4.53125 -8.1875 "/></g></g></g><g fill="#ffffff" fill-opacity="1"><g transform="translate(490.394716, 548.358136)"><g><path d="M 6.96875 0.21875 C 5.78125 0.21875 4.726562 -0.03125 3.8125 -0.53125 C 2.894531 -1.039062 2.175781 -1.734375 1.65625 -2.609375 C 1.132812 -3.492188 0.875 -4.507812 0.875 -5.65625 C 0.875 -6.5625 1.019531 -7.390625 1.3125 -8.140625 C 1.613281 -8.890625 2.023438 -9.535156 2.546875 -10.078125 C 3.066406 -10.628906 3.6875 -11.054688 4.40625 -11.359375 C 5.132812 -11.660156 5.925781 -11.8125 6.78125 -11.8125 C 7.519531 -11.8125 8.210938 -11.664062 8.859375 -11.375 C 9.503906 -11.09375 10.066406 -10.703125 10.546875 -10.203125 C 11.023438 -9.703125 11.390625 -9.109375 11.640625 -8.421875 C 11.898438 -7.742188 12.023438 -7.003906 12.015625 -6.203125 L 11.984375 -5.234375 L 2.546875 -5.234375 L 2.046875 -7.046875 L 10.03125 -7.046875 L 9.703125 -6.671875 L 9.703125 -7.1875 C 9.660156 -7.675781 9.5 -8.109375 9.21875 -8.484375 C 8.9375 -8.867188 8.582031 -9.171875 8.15625 -9.390625 C 7.738281 -9.609375 7.28125 -9.71875 6.78125 -9.71875 C 5.988281 -9.71875 5.316406 -9.566406 4.765625 -9.265625 C 4.222656 -8.972656 3.8125 -8.535156 3.53125 -7.953125 C 3.257812 -7.367188 3.125 -6.65625 3.125 -5.8125 C 3.125 -5 3.289062 -4.296875 3.625 -3.703125 C 3.96875 -3.109375 4.445312 -2.648438 5.0625 -2.328125 C 5.675781 -2.003906 6.382812 -1.84375 7.1875 -1.84375 C 7.757812 -1.84375 8.289062 -1.9375 8.78125 -2.125 C 9.28125 -2.320312 9.816406 -2.671875 10.390625 -3.171875 L 11.53125 -1.5625 C 11.175781 -1.207031 10.742188 -0.894531 10.234375 -0.625 C 9.734375 -0.363281 9.195312 -0.15625 8.625 0 C 8.0625 0.144531 7.507812 0.21875 6.96875 0.21875 Z M 6.96875 0.21875 "/></g></g></g><g fill="#ffffff" fill-opacity="1"><g transform="translate(503.284414, 548.358136)"><g><path d="M 6.78125 0.21875 C 5.644531 0.21875 4.632812 -0.0390625 3.75 -0.5625 C 2.863281 -1.082031 2.160156 -1.789062 1.640625 -2.6875 C 1.128906 -3.59375 0.875 -4.625 0.875 -5.78125 C 0.875 -6.945312 1.128906 -7.976562 1.640625 -8.875 C 2.160156 -9.78125 2.863281 -10.492188 3.75 -11.015625 C 4.632812 -11.535156 5.644531 -11.796875 6.78125 -11.796875 C 7.894531 -11.796875 8.894531 -11.535156 9.78125 -11.015625 C 10.664062 -10.492188 11.363281 -9.78125 11.875 -8.875 C 12.394531 -7.976562 12.65625 -6.945312 12.65625 -5.78125 C 12.65625 -4.625 12.394531 -3.59375 11.875 -2.6875 C 11.363281 -1.789062 10.664062 -1.082031 9.78125 -0.5625 C 8.894531 -0.0390625 7.894531 0.21875 6.78125 0.21875 Z M 6.78125 -1.84375 C 7.46875 -1.84375 8.082031 -2.015625 8.625 -2.359375 C 9.164062 -2.703125 9.585938 -3.171875 9.890625 -3.765625 C 10.203125 -4.359375 10.351562 -5.03125 10.34375 -5.78125 C 10.351562 -6.550781 10.203125 -7.234375 9.890625 -7.828125 C 9.585938 -8.421875 9.164062 -8.882812 8.625 -9.21875 C 8.082031 -9.550781 7.46875 -9.71875 6.78125 -9.71875 C 6.082031 -9.71875 5.457031 -9.546875 4.90625 -9.203125 C 4.363281 -8.859375 3.9375 -8.390625 3.625 -7.796875 C 3.320312 -7.203125 3.175781 -6.53125 3.1875 -5.78125 C 3.175781 -5.03125 3.320312 -4.359375 3.625 -3.765625 C 3.9375 -3.171875 4.363281 -2.703125 4.90625 -2.359375 C 5.457031 -2.015625 6.082031 -1.84375 6.78125 -1.84375 Z M 6.78125 -1.84375 "/></g></g></g><g fill="#ffffff" fill-opacity="1"><g transform="translate(516.812005, 548.358136)"><g><path d="M 1.578125 4.84375 L 1.578125 -11.546875 L 3.875 -11.546875 L 3.875 -8.90625 L 3.515625 -9.109375 C 3.609375 -9.546875 3.859375 -9.96875 4.265625 -10.375 C 4.679688 -10.78125 5.1875 -11.109375 5.78125 -11.359375 C 6.375 -11.617188 6.984375 -11.75 7.609375 -11.75 C 8.648438 -11.75 9.570312 -11.488281 10.375 -10.96875 C 11.1875 -10.457031 11.828125 -9.753906 12.296875 -8.859375 C 12.765625 -7.972656 13 -6.945312 13 -5.78125 C 13 -4.632812 12.765625 -3.609375 12.296875 -2.703125 C 11.835938 -1.804688 11.207031 -1.097656 10.40625 -0.578125 C 9.601562 -0.0546875 8.691406 0.203125 7.671875 0.203125 C 7.003906 0.203125 6.351562 0.0664062 5.71875 -0.203125 C 5.09375 -0.472656 4.554688 -0.820312 4.109375 -1.25 C 3.671875 -1.675781 3.398438 -2.117188 3.296875 -2.578125 L 3.875 -2.875 L 3.875 4.84375 Z M 7.296875 -1.890625 C 7.972656 -1.890625 8.578125 -2.054688 9.109375 -2.390625 C 9.640625 -2.734375 10.054688 -3.195312 10.359375 -3.78125 C 10.671875 -4.363281 10.828125 -5.03125 10.828125 -5.78125 C 10.828125 -6.53125 10.675781 -7.191406 10.375 -7.765625 C 10.070312 -8.347656 9.65625 -8.804688 9.125 -9.140625 C 8.601562 -9.484375 7.992188 -9.65625 7.296875 -9.65625 C 6.609375 -9.65625 6 -9.488281 5.46875 -9.15625 C 4.945312 -8.832031 4.53125 -8.375 4.21875 -7.78125 C 3.914062 -7.195312 3.765625 -6.53125 3.765625 -5.78125 C 3.765625 -5.03125 3.914062 -4.363281 4.21875 -3.78125 C 4.53125 -3.195312 4.945312 -2.734375 5.46875 -2.390625 C 6 -2.054688 6.609375 -1.890625 7.296875 -1.890625 Z M 7.296875 -1.890625 "/></g></g></g><g fill="#ffffff" fill-opacity="1"><g transform="translate(530.691536, 548.358136)"><g><path d="M 1.625 0 L 1.625 -16.28125 L 3.890625 -16.28125 L 3.890625 0 Z M 1.625 0 "/></g></g></g><g fill="#ffffff" fill-opacity="1"><g transform="translate(536.212554, 548.358136)"><g><path d="M 6.96875 0.21875 C 5.78125 0.21875 4.726562 -0.03125 3.8125 -0.53125 C 2.894531 -1.039062 2.175781 -1.734375 1.65625 -2.609375 C 1.132812 -3.492188 0.875 -4.507812 0.875 -5.65625 C 0.875 -6.5625 1.019531 -7.390625 1.3125 -8.140625 C 1.613281 -8.890625 2.023438 -9.535156 2.546875 -10.078125 C 3.066406 -10.628906 3.6875 -11.054688 4.40625 -11.359375 C 5.132812 -11.660156 5.925781 -11.8125 6.78125 -11.8125 C 7.519531 -11.8125 8.210938 -11.664062 8.859375 -11.375 C 9.503906 -11.09375 10.066406 -10.703125 10.546875 -10.203125 C 11.023438 -9.703125 11.390625 -9.109375 11.640625 -8.421875 C 11.898438 -7.742188 12.023438 -7.003906 12.015625 -6.203125 L 11.984375 -5.234375 L 2.546875 -5.234375 L 2.046875 -7.046875 L 10.03125 -7.046875 L 9.703125 -6.671875 L 9.703125 -7.1875 C 9.660156 -7.675781 9.5 -8.109375 9.21875 -8.484375 C 8.9375 -8.867188 8.582031 -9.171875 8.15625 -9.390625 C 7.738281 -9.609375 7.28125 -9.71875 6.78125 -9.71875 C 5.988281 -9.71875 5.316406 -9.566406 4.765625 -9.265625 C 4.222656 -8.972656 3.8125 -8.535156 3.53125 -7.953125 C 3.257812 -7.367188 3.125 -6.65625 3.125 -5.8125 C 3.125 -5 3.289062 -4.296875 3.625 -3.703125 C 3.96875 -3.109375 4.445312 -2.648438 5.0625 -2.328125 C 5.675781 -2.003906 6.382812 -1.84375 7.1875 -1.84375 C 7.757812 -1.84375 8.289062 -1.9375 8.78125 -2.125 C 9.28125 -2.320312 9.816406 -2.671875 10.390625 -3.171875 L 11.53125 -1.5625 C 11.175781 -1.207031 10.742188 -0.894531 10.234375 -0.625 C 9.734375 -0.363281 9.195312 -0.15625 8.625 0 C 8.0625 0.144531 7.507812 0.21875 6.96875 0.21875 Z M 6.96875 0.21875 "/></g></g></g><g fill="#ffffff" fill-opacity="1"><g transform="translate(504.644509, 579.108135)"><g><path d="M 12.65625 0 L 10.640625 -2.140625 L 10.296875 -2.53125 L 6.484375 -6.78125 C 6.117188 -7.1875 5.765625 -7.601562 5.421875 -8.03125 C 5.085938 -8.46875 4.789062 -8.898438 4.53125 -9.328125 C 4.28125 -9.753906 4.078125 -10.164062 3.921875 -10.5625 C 3.773438 -10.96875 3.703125 -11.347656 3.703125 -11.703125 C 3.703125 -12.453125 3.894531 -13.125 4.28125 -13.71875 C 4.664062 -14.3125 5.195312 -14.773438 5.875 -15.109375 C 6.5625 -15.453125 7.351562 -15.625 8.25 -15.625 C 8.90625 -15.625 9.519531 -15.5 10.09375 -15.25 C 10.664062 -15.007812 11.160156 -14.671875 11.578125 -14.234375 C 11.992188 -13.804688 12.300781 -13.304688 12.5 -12.734375 L 10.78125 -11.640625 C 10.5 -12.316406 10.15625 -12.804688 9.75 -13.109375 C 9.351562 -13.421875 8.851562 -13.578125 8.25 -13.578125 C 7.789062 -13.578125 7.40625 -13.503906 7.09375 -13.359375 C 6.789062 -13.222656 6.554688 -13.019531 6.390625 -12.75 C 6.234375 -12.488281 6.15625 -12.160156 6.15625 -11.765625 C 6.15625 -11.441406 6.242188 -11.085938 6.421875 -10.703125 C 6.609375 -10.316406 6.84375 -9.925781 7.125 -9.53125 C 7.40625 -9.132812 7.691406 -8.765625 7.984375 -8.421875 C 8.273438 -8.085938 8.53125 -7.796875 8.75 -7.546875 L 11.8125 -4.140625 L 12.453125 -3.4375 L 15.59375 0 Z M 6.734375 0.21875 C 5.691406 0.21875 4.742188 -0.00390625 3.890625 -0.453125 C 3.046875 -0.898438 2.367188 -1.492188 1.859375 -2.234375 C 1.347656 -2.972656 1.09375 -3.78125 1.09375 -4.65625 C 1.09375 -5.820312 1.410156 -6.828125 2.046875 -7.671875 C 2.691406 -8.523438 3.628906 -9.179688 4.859375 -9.640625 L 6.265625 -7.9375 C 5.328125 -7.738281 4.628906 -7.398438 4.171875 -6.921875 C 3.722656 -6.441406 3.5 -5.800781 3.5 -5 C 3.5 -4.375 3.644531 -3.828125 3.9375 -3.359375 C 4.226562 -2.890625 4.648438 -2.523438 5.203125 -2.265625 C 5.753906 -2.003906 6.410156 -1.875 7.171875 -1.875 C 7.828125 -1.875 8.429688 -2 8.984375 -2.25 C 9.535156 -2.507812 10.03125 -2.875 10.46875 -3.34375 C 10.90625 -3.8125 11.265625 -4.375 11.546875 -5.03125 C 11.835938 -5.695312 12.050781 -6.429688 12.1875 -7.234375 L 14.21875 -7.234375 C 14.09375 -6.335938 13.878906 -5.507812 13.578125 -4.75 C 13.285156 -3.988281 12.914062 -3.300781 12.46875 -2.6875 C 12.019531 -2.070312 11.503906 -1.546875 10.921875 -1.109375 C 10.335938 -0.679688 9.691406 -0.351562 8.984375 -0.125 C 8.285156 0.101562 7.535156 0.21875 6.734375 0.21875 Z M 6.734375 0.21875 "/></g></g></g><g fill="#ffffff" fill-opacity="1"><g transform="translate(460.019512, 609.858133)"><g><path d="M 2.15625 0 L 2.15625 -15.40625 L 8.421875 -15.40625 C 9.265625 -15.40625 10.023438 -15.191406 10.703125 -14.765625 C 11.378906 -14.347656 11.921875 -13.78125 12.328125 -13.0625 C 12.742188 -12.34375 12.953125 -11.546875 12.953125 -10.671875 C 12.953125 -9.785156 12.742188 -8.984375 12.328125 -8.265625 C 11.921875 -7.546875 11.378906 -6.96875 10.703125 -6.53125 C 10.023438 -6.101562 9.265625 -5.890625 8.421875 -5.890625 L 4.53125 -5.890625 L 4.53125 0 Z M 4.53125 -8.1875 L 8.375 -8.1875 C 8.769531 -8.1875 9.128906 -8.296875 9.453125 -8.515625 C 9.773438 -8.742188 10.035156 -9.046875 10.234375 -9.421875 C 10.429688 -9.796875 10.53125 -10.210938 10.53125 -10.671875 C 10.53125 -11.128906 10.429688 -11.539062 10.234375 -11.90625 C 10.035156 -12.269531 9.773438 -12.5625 9.453125 -12.78125 C 9.128906 -13 8.769531 -13.109375 8.375 -13.109375 L 4.53125 -13.109375 Z M 4.53125 -8.1875 "/></g></g></g><g fill="#ffffff" fill-opacity="1"><g transform="translate(473.96503, 609.858133)"><g><path d="M 1.578125 0 L 1.578125 -11.546875 L 3.875 -11.546875 L 3.875 -7.921875 L 3.65625 -8.796875 C 3.8125 -9.359375 4.082031 -9.863281 4.46875 -10.3125 C 4.863281 -10.769531 5.3125 -11.128906 5.8125 -11.390625 C 6.320312 -11.660156 6.847656 -11.796875 7.390625 -11.796875 C 7.640625 -11.796875 7.878906 -11.769531 8.109375 -11.71875 C 8.335938 -11.675781 8.515625 -11.628906 8.640625 -11.578125 L 8.046875 -9.109375 C 7.867188 -9.179688 7.675781 -9.242188 7.46875 -9.296875 C 7.257812 -9.347656 7.050781 -9.375 6.84375 -9.375 C 6.445312 -9.375 6.066406 -9.296875 5.703125 -9.140625 C 5.347656 -8.984375 5.035156 -8.769531 4.765625 -8.5 C 4.492188 -8.226562 4.273438 -7.910156 4.109375 -7.546875 C 3.953125 -7.191406 3.875 -6.800781 3.875 -6.375 L 3.875 0 Z M 1.578125 0 "/></g></g></g><g fill="#ffffff" fill-opacity="1"><g transform="translate(482.829451, 609.858133)"><g><path d="M 6.78125 0.21875 C 5.644531 0.21875 4.632812 -0.0390625 3.75 -0.5625 C 2.863281 -1.082031 2.160156 -1.789062 1.640625 -2.6875 C 1.128906 -3.59375 0.875 -4.625 0.875 -5.78125 C 0.875 -6.945312 1.128906 -7.976562 1.640625 -8.875 C 2.160156 -9.78125 2.863281 -10.492188 3.75 -11.015625 C 4.632812 -11.535156 5.644531 -11.796875 6.78125 -11.796875 C 7.894531 -11.796875 8.894531 -11.535156 9.78125 -11.015625 C 10.664062 -10.492188 11.363281 -9.78125 11.875 -8.875 C 12.394531 -7.976562 12.65625 -6.945312 12.65625 -5.78125 C 12.65625 -4.625 12.394531 -3.59375 11.875 -2.6875 C 11.363281 -1.789062 10.664062 -1.082031 9.78125 -0.5625 C 8.894531 -0.0390625 7.894531 0.21875 6.78125 0.21875 Z M 6.78125 -1.84375 C 7.46875 -1.84375 8.082031 -2.015625 8.625 -2.359375 C 9.164062 -2.703125 9.585938 -3.171875 9.890625 -3.765625 C 10.203125 -4.359375 10.351562 -5.03125 10.34375 -5.78125 C 10.351562 -6.550781 10.203125 -7.234375 9.890625 -7.828125 C 9.585938 -8.421875 9.164062 -8.882812 8.625 -9.21875 C 8.082031 -9.550781 7.46875 -9.71875 6.78125 -9.71875 C 6.082031 -9.71875 5.457031 -9.546875 4.90625 -9.203125 C 4.363281 -8.859375 3.9375 -8.390625 3.625 -7.796875 C 3.320312 -7.203125 3.175781 -6.53125 3.1875 -5.78125 C 3.175781 -5.03125 3.320312 -4.359375 3.625 -3.765625 C 3.9375 -3.171875 4.363281 -2.703125 4.90625 -2.359375 C 5.457031 -2.015625 6.082031 -1.84375 6.78125 -1.84375 Z M 6.78125 -1.84375 "/></g></g></g><g fill="#ffffff" fill-opacity="1"><g transform="translate(496.357042, 609.858133)"><g><path d="M 6.484375 0.21875 C 5.421875 0.21875 4.46875 -0.0390625 3.625 -0.5625 C 2.78125 -1.09375 2.109375 -1.8125 1.609375 -2.71875 C 1.117188 -3.632812 0.875 -4.65625 0.875 -5.78125 C 0.875 -6.914062 1.117188 -7.9375 1.609375 -8.84375 C 2.109375 -9.75 2.78125 -10.46875 3.625 -11 C 4.46875 -11.53125 5.421875 -11.796875 6.484375 -11.796875 C 7.515625 -11.796875 8.453125 -11.582031 9.296875 -11.15625 C 10.140625 -10.738281 10.78125 -10.171875 11.21875 -9.453125 L 9.96875 -7.921875 C 9.726562 -8.253906 9.425781 -8.5625 9.0625 -8.84375 C 8.695312 -9.125 8.304688 -9.34375 7.890625 -9.5 C 7.484375 -9.664062 7.085938 -9.75 6.703125 -9.75 C 6.003906 -9.75 5.378906 -9.578125 4.828125 -9.234375 C 4.273438 -8.890625 3.835938 -8.414062 3.515625 -7.8125 C 3.191406 -7.207031 3.03125 -6.53125 3.03125 -5.78125 C 3.03125 -5.03125 3.195312 -4.359375 3.53125 -3.765625 C 3.875 -3.171875 4.320312 -2.695312 4.875 -2.34375 C 5.4375 -2 6.054688 -1.828125 6.734375 -1.828125 C 7.128906 -1.828125 7.515625 -1.890625 7.890625 -2.015625 C 8.265625 -2.148438 8.625 -2.347656 8.96875 -2.609375 C 9.320312 -2.878906 9.65625 -3.207031 9.96875 -3.59375 L 11.21875 -2.046875 C 10.75 -1.390625 10.078125 -0.847656 9.203125 -0.421875 C 8.328125 0.00390625 7.421875 0.21875 6.484375 0.21875 Z M 6.484375 0.21875 "/></g></g></g><g fill="#ffffff" fill-opacity="1"><g transform="translate(508.124944, 609.858133)"><g><path d="M 6.96875 0.21875 C 5.78125 0.21875 4.726562 -0.03125 3.8125 -0.53125 C 2.894531 -1.039062 2.175781 -1.734375 1.65625 -2.609375 C 1.132812 -3.492188 0.875 -4.507812 0.875 -5.65625 C 0.875 -6.5625 1.019531 -7.390625 1.3125 -8.140625 C 1.613281 -8.890625 2.023438 -9.535156 2.546875 -10.078125 C 3.066406 -10.628906 3.6875 -11.054688 4.40625 -11.359375 C 5.132812 -11.660156 5.925781 -11.8125 6.78125 -11.8125 C 7.519531 -11.8125 8.210938 -11.664062 8.859375 -11.375 C 9.503906 -11.09375 10.066406 -10.703125 10.546875 -10.203125 C 11.023438 -9.703125 11.390625 -9.109375 11.640625 -8.421875 C 11.898438 -7.742188 12.023438 -7.003906 12.015625 -6.203125 L 11.984375 -5.234375 L 2.546875 -5.234375 L 2.046875 -7.046875 L 10.03125 -7.046875 L 9.703125 -6.671875 L 9.703125 -7.1875 C 9.660156 -7.675781 9.5 -8.109375 9.21875 -8.484375 C 8.9375 -8.867188 8.582031 -9.171875 8.15625 -9.390625 C 7.738281 -9.609375 7.28125 -9.71875 6.78125 -9.71875 C 5.988281 -9.71875 5.316406 -9.566406 4.765625 -9.265625 C 4.222656 -8.972656 3.8125 -8.535156 3.53125 -7.953125 C 3.257812 -7.367188 3.125 -6.65625 3.125 -5.8125 C 3.125 -5 3.289062 -4.296875 3.625 -3.703125 C 3.96875 -3.109375 4.445312 -2.648438 5.0625 -2.328125 C 5.675781 -2.003906 6.382812 -1.84375 7.1875 -1.84375 C 7.757812 -1.84375 8.289062 -1.9375 8.78125 -2.125 C 9.28125 -2.320312 9.816406 -2.671875 10.390625 -3.171875 L 11.53125 -1.5625 C 11.175781 -1.207031 10.742188 -0.894531 10.234375 -0.625 C 9.734375 -0.363281 9.195312 -0.15625 8.625 0 C 8.0625 0.144531 7.507812 0.21875 6.96875 0.21875 Z M 6.96875 0.21875 "/></g></g></g><g fill="#ffffff" fill-opacity="1"><g transform="translate(521.014641, 609.858133)"><g><path d="M 5.4375 0.21875 C 4.46875 0.21875 3.59375 0.0507812 2.8125 -0.28125 C 2.039062 -0.625 1.394531 -1.125 0.875 -1.78125 L 2.421875 -3.109375 C 2.859375 -2.585938 3.335938 -2.210938 3.859375 -1.984375 C 4.378906 -1.765625 4.96875 -1.65625 5.625 -1.65625 C 5.894531 -1.65625 6.140625 -1.6875 6.359375 -1.75 C 6.585938 -1.8125 6.785156 -1.910156 6.953125 -2.046875 C 7.128906 -2.179688 7.257812 -2.335938 7.34375 -2.515625 C 7.4375 -2.703125 7.484375 -2.90625 7.484375 -3.125 C 7.484375 -3.507812 7.34375 -3.816406 7.0625 -4.046875 C 6.914062 -4.148438 6.679688 -4.265625 6.359375 -4.390625 C 6.046875 -4.515625 5.640625 -4.644531 5.140625 -4.78125 C 4.296875 -5 3.601562 -5.242188 3.0625 -5.515625 C 2.519531 -5.796875 2.097656 -6.113281 1.796875 -6.46875 C 1.578125 -6.75 1.414062 -7.050781 1.3125 -7.375 C 1.21875 -7.707031 1.171875 -8.070312 1.171875 -8.46875 C 1.171875 -8.957031 1.273438 -9.398438 1.484375 -9.796875 C 1.691406 -10.203125 1.984375 -10.554688 2.359375 -10.859375 C 2.734375 -11.160156 3.171875 -11.390625 3.671875 -11.546875 C 4.179688 -11.710938 4.722656 -11.796875 5.296875 -11.796875 C 5.835938 -11.796875 6.375 -11.722656 6.90625 -11.578125 C 7.445312 -11.429688 7.945312 -11.21875 8.40625 -10.9375 C 8.863281 -10.65625 9.242188 -10.320312 9.546875 -9.9375 L 8.25 -8.515625 C 7.96875 -8.796875 7.660156 -9.039062 7.328125 -9.25 C 7.003906 -9.457031 6.671875 -9.617188 6.328125 -9.734375 C 5.992188 -9.859375 5.6875 -9.921875 5.40625 -9.921875 C 5.101562 -9.921875 4.828125 -9.890625 4.578125 -9.828125 C 4.328125 -9.773438 4.117188 -9.6875 3.953125 -9.5625 C 3.785156 -9.445312 3.65625 -9.300781 3.5625 -9.125 C 3.476562 -8.945312 3.4375 -8.75 3.4375 -8.53125 C 3.445312 -8.34375 3.492188 -8.164062 3.578125 -8 C 3.660156 -7.832031 3.773438 -7.6875 3.921875 -7.5625 C 4.078125 -7.445312 4.316406 -7.320312 4.640625 -7.1875 C 4.960938 -7.0625 5.375 -6.9375 5.875 -6.8125 C 6.601562 -6.625 7.207031 -6.414062 7.6875 -6.1875 C 8.164062 -5.96875 8.546875 -5.707031 8.828125 -5.40625 C 9.117188 -5.132812 9.320312 -4.8125 9.4375 -4.4375 C 9.550781 -4.070312 9.609375 -3.664062 9.609375 -3.21875 C 9.609375 -2.550781 9.421875 -1.957031 9.046875 -1.4375 C 8.671875 -0.914062 8.164062 -0.507812 7.53125 -0.21875 C 6.90625 0.0703125 6.207031 0.21875 5.4375 0.21875 Z M 5.4375 0.21875 "/></g></g></g><g fill="#ffffff" fill-opacity="1"><g transform="translate(531.550758, 609.858133)"><g><path d="M 5.4375 0.21875 C 4.46875 0.21875 3.59375 0.0507812 2.8125 -0.28125 C 2.039062 -0.625 1.394531 -1.125 0.875 -1.78125 L 2.421875 -3.109375 C 2.859375 -2.585938 3.335938 -2.210938 3.859375 -1.984375 C 4.378906 -1.765625 4.96875 -1.65625 5.625 -1.65625 C 5.894531 -1.65625 6.140625 -1.6875 6.359375 -1.75 C 6.585938 -1.8125 6.785156 -1.910156 6.953125 -2.046875 C 7.128906 -2.179688 7.257812 -2.335938 7.34375 -2.515625 C 7.4375 -2.703125 7.484375 -2.90625 7.484375 -3.125 C 7.484375 -3.507812 7.34375 -3.816406 7.0625 -4.046875 C 6.914062 -4.148438 6.679688 -4.265625 6.359375 -4.390625 C 6.046875 -4.515625 5.640625 -4.644531 5.140625 -4.78125 C 4.296875 -5 3.601562 -5.242188 3.0625 -5.515625 C 2.519531 -5.796875 2.097656 -6.113281 1.796875 -6.46875 C 1.578125 -6.75 1.414062 -7.050781 1.3125 -7.375 C 1.21875 -7.707031 1.171875 -8.070312 1.171875 -8.46875 C 1.171875 -8.957031 1.273438 -9.398438 1.484375 -9.796875 C 1.691406 -10.203125 1.984375 -10.554688 2.359375 -10.859375 C 2.734375 -11.160156 3.171875 -11.390625 3.671875 -11.546875 C 4.179688 -11.710938 4.722656 -11.796875 5.296875 -11.796875 C 5.835938 -11.796875 6.375 -11.722656 6.90625 -11.578125 C 7.445312 -11.429688 7.945312 -11.21875 8.40625 -10.9375 C 8.863281 -10.65625 9.242188 -10.320312 9.546875 -9.9375 L 8.25 -8.515625 C 7.96875 -8.796875 7.660156 -9.039062 7.328125 -9.25 C 7.003906 -9.457031 6.671875 -9.617188 6.328125 -9.734375 C 5.992188 -9.859375 5.6875 -9.921875 5.40625 -9.921875 C 5.101562 -9.921875 4.828125 -9.890625 4.578125 -9.828125 C 4.328125 -9.773438 4.117188 -9.6875 3.953125 -9.5625 C 3.785156 -9.445312 3.65625 -9.300781 3.5625 -9.125 C 3.476562 -8.945312 3.4375 -8.75 3.4375 -8.53125 C 3.445312 -8.34375 3.492188 -8.164062 3.578125 -8 C 3.660156 -7.832031 3.773438 -7.6875 3.921875 -7.5625 C 4.078125 -7.445312 4.316406 -7.320312 4.640625 -7.1875 C 4.960938 -7.0625 5.375 -6.9375 5.875 -6.8125 C 6.601562 -6.625 7.207031 -6.414062 7.6875 -6.1875 C 8.164062 -5.96875 8.546875 -5.707031 8.828125 -5.40625 C 9.117188 -5.132812 9.320312 -4.8125 9.4375 -4.4375 C 9.550781 -4.070312 9.609375 -3.664062 9.609375 -3.21875 C 9.609375 -2.550781 9.421875 -1.957031 9.046875 -1.4375 C 8.671875 -0.914062 8.164062 -0.507812 7.53125 -0.21875 C 6.90625 0.0703125 6.207031 0.21875 5.4375 0.21875 Z M 5.4375 0.21875 "/></g></g></g><g fill="#ffffff" fill-opacity="1"><g transform="translate(542.086875, 609.858133)"><g><path d="M 6.96875 0.21875 C 5.78125 0.21875 4.726562 -0.03125 3.8125 -0.53125 C 2.894531 -1.039062 2.175781 -1.734375 1.65625 -2.609375 C 1.132812 -3.492188 0.875 -4.507812 0.875 -5.65625 C 0.875 -6.5625 1.019531 -7.390625 1.3125 -8.140625 C 1.613281 -8.890625 2.023438 -9.535156 2.546875 -10.078125 C 3.066406 -10.628906 3.6875 -11.054688 4.40625 -11.359375 C 5.132812 -11.660156 5.925781 -11.8125 6.78125 -11.8125 C 7.519531 -11.8125 8.210938 -11.664062 8.859375 -11.375 C 9.503906 -11.09375 10.066406 -10.703125 10.546875 -10.203125 C 11.023438 -9.703125 11.390625 -9.109375 11.640625 -8.421875 C 11.898438 -7.742188 12.023438 -7.003906 12.015625 -6.203125 L 11.984375 -5.234375 L 2.546875 -5.234375 L 2.046875 -7.046875 L 10.03125 -7.046875 L 9.703125 -6.671875 L 9.703125 -7.1875 C 9.660156 -7.675781 9.5 -8.109375 9.21875 -8.484375 C 8.9375 -8.867188 8.582031 -9.171875 8.15625 -9.390625 C 7.738281 -9.609375 7.28125 -9.71875 6.78125 -9.71875 C 5.988281 -9.71875 5.316406 -9.566406 4.765625 -9.265625 C 4.222656 -8.972656 3.8125 -8.535156 3.53125 -7.953125 C 3.257812 -7.367188 3.125 -6.65625 3.125 -5.8125 C 3.125 -5 3.289062 -4.296875 3.625 -3.703125 C 3.96875 -3.109375 4.445312 -2.648438 5.0625 -2.328125 C 5.675781 -2.003906 6.382812 -1.84375 7.1875 -1.84375 C 7.757812 -1.84375 8.289062 -1.9375 8.78125 -2.125 C 9.28125 -2.320312 9.816406 -2.671875 10.390625 -3.171875 L 11.53125 -1.5625 C 11.175781 -1.207031 10.742188 -0.894531 10.234375 -0.625 C 9.734375 -0.363281 9.195312 -0.15625 8.625 0 C 8.0625 0.144531 7.507812 0.21875 6.96875 0.21875 Z M 6.96875 0.21875 "/></g></g></g><g fill="#ffffff" fill-opacity="1"><g transform="translate(554.976573, 609.858133)"><g><path d="M 5.4375 0.21875 C 4.46875 0.21875 3.59375 0.0507812 2.8125 -0.28125 C 2.039062 -0.625 1.394531 -1.125 0.875 -1.78125 L 2.421875 -3.109375 C 2.859375 -2.585938 3.335938 -2.210938 3.859375 -1.984375 C 4.378906 -1.765625 4.96875 -1.65625 5.625 -1.65625 C 5.894531 -1.65625 6.140625 -1.6875 6.359375 -1.75 C 6.585938 -1.8125 6.785156 -1.910156 6.953125 -2.046875 C 7.128906 -2.179688 7.257812 -2.335938 7.34375 -2.515625 C 7.4375 -2.703125 7.484375 -2.90625 7.484375 -3.125 C 7.484375 -3.507812 7.34375 -3.816406 7.0625 -4.046875 C 6.914062 -4.148438 6.679688 -4.265625 6.359375 -4.390625 C 6.046875 -4.515625 5.640625 -4.644531 5.140625 -4.78125 C 4.296875 -5 3.601562 -5.242188 3.0625 -5.515625 C 2.519531 -5.796875 2.097656 -6.113281 1.796875 -6.46875 C 1.578125 -6.75 1.414062 -7.050781 1.3125 -7.375 C 1.21875 -7.707031 1.171875 -8.070312 1.171875 -8.46875 C 1.171875 -8.957031 1.273438 -9.398438 1.484375 -9.796875 C 1.691406 -10.203125 1.984375 -10.554688 2.359375 -10.859375 C 2.734375 -11.160156 3.171875 -11.390625 3.671875 -11.546875 C 4.179688 -11.710938 4.722656 -11.796875 5.296875 -11.796875 C 5.835938 -11.796875 6.375 -11.722656 6.90625 -11.578125 C 7.445312 -11.429688 7.945312 -11.21875 8.40625 -10.9375 C 8.863281 -10.65625 9.242188 -10.320312 9.546875 -9.9375 L 8.25 -8.515625 C 7.96875 -8.796875 7.660156 -9.039062 7.328125 -9.25 C 7.003906 -9.457031 6.671875 -9.617188 6.328125 -9.734375 C 5.992188 -9.859375 5.6875 -9.921875 5.40625 -9.921875 C 5.101562 -9.921875 4.828125 -9.890625 4.578125 -9.828125 C 4.328125 -9.773438 4.117188 -9.6875 3.953125 -9.5625 C 3.785156 -9.445312 3.65625 -9.300781 3.5625 -9.125 C 3.476562 -8.945312 3.4375 -8.75 3.4375 -8.53125 C 3.445312 -8.34375 3.492188 -8.164062 3.578125 -8 C 3.660156 -7.832031 3.773438 -7.6875 3.921875 -7.5625 C 4.078125 -7.445312 4.316406 -7.320312 4.640625 -7.1875 C 4.960938 -7.0625 5.375 -6.9375 5.875 -6.8125 C 6.601562 -6.625 7.207031 -6.414062 7.6875 -6.1875 C 8.164062 -5.96875 8.546875 -5.707031 8.828125 -5.40625 C 9.117188 -5.132812 9.320312 -4.8125 9.4375 -4.4375 C 9.550781 -4.070312 9.609375 -3.664062 9.609375 -3.21875 C 9.609375 -2.550781 9.421875 -1.957031 9.046875 -1.4375 C 8.671875 -0.914062 8.164062 -0.507812 7.53125 -0.21875 C 6.90625 0.0703125 6.207031 0.21875 5.4375 0.21875 Z M 5.4375 0.21875 "/></g></g></g><g clip-path="url(#ff65985ff8)"><path fill="#004a72" d="M 338.890625 404.316406 C 338.890625 367.535156 368.59375 337.714844 405.226562 337.714844 C 441.863281 337.714844 471.566406 367.535156 471.566406 404.316406 C 471.566406 441.097656 441.863281 470.921875 405.226562 470.921875 C 368.589844 470.921875 338.890625 441.097656 338.890625 404.316406 Z M 346.261719 404.316406 C 346.261719 371.621094 372.65625 345.117188 405.226562 345.117188 C 437.800781 345.117188 464.199219 371.613281 464.199219 404.316406 C 464.199219 437.019531 437.804688 463.519531 405.226562 463.519531 C 372.652344 463.519531 346.261719 437.019531 346.261719 404.316406 Z M 346.261719 404.316406 " fill-opacity="1" fill-rule="evenodd"/></g><path fill="#07496b" d="M 444.273438 436.105469 L 396.484375 380.085938 C 396.484375 380.085938 392.78125 375.058594 387.292969 374.800781 L 369.214844 374.800781 L 417.003906 430.820312 C 417.003906 430.820312 420.707031 435.847656 426.195312 436.105469 Z M 444.273438 436.105469 " fill-opacity="1" fill-rule="nonzero"/><path fill="#eb6e26" d="M 444.15625 374.71875 L 396.492188 430.839844 C 396.492188 430.839844 392.796875 435.878906 387.308594 436.148438 L 369.230469 436.183594 L 416.898438 380.066406 C 416.898438 380.066406 420.59375 375.027344 426.082031 374.757812 Z M 444.15625 374.71875 " fill-opacity="1" fill-rule="nonzero"/></svg>