<svg width="81" height="80" viewBox="0 0 81 80" fill="none" xmlns="http://www.w3.org/2000/svg">
<path d="M13.8809 71.0784C12.9709 71.0784 12.2155 70.778 11.6147 70.1773C11.014 69.5765 10.7136 68.8211 10.7136 67.9111V63.9065C10.7136 63.0618 10.8845 62.2411 11.2264 61.4442C11.5682 60.6473 12.0232 59.9648 12.5914 59.3967L62.531 9.47961C62.9634 9.04726 63.4184 8.74811 63.896 8.58216C64.3737 8.41628 64.8513 8.33333 65.329 8.33333C65.8216 8.33333 66.3156 8.41628 66.8108 8.58216C67.3061 8.74811 67.7372 9.04726 68.1043 9.47961L72.3124 13.6877C72.7447 14.0548 73.0439 14.4859 73.2098 14.9812C73.3757 15.4764 73.4587 15.9704 73.4587 16.463C73.4587 16.9407 73.3757 17.4183 73.2098 17.896C73.0439 18.3736 72.7447 18.8286 72.3124 19.261L22.3953 69.2006C21.8272 69.7688 21.1447 70.2238 20.3478 70.5656C19.5509 70.9075 18.7302 71.0784 17.8855 71.0784H13.8809ZM14.6351 67.1569H18.8433L60.2385 25.7843L58.1721 23.6199L56.0077 21.5535L14.6351 62.9487V67.1569ZM58.1721 23.6199L56.0077 21.5535L60.2385 25.7843L58.1721 23.6199ZM47.0635 71.0784C51.3973 71.0784 55.422 70.0453 59.1374 67.9789C62.8528 65.9125 64.7105 63.0241 64.7105 59.3137C64.7105 57.3228 64.0871 55.5091 62.8402 53.8725C61.5934 52.2361 59.7935 50.8396 57.4406 49.6832C56.9781 49.4319 56.4878 49.3816 55.9699 49.5324C55.4521 49.6833 55.0599 49.9749 54.7935 50.4073C54.527 50.8396 54.4692 51.326 54.62 51.8666C54.7709 52.407 55.0776 52.8029 55.5401 53.0543C57.2093 53.8739 58.5014 54.8165 59.4164 55.8824C60.3314 56.9482 60.789 58.092 60.789 59.3137C60.789 61.5208 59.4327 63.3798 56.7203 64.8907C54.0079 66.4015 50.789 67.1569 47.0635 67.1569C46.5054 67.1569 46.0391 67.3442 45.6645 67.7187C45.29 68.0933 45.1027 68.5596 45.1027 69.1176C45.1027 69.6758 45.29 70.1421 45.6645 70.5166C46.0391 70.8911 46.5054 71.0784 47.0635 71.0784ZM30.3214 18.1373C30.3214 19.5048 29.5987 20.7403 28.1532 21.8438C26.7077 22.9474 23.8508 24.4469 19.5823 26.3424C14.7055 28.4791 11.3546 30.3657 9.52954 32.0023C7.70451 33.6387 6.79199 35.553 6.79199 37.7451C6.79199 39.2936 7.23441 40.6335 8.11925 41.7647C9.00415 42.896 10.0675 43.8512 11.3093 44.6305C11.7568 44.9472 12.2269 45.044 12.7195 44.9208C13.2123 44.7976 13.617 44.5123 13.9338 44.0648C14.2505 43.6174 14.351 43.1347 14.2354 42.6169C14.1198 42.099 13.8383 41.6817 13.3908 41.365C12.4808 40.7868 11.8071 40.1961 11.3696 39.5927C10.9323 38.9894 10.7136 38.3735 10.7136 37.7451C10.7136 36.5586 11.4401 35.3972 12.8931 34.2609C14.346 33.1247 17.0936 31.6893 21.1359 29.9547C26.2842 27.7727 29.7558 25.807 31.5506 24.0574C33.3455 22.3077 34.243 20.3343 34.243 18.1373C34.243 15.2966 32.9685 12.9524 30.4194 11.1048C27.8704 9.25715 24.5698 8.33333 20.5175 8.33333C18.0791 8.33333 15.7625 8.78079 13.568 9.67569C11.3734 10.5706 9.78088 11.6691 8.79042 12.9713C8.42343 13.4188 8.26758 13.9015 8.32288 14.4193C8.37817 14.9372 8.62954 15.3721 9.07699 15.724C9.52451 16.0408 9.99461 16.1715 10.4873 16.1162C10.98 16.0608 11.4099 15.8496 11.7769 15.4826C12.8428 14.4168 14.1072 13.6124 15.5702 13.0694C17.0333 12.5264 18.6824 12.2549 20.5175 12.2549C23.5994 12.2549 26.0039 12.8356 27.7309 13.997C29.4579 15.1583 30.3214 16.5384 30.3214 18.1373Z" fill="#0B1215"/>
</svg>
