<svg width="24" height="24" viewBox="0 0 24 24" fill="none" xmlns="http://www.w3.org/2000/svg">
<path d="M23.988 12.066C23.988 5.3973 18.6147 0 11.994 0C5.37331 0 0 5.3973 0 12.066C0 18.087 4.3898 23.0765 10.1229 23.988V15.5562H7.07646V12.066H10.1229V9.4033C10.1229 6.38081 11.91 4.71364 14.6567 4.71364C15.964 4.71364 17.3433 4.95352 17.3433 4.95352V7.92804H15.8321C14.3448 7.92804 13.8771 8.86357 13.8771 9.8111V12.078H17.1994L16.6717 15.5682H13.8771V24C19.6102 23.1005 24 18.0989 24 12.078L23.988 12.066Z" fill="#FBFDFE"/>
</svg>
