<svg width="67" height="68" viewBox="0 0 67 68" fill="none" xmlns="http://www.w3.org/2000/svg">
<path d="M33.4998 50.0777C34.1282 50.0777 34.6549 49.8652 35.0799 49.4401C35.5049 49.0151 35.7174 48.4884 35.7174 47.86C35.7174 47.2317 35.5049 46.7051 35.0799 46.28C34.6549 45.855 34.1282 45.6425 33.4998 45.6425C32.8715 45.6425 32.3448 45.855 31.9197 46.28C31.4948 46.7051 31.2823 47.2317 31.2823 47.86C31.2823 48.4884 31.4948 49.0151 31.9197 49.4401C32.3448 49.8652 32.8715 50.0777 33.4998 50.0777ZM33.5023 38.158C34.0135 38.158 34.4412 37.9854 34.7853 37.64C35.1295 37.2947 35.3016 36.8668 35.3016 36.3562V18.3382C35.3016 17.8277 35.1287 17.3998 34.7829 17.0544C34.4371 16.7091 34.0086 16.5364 33.4974 16.5364C32.9862 16.5364 32.5585 16.7091 32.2143 17.0544C31.8701 17.3998 31.698 17.8277 31.698 18.3382V36.3562C31.698 36.8668 31.8709 37.2947 32.2168 37.64C32.5625 37.9854 32.991 38.158 33.5023 38.158ZM22.9268 59.2252H14.0958C12.4949 59.2252 11.1246 58.6552 9.98461 57.5152C8.84461 56.3753 8.27461 55.0049 8.27461 53.4041V44.5731L1.82272 38.0749C1.25449 37.4928 0.836384 36.8514 0.568396 36.1508C0.300468 35.4503 0.166504 34.7377 0.166504 34.0129C0.166504 33.2882 0.300468 32.5713 0.568396 31.8621C0.836384 31.1529 1.25449 30.5073 1.82272 29.9252L8.27461 23.427V14.596C8.27461 12.9951 8.84461 11.6247 9.98461 10.4848C11.1246 9.3448 12.4949 8.7748 14.0958 8.7748H22.9268L29.425 2.3229C30.0071 1.75467 30.6484 1.33657 31.349 1.06858C32.0496 0.800651 32.7622 0.666687 33.487 0.666687C34.2116 0.666687 34.9286 0.800651 35.6378 1.06858C36.347 1.33657 36.9926 1.75467 37.5747 2.3229L44.0729 8.7748H52.9039C54.5047 8.7748 55.8751 9.3448 57.0151 10.4848C58.1551 11.6247 58.7251 12.9951 58.7251 14.596V23.427L65.177 29.9252C65.7452 30.5073 66.1633 31.1486 66.4313 31.8492C66.6992 32.5498 66.8332 33.2624 66.8332 33.9871C66.8332 34.7118 66.6992 35.4288 66.4313 36.138C66.1633 36.8471 65.7452 37.4928 65.177 38.0749L58.7251 44.5731V53.4041C58.7251 55.0049 58.1551 56.3753 57.0151 57.5152C55.8751 58.6552 54.5047 59.2252 52.9039 59.2252H44.0729L37.5747 65.6771C36.9926 66.2454 36.3513 66.6635 35.6507 66.9315C34.9501 67.1994 34.2375 67.3334 33.5127 67.3334C32.788 67.3334 32.0711 67.1994 31.3619 66.9315C30.6527 66.6635 30.0071 66.2454 29.425 65.6771L22.9268 59.2252ZM24.4851 55.6216L31.906 63.0368C32.3218 63.4526 32.8531 63.6605 33.4998 63.6605C34.1466 63.6605 34.6779 63.4526 35.0937 63.0368L42.5146 55.6216H52.9039C53.5507 55.6216 54.082 55.4137 54.4978 54.998C54.9136 54.5822 55.1215 54.0509 55.1215 53.4041V43.0148L62.5366 35.5939C62.9524 35.1781 63.1603 34.6468 63.1603 34C63.1603 33.3532 62.9524 32.8219 62.5366 32.4061L55.1215 24.9852V14.596C55.1215 13.9492 54.9136 13.4179 54.4978 13.0021C54.082 12.5863 53.5507 12.3784 52.9039 12.3784H42.5146L35.0937 4.96327C34.6779 4.54747 34.1466 4.33957 33.4998 4.33957C32.8531 4.33957 32.3218 4.54747 31.906 4.96327L24.4851 12.3784H14.0958C13.449 12.3784 12.9177 12.5863 12.5019 13.0021C12.0861 13.4179 11.8782 13.9492 11.8782 14.596V24.9852L4.46308 32.4061C4.04729 32.8219 3.83939 33.3532 3.83939 34C3.83939 34.6468 4.04729 35.1781 4.46308 35.5939L11.8782 43.0148V53.4041C11.8782 54.0509 12.0861 54.5822 12.5019 54.998C12.9177 55.4137 13.449 55.6216 14.0958 55.6216H24.4851Z" fill="#FBFDFE"/>
</svg>
