<svg width="81" height="80" viewBox="0 0 81 80" fill="none" xmlns="http://www.w3.org/2000/svg">
<path d="M10.3168 65.1299C9.54602 65.1299 8.89086 64.8589 8.35131 64.3169C7.81177 63.7749 7.54199 63.1168 7.54199 62.3425C7.54199 61.5682 7.81177 60.9143 8.35131 60.3807C8.89086 59.8471 9.54602 59.5802 10.3168 59.5802H14.9415V19.3098C14.9415 17.6663 15.5267 16.2593 16.6971 15.089C17.8675 13.9185 19.2744 13.3333 20.918 13.3333H68.5879C69.112 13.3333 69.5514 13.5109 69.9059 13.8659C70.2605 14.2209 70.4378 14.6608 70.4378 15.1857C70.4378 15.7105 70.2605 16.1496 69.9059 16.503C69.5514 16.8564 69.112 17.0331 68.5879 17.0331H20.918C20.2539 17.0331 19.7085 17.2465 19.2816 17.6734C18.8547 18.1003 18.6412 18.6458 18.6412 19.3098V59.5802H36.1439C36.9147 59.5802 37.5699 59.8512 38.1094 60.3933C38.649 60.9352 38.9188 61.5933 38.9188 62.3676C38.9188 63.1419 38.649 63.7958 38.1094 64.3294C37.5699 64.8631 36.9147 65.1299 36.1439 65.1299H10.3168ZM52.1525 65.1299C51.3058 65.1299 50.5961 64.8435 50.0233 64.2708C49.4506 63.698 49.1642 62.9883 49.1642 62.1417V28.8438C49.1642 27.9971 49.4506 27.2874 50.0233 26.7147C50.5961 26.142 51.3058 25.8556 52.1525 25.8556H71.2205C72.0672 25.8556 72.7769 26.142 73.3496 26.7147C73.9223 27.2874 74.2087 27.9971 74.2087 28.8438V62.1417C74.2087 62.9883 73.9223 63.698 73.3496 64.2708C72.7769 64.8435 72.0672 65.1299 71.2205 65.1299H52.1525ZM52.864 59.5802H70.5089V29.5554H52.864V59.5802Z" fill="#0B1215"/>
</svg>
