<?xml version="1.0" encoding="UTF-8"?>
<svg id="Layer_1" data-name="Layer 1" xmlns="http://www.w3.org/2000/svg" version="1.1" viewBox="0 0 81 80">
  <defs>
    <style>
      .cls-1 {
        fill: none;
      }

      .cls-1, .cls-2, .cls-3 {
        stroke-width: 0px;
      }

      .cls-2 {
        fill: #0b1215;
      }

      .cls-3 {
        fill: #ed6c25;
      }
    </style>
  </defs>
  <rect class="cls-1" x="52.9" y="29.6" width="17.6" height="30"/>
  <path class="cls-3" d="M73.3,26.7c-.6-.6-1.3-.9-2.1-.9h-19.1c-.8,0-1.6.3-2.1.9-.6.6-.9,1.3-.9,2.1v33.3c0,.8.3,1.6.9,2.1.6.6,1.3.9,2.1.9h19.1c.8,0,1.6-.3,2.1-.9.6-.6.9-1.3.9-2.1V28.8c0-.8-.3-1.6-.9-2.1ZM70.5,59.6h-17.6v-30h17.6v30Z"/>
  <path class="cls-2" d="M36.1,59.6h-17.5V19.3c0-.7.2-1.2.6-1.6.4-.4,1-.6,1.6-.6h47.7c.5,0,1-.2,1.3-.5.4-.4.5-.8.5-1.3s-.2-1-.5-1.3c-.4-.4-.8-.5-1.3-.5H20.9c-1.6,0-3.1.6-4.2,1.8-1.2,1.2-1.8,2.6-1.8,4.2v40.3h-4.6c-.8,0-1.4.3-2,.8-.5.5-.8,1.2-.8,2s.3,1.4.8,2,1.2.8,2,.8h25.8c.8,0,1.4-.3,2-.8.5-.5.8-1.2.8-2s-.3-1.4-.8-2c-.5-.5-1.2-.8-2-.8Z"/>
</svg>