<svg width="81" height="80" viewBox="0 0 81 80" fill="none" xmlns="http://www.w3.org/2000/svg">
<path fill-rule="evenodd" clip-rule="evenodd" d="M8.56028 30.6409L16.8023 35.3476C17.2699 35.6127 17.7798 35.7452 18.3322 35.7452C18.8846 35.7452 19.3869 35.6127 19.8389 35.3476L28.0809 30.6409C28.5364 30.3896 28.9033 30.0252 29.1817 29.5477C29.46 29.0701 29.5992 28.5549 29.5992 28.002V18.5887C29.5992 18.0358 29.46 17.5206 29.1817 17.0431C28.9033 16.5655 28.5364 16.2011 28.0809 15.9498L19.8389 11.2431C19.3713 10.978 18.8613 10.8455 18.3089 10.8455C17.7565 10.8455 17.2543 10.978 16.8023 11.2431L8.56028 15.9498C8.10475 16.2011 7.73782 16.5655 7.45949 17.0431C7.18116 17.5206 7.04199 18.0358 7.04199 18.5887V28.002C7.04199 28.5549 7.18116 29.0701 7.45949 29.5477C7.73782 30.0252 8.10475 30.3896 8.56028 30.6409ZM25.8397 27.5754L18.3206 31.8555L10.8015 27.5754V19.0153L18.3206 14.7352L25.8397 19.0153V27.5754ZM56.9281 32.1447V36.4754L63.435 40.2712V60.1176L46.5171 69.9353L29.5992 60.1176V40.2712L36.1061 36.4754V32.1447L28.8762 36.3887C27.9147 36.9396 27.1682 37.6783 26.6368 38.6049C26.1054 39.5315 25.8397 40.5207 25.8397 41.5725V58.8085C25.8397 59.8603 26.1054 60.8495 26.6368 61.7761C27.1682 62.7027 27.9147 63.4414 28.8762 63.9923L43.4805 72.5164C44.43 73.061 45.4383 73.3333 46.5052 73.3333C47.5722 73.3333 48.5883 73.061 49.5537 72.5164L64.158 63.9923C65.1196 63.4414 65.8661 62.7027 66.3974 61.7761C66.9288 60.8495 67.1945 59.8603 67.1945 58.8085V41.5725C67.1945 40.5207 66.9288 39.5315 66.3974 38.6049C65.8661 37.6783 65.1196 36.9396 64.158 36.3887L56.9281 32.1447Z" fill="#0B1215"/>
<path d="M48.3969 25.4643V46.1418C48.3969 46.6744 48.2165 47.1208 47.8557 47.4811C47.4949 47.8414 47.0479 48.0215 46.5145 48.0215C45.9813 48.0215 45.5351 47.8414 45.176 47.4811C44.8169 47.1208 44.6373 46.6744 44.6373 46.1418V9.70315C44.6373 8.84284 44.9283 8.12167 45.5103 7.53963C46.0923 6.95766 46.8135 6.66667 47.6739 6.66667H69.0382C70.2287 6.66667 71.1216 7.20409 71.7169 8.27894C72.3121 9.35373 72.2675 10.3972 71.5831 11.4094L69.6165 14.3592C69.2743 14.8724 69.1032 15.4369 69.1032 16.0527C69.1032 16.6685 69.2743 17.2415 69.6165 17.7718L71.5831 20.7215C72.2675 21.7337 72.3121 22.7772 71.7169 23.8521C71.1216 24.9269 70.2287 25.4643 69.0382 25.4643H48.3969Z" fill="#0B1215"/>
</svg>
