<svg width="24" height="24" viewBox="0 0 24 24" fill="none" xmlns="http://www.w3.org/2000/svg">
<path fill-rule="evenodd" clip-rule="evenodd" d="M12 0C18.6229 0 24 5.37703 24 12C24 18.6229 18.6229 24 12 24C5.37703 24 0 18.6229 0 12C0 5.37703 5.37703 0 12 0ZM19.1867 8.3896C19.0141 7.74418 18.5059 7.236 17.8606 7.0635C16.6907 6.75 12 6.75 12 6.75C12 6.75 7.30936 6.75 6.13945 7.0635C5.49422 7.236 4.98586 7.74418 4.81336 8.3896C4.5 9.55936 4.5 12.0001 4.5 12.0001C4.5 12.0001 4.5 14.4407 4.81336 15.6104C4.98586 16.2558 5.49422 16.7642 6.13945 16.9367C7.30936 17.25 12 17.25 12 17.25C12 17.25 16.6907 17.25 17.8606 16.9367C18.5059 16.7642 19.0141 16.2558 19.1867 15.6104C19.5 14.4407 19.5 12.0001 19.5 12.0001C19.5 12.0001 19.5 9.55936 19.1867 8.3896ZM10.5 14.2501V9.75005L14.397 12.0001L10.5 14.2501Z" fill="#FBFDFE"/>
</svg>
