<svg aria-hidden="true" style="position: absolute; width: 0; height: 0; overflow: hidden;" version="1.1" xmlns="http://www.w3.org/2000/svg" xmlns:xlink="http://www.w3.org/1999/xlink">
<defs>
<symbol id="icon-chevron-right" viewBox="0 0 32 32">
<path fill="currentColor" d="M20.165 16.012l-11.082-11.082c-0.244-0.244-0.375-0.544-0.391-0.898s0.114-0.671 0.391-0.949c0.278-0.278 0.586-0.417 0.923-0.417s0.646 0.139 0.923 0.417l11.453 11.453c0.228 0.227 0.387 0.46 0.479 0.698s0.138 0.497 0.138 0.778-0.046 0.54-0.138 0.778c-0.092 0.238-0.252 0.47-0.479 0.698l-11.453 11.453c-0.244 0.244-0.544 0.375-0.898 0.391s-0.671-0.114-0.949-0.391c-0.278-0.278-0.417-0.586-0.417-0.924s0.139-0.646 0.417-0.923l11.082-11.082z"></path>
</symbol>
<symbol id="icon-chevron-left" viewBox="0 0 32 32">
<path d="M11.502 15.988l11.082 11.082c0.244 0.244 0.375 0.544 0.391 0.898s-0.114 0.671-0.391 0.949c-0.278 0.278-0.586 0.417-0.923 0.417s-0.646-0.139-0.924-0.417l-11.453-11.453c-0.228-0.227-0.387-0.46-0.479-0.698s-0.138-0.497-0.138-0.778 0.046-0.54 0.138-0.778c0.092-0.238 0.252-0.47 0.479-0.698l11.453-11.453c0.244-0.244 0.544-0.375 0.898-0.391s0.671 0.114 0.949 0.391c0.278 0.278 0.417 0.586 0.417 0.923s-0.139 0.646-0.417 0.923l-11.082 11.082z"></path>
</symbol>
<symbol id="icon-chevron-up" viewBox="0 0 32 32">
<path d="M16.012 11.502l-11.082 11.082c-0.244 0.244-0.544 0.375-0.898 0.391s-0.671-0.114-0.949-0.391c-0.278-0.278-0.417-0.586-0.417-0.923s0.139-0.646 0.417-0.924l11.453-11.453c0.227-0.228 0.46-0.387 0.698-0.479s0.497-0.138 0.778-0.138 0.54 0.046 0.778 0.138c0.238 0.092 0.47 0.252 0.698 0.479l11.453 11.453c0.244 0.244 0.375 0.544 0.391 0.898s-0.114 0.671-0.391 0.949c-0.278 0.278-0.586 0.417-0.924 0.417s-0.646-0.139-0.923-0.417l-11.082-11.082z"></path>
</symbol>
<symbol id="icon-chevron-down" viewBox="0 0 32 32">
<path d="M15.988 23.001c-0.281 0-0.54-0.046-0.778-0.138s-0.47-0.252-0.698-0.479l-11.453-11.453c-0.244-0.244-0.375-0.544-0.391-0.898s0.114-0.671 0.391-0.949c0.278-0.278 0.586-0.417 0.923-0.417s0.646 0.139 0.923 0.417l11.082 11.082 11.082-11.082c0.244-0.244 0.544-0.375 0.898-0.391s0.671 0.114 0.949 0.391c0.278 0.278 0.417 0.586 0.417 0.923s-0.139 0.646-0.417 0.923l-11.453 11.453c-0.227 0.228-0.46 0.387-0.698 0.479s-0.497 0.138-0.778 0.138z"></path>
</symbol>
<symbol id="icon-info" viewBox="0 0 32 32">
<path d="M16.001 22.667c0.21 0 0.386-0.071 0.527-0.213s0.212-0.318 0.212-0.528v-6.667c0-0.21-0.071-0.386-0.213-0.528s-0.318-0.213-0.528-0.213-0.386 0.071-0.527 0.213c-0.142 0.142-0.212 0.318-0.212 0.528v6.667c0 0.21 0.071 0.386 0.213 0.528s0.318 0.213 0.528 0.213zM16 12.41c0.258 0 0.475-0.087 0.65-0.262s0.262-0.391 0.262-0.65c0-0.258-0.087-0.475-0.262-0.65s-0.391-0.262-0.65-0.262c-0.258 0-0.475 0.087-0.65 0.262s-0.262 0.391-0.262 0.65c0 0.258 0.087 0.475 0.262 0.65s0.391 0.262 0.65 0.262zM16.005 29.333c-1.844 0-3.577-0.35-5.2-1.050s-3.035-1.649-4.236-2.849c-1.201-1.2-2.151-2.61-2.852-4.232s-1.051-3.354-1.051-5.198c0-1.844 0.35-3.577 1.050-5.2s1.649-3.035 2.849-4.236c1.2-1.201 2.61-2.151 4.232-2.852s3.354-1.051 5.198-1.051c1.844 0 3.577 0.35 5.2 1.050s3.035 1.649 4.236 2.849c1.201 1.2 2.151 2.61 2.852 4.232s1.051 3.354 1.051 5.198c0 1.844-0.35 3.577-1.050 5.2s-1.649 3.035-2.849 4.236c-1.2 1.201-2.61 2.151-4.232 2.852s-3.354 1.051-5.198 1.051zM16 27.852c3.309 0 6.111-1.148 8.407-3.444s3.444-5.099 3.444-8.407-1.148-6.111-3.444-8.407c-2.296-2.296-5.099-3.444-8.407-3.444s-6.111 1.148-8.407 3.444c-2.296 2.296-3.444 5.099-3.444 8.407s1.148 6.111 3.444 8.407c2.296 2.296 5.099 3.444 8.407 3.444z"></path>
</symbol>
<symbol id="icon-world" viewBox="0 0 32 32">
<path d="M16 29.333c-1.835 0-3.563-0.351-5.185-1.053s-3.035-1.655-4.238-2.858c-1.203-1.203-2.156-2.616-2.858-4.238s-1.053-3.35-1.053-5.185c0-1.84 0.351-3.57 1.053-5.19s1.655-3.030 2.858-4.233 2.616-2.156 4.238-2.858c1.622-0.702 3.35-1.053 5.185-1.053 1.84 0 3.57 0.351 5.19 1.053s3.030 1.655 4.233 2.858c1.203 1.203 2.156 2.614 2.858 4.233s1.053 3.349 1.053 5.19c0 1.835-0.351 3.563-1.053 5.185s-1.655 3.035-2.858 4.238c-1.203 1.203-2.614 2.156-4.233 2.858s-3.349 1.053-5.19 1.053zM16 27.863c0.87-1.117 1.587-2.214 2.151-3.291s1.023-2.282 1.376-3.615h-7.054c0.391 1.409 0.86 2.652 1.404 3.729s1.253 2.136 2.123 3.177zM14.114 27.641c-0.691-0.815-1.322-1.822-1.893-3.022s-0.996-2.42-1.275-3.662h-5.681c0.849 1.842 2.053 3.353 3.611 4.533s3.305 1.897 5.238 2.151zM17.886 27.641c1.934-0.255 3.68-0.972 5.238-2.151s2.762-2.69 3.611-4.533h-5.681c-0.374 1.261-0.847 2.491-1.417 3.691s-1.154 2.197-1.751 2.993zM4.661 19.476h5.977c-0.112-0.608-0.191-1.2-0.238-1.777s-0.070-1.143-0.070-1.699 0.023-1.123 0.070-1.699c0.046-0.577 0.126-1.169 0.238-1.777h-5.977c-0.162 0.513-0.287 1.072-0.378 1.677s-0.135 1.205-0.135 1.799 0.045 1.194 0.135 1.799c0.090 0.605 0.216 1.164 0.378 1.677zM12.12 19.476h7.761c0.112-0.608 0.191-1.191 0.238-1.748s0.070-1.133 0.070-1.728-0.023-1.17-0.070-1.728c-0.046-0.558-0.126-1.14-0.238-1.748h-7.761c-0.112 0.608-0.191 1.191-0.238 1.748s-0.070 1.133-0.070 1.728 0.023 1.17 0.070 1.728c0.046 0.558 0.126 1.14 0.238 1.748zM21.362 19.476h5.977c0.162-0.513 0.287-1.072 0.378-1.677s0.135-1.205 0.135-1.799-0.045-1.194-0.135-1.799c-0.090-0.605-0.216-1.164-0.378-1.677h-5.977c0.112 0.608 0.191 1.2 0.238 1.777s0.070 1.143 0.070 1.699-0.023 1.123-0.070 1.699c-0.046 0.577-0.126 1.169-0.238 1.777zM21.054 11.043h5.681c-0.868-1.88-2.058-3.391-3.569-4.533s-3.271-1.868-5.281-2.18c0.691 0.91 1.313 1.95 1.865 3.121s0.986 2.368 1.303 3.591zM12.473 11.043h7.054c-0.391-1.39-0.874-2.647-1.447-3.772s-1.267-2.169-2.080-3.134c-0.813 0.965-1.506 2.010-2.080 3.134s-1.056 2.382-1.447 3.772zM5.265 11.043h5.681c0.317-1.223 0.751-2.42 1.303-3.591s1.173-2.211 1.865-3.121c-2.029 0.312-3.794 1.043-5.295 2.194s-2.686 2.657-3.554 4.519z"></path>
</symbol>
</defs>
</svg>
