<svg aria-hidden="true" style="position: absolute; width: 0; height: 0; overflow: hidden;" version="1.1" xmlns="http://www.w3.org/2000/svg" xmlns:xlink="http://www.w3.org/1999/xlink">
<defs>
<symbol id="icon-chevron-right" viewBox="0 0 32 32">
<path fill="currentColor" d="M20.165 16.012l-11.082-11.082c-0.244-0.244-0.375-0.544-0.391-0.898s0.114-0.671 0.391-0.949c0.278-0.278 0.586-0.417 0.923-0.417s0.646 0.139 0.923 0.417l11.453 11.453c0.228 0.227 0.387 0.46 0.479 0.698s0.138 0.497 0.138 0.778-0.046 0.54-0.138 0.778c-0.092 0.238-0.252 0.47-0.479 0.698l-11.453 11.453c-0.244 0.244-0.544 0.375-0.898 0.391s-0.671-0.114-0.949-0.391c-0.278-0.278-0.417-0.586-0.417-0.924s0.139-0.646 0.417-0.923l11.082-11.082z"></path>
</symbol>
<symbol id="icon-chevron-left" viewBox="0 0 32 32">
<path fill="currentColor" d="M11.502 15.988l11.082 11.082c0.244 0.244 0.375 0.544 0.391 0.898s-0.114 0.671-0.391 0.949c-0.278 0.278-0.586 0.417-0.923 0.417s-0.646-0.139-0.924-0.417l-11.453-11.453c-0.228-0.227-0.387-0.46-0.479-0.698s-0.138-0.497-0.138-0.778 0.046-0.54 0.138-0.778c0.092-0.238 0.252-0.47 0.479-0.698l11.453-11.453c0.244-0.244 0.544-0.375 0.898-0.391s0.671 0.114 0.949 0.391c0.278 0.278 0.417 0.586 0.417 0.923s-0.139 0.646-0.417 0.923l-11.082 11.082z"></path>
</symbol>
<symbol id="icon-chevron-up" viewBox="0 0 32 32">
<path fill="currentColor" d="M16.012 11.502l-11.082 11.082c-0.244 0.244-0.544 0.375-0.898 0.391s-0.671-0.114-0.949-0.391c-0.278-0.278-0.417-0.586-0.417-0.923s0.139-0.646 0.417-0.924l11.453-11.453c0.227-0.228 0.46-0.387 0.698-0.479s0.497-0.138 0.778-0.138 0.54 0.046 0.778 0.138c0.238 0.092 0.47 0.252 0.698 0.479l11.453 11.453c0.244 0.244 0.375 0.544 0.391 0.898s-0.114 0.671-0.391 0.949c-0.278 0.278-0.586 0.417-0.924 0.417s-0.646-0.139-0.923-0.417l-11.082-11.082z"></path>
</symbol>
<symbol id="icon-chevron-down" viewBox="0 0 32 32">
<path fill="currentColor" d="M15.988 23.001c-0.281 0-0.54-0.046-0.778-0.138s-0.47-0.252-0.698-0.479l-11.453-11.453c-0.244-0.244-0.375-0.544-0.391-0.898s0.114-0.671 0.391-0.949c0.278-0.278 0.586-0.417 0.923-0.417s0.646 0.139 0.923 0.417l11.082 11.082 11.082-11.082c0.244-0.244 0.544-0.375 0.898-0.391s0.671 0.114 0.949 0.391c0.278 0.278 0.417 0.586 0.417 0.923s-0.139 0.646-0.417 0.923l-11.453 11.453c-0.227 0.228-0.46 0.387-0.698 0.479s-0.497 0.138-0.778 0.138z"></path>
</symbol>
<symbol id="icon-info" viewBox="0 0 32 32">
<path fill="currentColor" d="M16.001 22.667c0.21 0 0.386-0.071 0.527-0.213s0.212-0.318 0.212-0.528v-6.667c0-0.21-0.071-0.386-0.213-0.528s-0.318-0.213-0.528-0.213-0.386 0.071-0.527 0.213c-0.142 0.142-0.212 0.318-0.212 0.528v6.667c0 0.21 0.071 0.386 0.213 0.528s0.318 0.213 0.528 0.213zM16 12.41c0.258 0 0.475-0.087 0.65-0.262s0.262-0.391 0.262-0.65c0-0.258-0.087-0.475-0.262-0.65s-0.391-0.262-0.65-0.262c-0.258 0-0.475 0.087-0.65 0.262s-0.262 0.391-0.262 0.65c0 0.258 0.087 0.475 0.262 0.65s0.391 0.262 0.65 0.262zM16.005 29.333c-1.844 0-3.577-0.35-5.2-1.050s-3.035-1.649-4.236-2.849c-1.201-1.2-2.151-2.61-2.852-4.232s-1.051-3.354-1.051-5.198c0-1.844 0.35-3.577 1.050-5.2s1.649-3.035 2.849-4.236c1.2-1.201 2.61-2.151 4.232-2.852s3.354-1.051 5.198-1.051c1.844 0 3.577 0.35 5.2 1.050s3.035 1.649 4.236 2.849c1.201 1.2 2.151 2.61 2.852 4.232s1.051 3.354 1.051 5.198c0 1.844-0.35 3.577-1.050 5.2s-1.649 3.035-2.849 4.236c-1.2 1.201-2.61 2.151-4.232 2.852s-3.354 1.051-5.198 1.051zM16 27.852c3.309 0 6.111-1.148 8.407-3.444s3.444-5.099 3.444-8.407-1.148-6.111-3.444-8.407c-2.296-2.296-5.099-3.444-8.407-3.444s-6.111 1.148-8.407 3.444c-2.296 2.296-3.444 5.099-3.444 8.407s1.148 6.111 3.444 8.407c2.296 2.296 5.099 3.444 8.407 3.444z"></path>
</symbol>
<symbol id="icon-world" viewBox="0 0 32 32">
<path fill="currentColor" d="M16 29.333c-1.835 0-3.563-0.351-5.185-1.053s-3.035-1.655-4.238-2.858c-1.203-1.203-2.156-2.616-2.858-4.238s-1.053-3.35-1.053-5.185c0-1.84 0.351-3.57 1.053-5.19s1.655-3.030 2.858-4.233 2.616-2.156 4.238-2.858c1.622-0.702 3.35-1.053 5.185-1.053 1.84 0 3.57 0.351 5.19 1.053s3.030 1.655 4.233 2.858c1.203 1.203 2.156 2.614 2.858 4.233s1.053 3.349 1.053 5.19c0 1.835-0.351 3.563-1.053 5.185s-1.655 3.035-2.858 4.238c-1.203 1.203-2.614 2.156-4.233 2.858s-3.349 1.053-5.19 1.053zM16 27.863c0.87-1.117 1.587-2.214 2.151-3.291s1.023-2.282 1.376-3.615h-7.054c0.391 1.409 0.86 2.652 1.404 3.729s1.253 2.136 2.123 3.177zM14.114 27.641c-0.691-0.815-1.322-1.822-1.893-3.022s-0.996-2.42-1.275-3.662h-5.681c0.849 1.842 2.053 3.353 3.611 4.533s3.305 1.897 5.238 2.151zM17.886 27.641c1.934-0.255 3.68-0.972 5.238-2.151s2.762-2.69 3.611-4.533h-5.681c-0.374 1.261-0.847 2.491-1.417 3.691s-1.154 2.197-1.751 2.993zM4.661 19.476h5.977c-0.112-0.608-0.191-1.2-0.238-1.777s-0.070-1.143-0.070-1.699 0.023-1.123 0.070-1.699c0.046-0.577 0.126-1.169 0.238-1.777h-5.977c-0.162 0.513-0.287 1.072-0.378 1.677s-0.135 1.205-0.135 1.799 0.045 1.194 0.135 1.799c0.090 0.605 0.216 1.164 0.378 1.677zM12.12 19.476h7.761c0.112-0.608 0.191-1.191 0.238-1.748s0.070-1.133 0.070-1.728-0.023-1.17-0.070-1.728c-0.046-0.558-0.126-1.14-0.238-1.748h-7.761c-0.112 0.608-0.191 1.191-0.238 1.748s-0.070 1.133-0.070 1.728 0.023 1.17 0.070 1.728c0.046 0.558 0.126 1.14 0.238 1.748zM21.362 19.476h5.977c0.162-0.513 0.287-1.072 0.378-1.677s0.135-1.205 0.135-1.799-0.045-1.194-0.135-1.799c-0.090-0.605-0.216-1.164-0.378-1.677h-5.977c0.112 0.608 0.191 1.2 0.238 1.777s0.070 1.143 0.070 1.699-0.023 1.123-0.070 1.699c-0.046 0.577-0.126 1.169-0.238 1.777zM21.054 11.043h5.681c-0.868-1.88-2.058-3.391-3.569-4.533s-3.271-1.868-5.281-2.18c0.691 0.91 1.313 1.95 1.865 3.121s0.986 2.368 1.303 3.591zM12.473 11.043h7.054c-0.391-1.39-0.874-2.647-1.447-3.772s-1.267-2.169-2.080-3.134c-0.813 0.965-1.506 2.010-2.080 3.134s-1.056 2.382-1.447 3.772zM5.265 11.043h5.681c0.317-1.223 0.751-2.42 1.303-3.591s1.173-2.211 1.865-3.121c-2.029 0.312-3.794 1.043-5.295 2.194s-2.686 2.657-3.554 4.519z"></path>
</symbol>
<symbol id="icon-menu" viewBox="0 0 48 48">
<path fill="currentColor" d="M5.25 37.3463C4.89583 37.3463 4.59896 37.2263 4.35938 36.9863C4.11979 36.7463 4 36.449 4 36.0944C4 35.7398 4.11979 35.4431 4.35938 35.2044C4.59896 34.9656 4.89583 34.8463 5.25 34.8463H42.75C43.1042 34.8463 43.401 34.9663 43.6406 35.2063C43.8802 35.4458 44 35.7431 44 36.0981C44 36.4527 43.8802 36.7494 43.6406 36.9881C43.401 37.2269 43.1042 37.3463 42.75 37.3463H5.25ZM5.25 25.4231C4.89583 25.4231 4.59896 25.3031 4.35938 25.0631C4.11979 24.8231 4 24.5258 4 24.1713C4 23.8167 4.11979 23.52 4.35938 23.2813C4.59896 23.0425 4.89583 22.9231 5.25 22.9231H42.75C43.1042 22.9231 43.401 23.0431 43.6406 23.2831C43.8802 23.5231 44 23.8204 44 24.175C44 24.5296 43.8802 24.8263 43.6406 25.065C43.401 25.3038 43.1042 25.4231 42.75 25.4231H5.25ZM5.25 13.5C4.89583 13.5 4.59896 13.38 4.35938 13.14C4.11979 12.9004 4 12.6031 4 12.2481C4 11.8935 4.11979 11.5969 4.35938 11.3581C4.59896 11.1194 4.89583 11 5.25 11H42.75C43.1042 11 43.401 11.12 43.6406 11.36C43.8802 11.6 44 11.8973 44 12.2519C44 12.6065 43.8802 12.9031 43.6406 13.1419C43.401 13.3806 43.1042 13.5 42.75 13.5H5.25Z"/>
</symbol>
<symbol id="icon-close" viewBox="0 0 48 48">
<path fill="currentColor" d="M23.5 25.5259L8.48252 40.5427C8.21487 40.8108 7.8864 40.954 7.4971 40.9721C7.10827 40.9907 6.76167 40.8476 6.45729 40.5427C6.15243 40.2383 6 39.9008 6 39.5301C6 39.1594 6.15243 38.8219 6.45729 38.5175L21.4741 23.5L6.45729 8.48252C6.18916 8.21487 6.04604 7.8864 6.02791 7.4971C6.0093 7.10827 6.15243 6.76166 6.45729 6.45728C6.76167 6.15243 7.09921 6 7.4699 6C7.8406 6 8.17814 6.15243 8.48252 6.45728L23.5 21.4741L38.5175 6.45728C38.7851 6.18916 39.1136 6.04604 39.5029 6.02791C39.8917 6.0093 40.2383 6.15243 40.5427 6.45728C40.8476 6.76166 41 7.09921 41 7.4699C41 7.8406 40.8476 8.17814 40.5427 8.48252L25.5259 23.5L40.5427 38.5175C40.8108 38.7851 40.954 39.1136 40.9721 39.5029C40.9907 39.8917 40.8476 40.2383 40.5427 40.5427C40.2383 40.8476 39.9008 41 39.5301 41C39.1594 41 38.8219 40.8476 38.5175 40.5427L23.5 25.5259Z"/>
</symbol>
<symbol id="icon-quote" viewBox="0 0 40 30">
<path d="M9.43633 29.8226C7.65484 29.8226 6.04036 29.3494 4.5929 28.403C3.20111 27.4565 2.08768 26.1483 1.25261 24.4781C0.417536 22.7523 0 20.776 0 18.5491C0 16.5449 0.361865 14.5964 1.08559 12.7036C1.80932 10.7551 2.83925 8.94576 4.17536 7.27561C5.56715 5.60547 7.18163 4.15801 9.01879 2.93323C10.8559 1.65279 12.8601 0.734205 15.0313 0.17749L19.3737 5.52196C16.9241 6.46838 14.9756 7.74882 13.5282 9.36329C12.0807 10.9778 11.357 12.3417 11.357 13.4552C11.357 13.9562 11.4683 14.5129 11.691 15.1253C11.9694 15.682 12.6374 16.2666 13.6952 16.879C15.087 17.7697 16.0612 18.7439 16.618 19.8017C17.1747 20.8038 17.453 21.9729 17.453 23.309C17.453 25.3132 16.7015 26.8998 15.1983 28.0689C13.6952 29.238 11.7745 29.8226 9.43633 29.8226ZM30.0626 29.8226C28.2811 29.8226 26.6667 29.3494 25.2192 28.403C23.8274 27.4565 22.714 26.1483 21.8789 24.4781C21.0438 22.7523 20.6263 20.776 20.6263 18.5491C20.6263 16.5449 20.9882 14.5964 21.7119 12.7036C22.4356 10.7551 23.4655 8.94576 24.8017 7.27561C26.1935 5.60547 27.8079 4.15801 29.6451 2.93323C31.4823 1.65279 33.4864 0.734205 35.6576 0.17749L40 5.52196C37.5504 6.46838 35.6019 7.74882 34.1545 9.36329C32.707 10.9778 31.9833 12.3417 31.9833 13.4552C31.9833 13.9562 32.0946 14.5129 32.3173 15.1253C32.5957 15.682 33.2637 16.2666 34.3215 16.879C35.7133 17.7697 36.6875 18.7439 37.2443 19.8017C37.801 20.8038 38.0793 21.9729 38.0793 23.309C38.0793 25.3132 37.3278 26.8998 35.8246 28.0689C34.3215 29.238 32.4008 29.8226 30.0626 29.8226Z" fill="#ED6C25"/>
</symbol>
<symbol id="icon-phone" viewBox="0 0 32 32" >
<path d="M27.5516 29.3332C24.7419 29.3332 21.8616 28.6297 18.9107 27.2228C15.9599 25.8155 13.2184 23.8405 10.6862 21.2978C8.15421 18.7553 6.18463 16.0139 4.77741 13.0736C3.37046 10.1333 2.66699 7.25831 2.66699 4.44859C2.66699 3.93942 2.83366 3.51511 3.16699 3.17567C3.50033 2.83622 3.91699 2.6665 4.41699 2.6665H8.53866C8.99172 2.6665 9.38699 2.80914 9.72449 3.09442C10.0623 3.3797 10.291 3.74567 10.4107 4.19234L11.2374 8.1665C11.3144 8.63234 11.3005 9.03942 11.1957 9.38775C11.091 9.73609 10.9062 10.0214 10.6412 10.2436L6.98449 13.6536C7.6681 14.895 8.42394 16.0483 9.25199 17.1136C10.08 18.1789 10.9631 19.1879 11.9012 20.1407C12.8689 21.1087 13.9106 22.0089 15.0262 22.8411C16.1414 23.6733 17.3657 24.4591 18.6991 25.1986L22.2632 21.5703C22.5346 21.2775 22.8396 21.0847 23.1782 20.9919C23.5169 20.8989 23.8913 20.8801 24.3016 20.9357L27.8078 21.6536C28.2609 21.7647 28.6285 21.9929 28.9107 22.3382C29.1927 22.6832 29.3337 23.079 29.3337 23.5257V27.5832C29.3337 28.0832 29.1639 28.4998 28.8245 28.8332C28.4851 29.1665 28.0607 29.3332 27.5516 29.3332ZM6.20241 12.0894L9.40116 9.14734C9.50783 9.06178 9.57727 8.94428 9.60949 8.79484C9.64144 8.64512 9.63602 8.50623 9.59324 8.37817L8.85283 4.84609C8.81005 4.67498 8.73533 4.54678 8.62866 4.4615C8.52171 4.37595 8.38283 4.33317 8.21199 4.33317H4.79199C4.66366 4.33317 4.55685 4.37595 4.47158 4.4615C4.38602 4.54678 4.34324 4.65359 4.34324 4.78192C4.37519 5.92081 4.55366 7.10984 4.87866 8.349C5.20338 9.58845 5.64463 10.8353 6.20241 12.0894ZM20.2857 25.9807C21.4116 26.5384 22.6119 26.9508 23.8866 27.2178C25.161 27.485 26.2716 27.6282 27.2182 27.6473C27.3466 27.6473 27.4534 27.6046 27.5387 27.519C27.6242 27.4335 27.667 27.3266 27.667 27.1986V23.8523C27.667 23.6815 27.6242 23.5426 27.5387 23.4357C27.4534 23.329 27.3252 23.2543 27.1541 23.2115L24.0707 22.5798C23.9427 22.5371 23.8306 22.5318 23.7345 22.564C23.6381 22.5959 23.5366 22.6654 23.4299 22.7723L20.2857 25.9807Z" fill="#0B1215"/>
</symbol>
</defs>
</svg>
