<svg aria-hidden="true" style="position: absolute; width: 0; height: 0; overflow: hidden;" version="1.1" xmlns="http://www.w3.org/2000/svg" xmlns:xlink="http://www.w3.org/1999/xlink">
<defs>
<symbol id="icon-chevron-right" viewBox="0 0 24 24">
<path d="m12.9463 12-4.07329-4.07299c-.13833-.1385-.20916-.31258-.2125-.52225-.00316-.2095.06767-.38675.2125-.53175.145-.14483.32067-.21725.527-.21725s.382.07242.527.21725l4.49429 4.49429c.0935.0936.1595.1924.198.2962s.0577.216.0577.3365-.0192.2327-.0577.3365-.1045.2026-.198.2963l-4.49429 4.4942c-.1385.1383-.31258.2092-.52225.2125-.2095.0032-.38675-.0677-.53175-.2125-.14483-.145-.21725-.3207-.21725-.527s.07242-.382.21725-.527z" />
</symbol>
<symbol id="icon-chevron-left" viewBox="0 0 24 24">
<path d="m10.4538 12 4.0732 4.073c.1384.1385.2092.3126.2125.5223.0032.2095-.0676.3867-.2125.5317-.145.1448-.3206.2173-.527.2173-.2063 0-.382-.0725-.527-.2173l-4.49423-4.4942c-.0935-.0937-.1595-.1925-.198-.2963s-.05775-.216-.05775-.3365.01925-.2327.05775-.3365.1045-.2026.198-.2962l4.49423-4.4943c.1385-.13833.3126-.20916.5223-.2125.2095-.00316.3867.06767.5317.2125.1449.145.2173.32067.2173.527 0 .20634-.0724.382-.2173.527z" />
</symbol>
<symbol id="icon-chevron-up" viewBox="0 0 24 24">
<path d="m12 10.4538-4.07299 4.0732c-.1385.1383-.31258.2092-.52225.2125-.2095.0032-.38675-.0677-.53175-.2125-.14483-.145-.21725-.3207-.21725-.527s.07242-.382.21725-.527l4.49429-4.49424c.1808-.18066.3917-.271.6327-.271s.4519.09034.6328.271l4.4942 4.49424c.1383.1385.2092.3126.2125.5223.0032.2095-.0677.3867-.2125.5317-.145.1448-.3207.2173-.527.2173s-.382-.0725-.527-.2173z" />
</symbol>
<symbol id="icon-chevron-down" viewBox="0 0 24 24">
<path d="m12 14.677c-.1205 0-.2327-.0192-.3365-.0577s-.2026-.1045-.2962-.198l-4.4943-4.49429c-.13833-.1385-.20916-.31258-.2125-.52225-.00316-.2095.06767-.38675.2125-.53175.145-.14483.32067-.21725.527-.21725.20634 0 .382.07242.527.21725l4.073 4.07329 4.073-4.07329c.1385-.13833.3126-.20916.5223-.2125.2095-.00316.3867.06767.5317.2125.1448.145.2173.32067.2173.527 0 .20634-.0725.382-.2173.527l-4.4942 4.49429c-.0937.0935-.1925.1595-.2963.198s-.216.0577-.3365.0577z" />
</symbol>
<symbol id="icon-info" viewBox="0 0 24 24">
<path d="m12.0003 16.75c.2126 0 .3907-.0719.5342-.2157.1437-.1437.2155-.3218.2155-.5343v-4.25c0-.2125-.0719-.3907-.2157-.5345-.1439-.1437-.3221-.2155-.5346-.2155-.2126 0-.3907.0718-.5342.2155-.1437.1438-.2155.322-.2155.5345v4.25c0 .2125.0719.3906.2158.5343.1438.1438.322.2157.5345.2157zm-.0003-7.4615c.2288 0 .4207-.07742.5755-.23225s.2323-.34667.2323-.5755-.0775-.42067-.2323-.5755c-.1548-.15467-.3467-.232-.5755-.232s-.4207.07733-.5755.232c-.1548.15483-.2322.34667-.2322.5755s.0774.42067.2322.5755.3467.23225.5755.23225zm.0018 12.2115c-1.314 0-2.54913-.2493-3.7053-.748s-2.16183-1.1754-3.017-2.0302c-.85517-.8549-1.53225-1.8601-2.03125-3.0158-.49883-1.1557-.74825-2.3904-.74825-3.7042 0-1.314.24933-2.54913.748-3.7053s1.17542-2.16183 2.03025-3.017 1.86008-1.53225 3.01575-2.03125c1.15567-.49883 2.3904-.74825 3.7042-.74825 1.3141 0 2.5491.24933 3.7053.748s2.1618 1.17542 3.017 2.03025 1.5323 1.86008 2.0313 3.01575c.4988 1.15567.7482 2.3904.7482 3.7042 0 1.3141-.2493 2.5491-.748 3.7053s-1.1754 2.1618-2.0302 3.017c-.8549.8552-1.8601 1.5323-3.0158 2.0313-1.1557.4988-2.3904.7482-3.7042.7482zm-.0018-1.5c2.2333 0 4.125-.775 5.675-2.325s2.325-3.4417 2.325-5.675c0-2.23333-.775-4.125-2.325-5.675s-3.4417-2.325-5.675-2.325c-2.23333 0-4.125.775-5.675 2.325s-2.325 3.44167-2.325 5.675c0 2.2333.775 4.125 2.325 5.675s3.44167 2.325 5.675 2.325z" />
</symbol>
<symbol id="icon-world" viewBox="0 0 24 24">
<path d="m12 21.5c-1.3025 0-2.53167-.2497-3.6875-.749s-2.16383-1.1792-3.024-2.0395c-.86033-.8602-1.54017-1.8682-2.0395-3.024s-.749-2.385-.749-3.6875c0-1.3128.24967-2.54458.749-3.69525s1.17917-2.15608 2.0395-3.01625c.86017-.86033 1.86817-1.54017 3.024-2.0395s2.385-.749 3.6875-.749c1.3128 0 2.5446.24967 3.6953.749 1.1506.49933 2.156 1.17917 3.0162 2.0395.8603.86017 1.5402 1.86558 2.0395 3.01625s.749 2.38245.749 3.69525c0 1.3025-.2497 2.5317-.749 3.6875s-1.1792 2.1638-2.0395 3.024c-.8602.8603-1.8656 1.5402-3.0162 2.0395-1.1507.4993-2.3825.749-3.6953.749zm0-1.5212c.5103-.6769.9398-1.3596 1.2885-2.0481s.6327-1.441.852-2.2577h-4.281c.2322.8423.5194 1.6078.8618 2.2963.3421.6885.7684 1.3583 1.2787 2.0095zm-1.9365-.275c-.38333-.55-.72758-1.1753-1.03275-1.8758-.30517-.7007-.54233-1.419-.7115-2.155h-3.39225c.52817 1.0385 1.2365 1.911 2.125 2.6175.8885.7063 1.89233 1.1774 3.0115 1.4133zm3.873 0c1.1192-.2359 2.123-.707 3.0115-1.4133.8885-.7065 1.5968-1.579 2.125-2.6175h-3.3923c-.2013.7423-.4545 1.4638-.7597 2.1645-.305.7007-.6332 1.3228-.9845 1.8663zm-9.6385-5.5308h3.7175c-.06283-.3717-.10842-.7361-.13675-1.0932-.02817-.357-.04225-.717-.04225-1.0798s.01408-.7227.04225-1.0797c.02833-.3572.07392-.7216.13675-1.0933h-3.7175c-.09617.3397-.16983.6928-.221 1.0595-.05133.3667-.077.7378-.077 1.1135s.02567.7468.077 1.1135c.05117.3667.12483.7198.221 1.0595zm5.21725 0h4.96955c.0626-.3717.1081-.7328.1364-1.0835.0282-.3507.0423-.7138.0423-1.0895s-.0141-.7388-.0423-1.0895c-.0283-.3507-.0738-.7118-.1364-1.0835h-4.96955c-.06267.3717-.10817.7328-.1365 1.0835-.02817.3507-.04225.7138-.04225 1.0895s.01408.7388.04225 1.0895c.02833.3507.07383.7118.1365 1.0835zm6.46925 0h3.7175c.0962-.3397.1698-.6928.221-1.0595.0513-.3667.077-.7378.077-1.1135s-.0257-.7468-.077-1.1135c-.0512-.3667-.1248-.7198-.221-1.0595h-3.7175c.0628.3717.1084.7361.1367 1.0933.0282.357.0423.7169.0423 1.0797s-.0141.7228-.0423 1.0798c-.0283.3571-.0739.7215-.1367 1.0932zm-.3038-5.846h3.3923c-.5345-1.05133-1.238-1.92383-2.1105-2.6175-.8725-.6935-1.8812-1.16783-3.026-1.423.3833.582.7243 1.21858 1.023 1.90975.2988.691.5392 1.40125.7212 2.13075zm-5.8212 0h4.281c-.2322-.836-.5242-1.60625-.876-2.31075-.352-.7045-.7735-1.3695-1.2645-1.995-.491.6255-.9125 1.2905-1.2645 1.995-.3518.7045-.6438 1.47475-.876 2.31075zm-4.9325 0h3.39225c.182-.7295.42242-1.43975.72125-2.13075.29867-.69117.63967-1.32775 1.023-1.90975-1.15133.25517-2.16158.73117-3.03075 1.428-.86933.69667-1.57125 1.5675-2.10575 2.6125z" />
</symbol>
<symbol id="icon-menu" viewBox="0 0 24 24">
<path d="m4.25 17.6345c-.2125 0-.39058-.0719-.53425-.2158-.14383-.1436-.21575-.3218-.21575-.5345 0-.2125.07192-.3906.21575-.5342.14367-.1435.32175-.2153.53425-.2153h15.5c.2125 0 .3906.0719.5343.2155.1438.1439.2157.3221.2157.5348 0 .2125-.0719.3906-.2157.5342-.1437.1435-.3218.2153-.5343.2153zm0-4.8845c-.2125 0-.39058-.0719-.53425-.2158-.14383-.1438-.21575-.322-.21575-.5345 0-.2126.07192-.3907.21575-.5342.14367-.1437.32175-.2155.53425-.2155h15.5c.2125 0 .3906.0719.5343.2157.1438.1439.2157.322.2157.5345 0 .2127-.0719.3908-.2157.5343-.1437.1436-.3218.2155-.5343.2155zm0-4.88477c-.2125 0-.39058-.07183-.53425-.2155-.14383-.14383-.21575-.32209-.21575-.53475 0-.2125.07192-.39059.21575-.53425.14367-.1435.32175-.21525.53425-.21525h15.5c.2125 0 .3906.07192.5343.21575.1438.14367.2157.32183.2157.5345 0 .2125-.0719.39058-.2157.53425-.1437.1435-.3218.21525-.5343.21525z" />
</symbol>
<symbol id="icon-close" viewBox="0 0 24 24">
<path d="m12 13.0538-5.07299 5.0732c-.1385.1383-.31258.2092-.52225.2125-.2095.0032-.38675-.0677-.53175-.2125-.14483-.145-.21725-.3207-.21725-.527s.07242-.382.21725-.527l5.07329-5.073-5.07329-5.07299c-.13833-.1385-.20916-.31258-.2125-.52225-.00316-.2095.06767-.38675.2125-.53175.145-.14483.32067-.21725.527-.21725.20634 0 .382.07242.527.21725l5.07299 5.07329 5.073-5.07329c.1385-.13833.3126-.20916.5223-.2125.2095-.00316.3867.06767.5317.2125.1448.145.2173.32067.2173.527 0 .20634-.0725.382-.2173.527l-5.0732 5.07299 5.0732 5.073c.1383.1385.2092.3126.2125.5223.0032.2095-.0677.3867-.2125.5317-.145.1448-.3207.2173-.527.2173s-.382-.0725-.527-.2173z" />
</symbol>
<symbol id="icon-quote" viewBox="0 0 40 30">
<path d="M9.43633 29.8226C7.65484 29.8226 6.04036 29.3494 4.5929 28.403C3.20111 27.4565 2.08768 26.1483 1.25261 24.4781C0.417536 22.7523 0 20.776 0 18.5491C0 16.5449 0.361865 14.5964 1.08559 12.7036C1.80932 10.7551 2.83925 8.94576 4.17536 7.27561C5.56715 5.60547 7.18163 4.15801 9.01879 2.93323C10.8559 1.65279 12.8601 0.734205 15.0313 0.17749L19.3737 5.52196C16.9241 6.46838 14.9756 7.74882 13.5282 9.36329C12.0807 10.9778 11.357 12.3417 11.357 13.4552C11.357 13.9562 11.4683 14.5129 11.691 15.1253C11.9694 15.682 12.6374 16.2666 13.6952 16.879C15.087 17.7697 16.0612 18.7439 16.618 19.8017C17.1747 20.8038 17.453 21.9729 17.453 23.309C17.453 25.3132 16.7015 26.8998 15.1983 28.0689C13.6952 29.238 11.7745 29.8226 9.43633 29.8226ZM30.0626 29.8226C28.2811 29.8226 26.6667 29.3494 25.2192 28.403C23.8274 27.4565 22.714 26.1483 21.8789 24.4781C21.0438 22.7523 20.6263 20.776 20.6263 18.5491C20.6263 16.5449 20.9882 14.5964 21.7119 12.7036C22.4356 10.7551 23.4655 8.94576 24.8017 7.27561C26.1935 5.60547 27.8079 4.15801 29.6451 2.93323C31.4823 1.65279 33.4864 0.734205 35.6576 0.17749L40 5.52196C37.5504 6.46838 35.6019 7.74882 34.1545 9.36329C32.707 10.9778 31.9833 12.3417 31.9833 13.4552C31.9833 13.9562 32.0946 14.5129 32.3173 15.1253C32.5957 15.682 33.2637 16.2666 34.3215 16.879C35.7133 17.7697 36.6875 18.7439 37.2443 19.8017C37.801 20.8038 38.0793 21.9729 38.0793 23.309C38.0793 25.3132 37.3278 26.8998 35.8246 28.0689C34.3215 29.238 32.4008 29.8226 30.0626 29.8226Z" fill="#ED6C25"/>
</symbol>
<symbol id="icon-phone" viewBox="0 0 24 24" >
<path d="m19.4402 20.5c-1.8845 0-3.7777-.4382-5.6797-1.3145-1.9018-.8763-3.6492-2.1125-5.24225-3.7085-1.59283-1.5962-2.82742-3.3437-3.70375-5.2425-.87633-1.89867-1.3145-3.79025-1.3145-5.67475 0-.30283.1-.55517.3-.757s.45-.30275.75-.30275h3.2615c.2525 0 .47525.08242.66825.24725.193.16467.31575.36817.36825.6105l.57325 2.94225c.03967.273.03133.50758-.025.70375-.0565.19617-.15783.36092-.304.49425l-2.3095 2.2482c.37167.6807.79633 1.3246 1.274 1.9318.4775.607.9945 1.1868 1.551 1.7393.54865.5488 1.13205 1.0585 1.75005 1.529s1.2853.9083 2.002 1.3135l2.244-2.2635c.1565-.1629.346-.277.5685-.3425.2223-.0654.4534-.0814.6932-.048l2.7768.5655c.2525.0666.4585.1955.6182.3865s.2395.4076.2395.65v3.2422c0 .3-.1009.55-.3027.75-.2019.2-.4542.3-.7571.3zm-13.3672-11.173 1.78475-1.70775c.032-.02567.05283-.06092.0625-.10575s.00808-.0865-.00475-.125l-.43475-2.23475c-.01283-.05117-.03525-.08958-.06725-.11525s-.07367-.0385-.125-.0385h-2.1385c-.0385 0-.07058.01283-.09625.0385-.0255.02567-.03825.05775-.03825.09625.05117.68333.163 1.3775.3355 2.0825.17233.70517.413 1.40842.722 2.10975zm8.7 8.6423c.6628.309 1.3542.5452 2.074.7087.72.1633 1.3927.2604 2.0182.2913.0385 0 .0706-.0129.0963-.0386.0257-.0256.0385-.0577.0385-.0962v-2.1038c0-.0513-.0128-.093-.0385-.125s-.0641-.0544-.1153-.0672l-2.1-.427c-.0385-.0128-.0721-.0144-.1009-.0048-.0289.0097-.0594.0305-.0915.0625z" />
</symbol>
<symbol id="icon-email" viewBox="0 0 24 24">
<path d="m4.30775 19.5c-.50517 0-.93275-.175-1.28275-.525s-.525-.7776-.525-1.2827v-11.38455c0-.50517.175-.93275.525-1.28275s.77758-.525 1.28275-.525h15.38455c.5051 0 .9327.175 1.2827.525s.525.77758.525 1.28275v11.38455c0 .5051-.175.9327-.525 1.2827s-.7776.525-1.2827.525zm15.69225-12.05775-7.5135 4.80975c-.0768.0435-.1563.0778-.2385.1028-.082.025-.1647.0375-.248.0375s-.166-.0125-.248-.0375c-.0822-.025-.1617-.0593-.2385-.1028l-7.5135-4.80975v10.25005c0 .0898.02883.1635.0865.2212s.13142.0865.22125.0865h15.38455c.0898 0 .1635-.0288.2212-.0865s.0865-.1314.0865-.2212zm-8 3.55775 7.8462-5h-15.69245zm-8-3.327v-1.14325.02975-.03175z" />
</symbol>
<symbol id="icon-slant"  viewBox="0 0 595.28 487.73">
<path d="M595.28,0L216.39,445.3s-29.37,39.98-73,42.11l-143.67.32L378.61,42.43S407.98,2.45,451.6.32l143.67-.32h0Z"/>
</symbol>
<symbol id="icon-facebook"  viewBox="0 0 24 24">
<path d="m21.99 12.055c0-5.55725-4.4778-10.055-9.995-10.055-5.51724 0-9.995 4.49775-9.995 10.055 0 5.0175 3.65817 9.1754 8.4358 9.935v-7.0265h-2.53875v-2.9085h2.53875v-2.21892c0-2.51874 1.4892-3.90804 3.7781-3.90804 1.0894 0 2.2389.1999 2.2389.1999v2.47876h-1.2594c-1.2394 0-1.6292.77961-1.6292 1.5692v1.8891h2.7686l-.4397 2.9085h-2.3289v7.0265c4.7776-.7496 8.4358-4.9175 8.4358-9.935z" />
</symbol>
<symbol id="icon-instagram" viewBox="0 0 24 24">
<path clip-rule="evenodd" d="m12 2c5.5191 0 10 4.48086 10 10 0 5.5191-4.4809 10-10 10-5.51914 0-10-4.4809-10-10 0-5.51914 4.48086-10 10-10zm0 3.75c-1.6974 0-1.9102.00719-2.57688.03762-.66523.03035-1.11957.13601-1.51714.29051-.41098.15972-.75953.37343-1.107.72089-.34746.34746-.56117.69602-.72089 1.107-.1545.39753-.26012.85187-.29051 1.5171-.03039.66668-.03758.87948-.03758 2.57688s.00719 1.9102.03758 2.5769c.03039.6652.13601 1.1195.29051 1.5171.15972.411.37343.7595.72089 1.107.34747.3475.69602.5612 1.107.7209.39757.1545.85191.2601 1.51714.2905.66668.0304.87948.0376 2.57688.0376s1.9102-.0072 2.5769-.0376c.6652-.0304 1.1195-.136 1.5171-.2905.411-.1597.7595-.3734 1.107-.7209s.5612-.696.7209-1.107c.1545-.3976.2601-.8519.2905-1.5171.0304-.6667.0376-.8795.0376-2.5769s-.0072-1.9102-.0376-2.57688c-.0304-.66523-.136-1.11957-.2905-1.5171-.1597-.41098-.3734-.75954-.7209-1.107s-.696-.56117-1.107-.72089c-.3976-.1545-.8519-.26016-1.5171-.29051-.6667-.03043-.8795-.03762-2.5769-.03762zm0 1.12613c1.6688 0 1.8665.00637 2.5255.03645.6094.02781.9403.12961 1.1606.21519.2917.11336.4999.24883.7186.46754.2187.21867.3542.42692.4675.71864.0856.22023.1874.55113.2152 1.1605.0301.65905.0365.85675.0365 2.52555s-.0064 1.8665-.0365 2.5255c-.0278.6094-.1296.9403-.2152 1.1606-.1133.2917-.2488.4999-.4675.7186s-.4269.3542-.7186.4675c-.2203.0856-.5512.1874-1.1606.2152-.6589.0301-.8566.0365-2.5255.0365s-1.8666-.0064-2.52555-.0365c-.60937-.0278-.94027-.1296-1.1605-.2152-.29176-.1133-.49997-.2488-.71868-.4675s-.35414-.4269-.4675-.7186c-.08558-.2203-.18742-.5512-.21523-1.1606-.03008-.659-.03641-.8567-.03641-2.5255s.00633-1.8665.03641-2.52555c.02781-.60937.12965-.94027.21523-1.1605.11336-.29172.24879-.49997.4675-.71864.21871-.21871.42692-.35418.71868-.46754.22023-.08558.55113-.18738 1.1605-.21519.65905-.03008.85675-.03645 2.52555-.03645zm0 1.91442c-1.7725 0-3.20945 1.43695-3.20945 3.20945s1.43695 3.2095 3.20945 3.2095 3.2095-1.437 3.2095-3.2095-1.437-3.20945-3.2095-3.20945zm0 5.29275c-1.1506 0-2.08332-.9327-2.08332-2.0833s.93272-2.08332 2.08332-2.08332 2.0833.93272 2.0833 2.08332-.9327 2.0833-2.0833 2.0833zm4.0863-5.41955c0 .41422-.3358.74996-.7501.74996-.4141 0-.7499-.33574-.7499-.74996s.3358-.75.7499-.75c.4143 0 .7501.33578.7501.75z"  fill-rule="evenodd"/>
</symbol>
<symbol id="icon-linkedin" viewBox="0 0 24 24">
<path clip-rule="evenodd" d="m12 2c5.5191 0 10 4.48086 10 10 0 5.5191-4.4809 10-10 10-5.51914 0-10-4.4809-10-10 0-5.51914 4.48086-10 10-10zm-3.12645 15.62v-7.80945h-2.59625v7.80945zm9.36015 0v-4.4784c0-2.3988-1.2807-3.51469-2.9886-3.51469-1.3772 0-1.994.75739-2.3394 1.28939v-1.10575h-2.5956c.0344.73265 0 7.80945 0 7.80945h2.5955v-4.3614c0-.2334.0168-.4668.0856-.6336.1873-.4662.6147-.9492 1.3318-.9492.9389 0 1.315.7164 1.315 1.7658v4.1784zm-10.64073-11.57508c-.88828 0-1.46863.58399-1.46863 1.34942 0 .74929.56269 1.34937 1.43425 1.34937h.01676c.90528 0 1.46875-.60008 1.46875-1.34937-.0168-.76543-.56344-1.34942-1.45113-1.34942z"  fill-rule="evenodd"/>
</symbol>
<symbol id="icon-twitter"  viewBox="0 0 24 24">
<path d="m9.09999 6.70001 3.00001 4.29999.5.7 4 5.7h-1.7l-3.2-4.7-.5-.6-3.80001-5.39999z"/><path clip-rule="evenodd" d="m2 12c0-5.5 4.5-10 10-10s10 4.5 10 10-4.5 10-10 10-10-4.5-10-10zm9.1 1.3 3.3 4.8v.1h3.7l-4.9-7.1 4.5-5.2h-1.1l-3.9 4.5-3.1-4.5h-3.6l4.7 6.8-4.7 5.4h1z" fill-rule="evenodd"/>
</symbol>
<symbol id="icon-youtube" viewBox="0 0 24 24">
<path clip-rule="evenodd" d="m12 2c5.5191 0 10 4.48086 10 10 0 5.5191-4.4809 10-10 10-5.51914 0-10-4.4809-10-10 0-5.51914 4.48086-10 10-10zm5.9889 6.99133c-.1438-.53785-.5673-.96133-1.1051-1.10508-.9749-.26125-4.8838-.26125-4.8838-.26125s-3.90887 0-4.88379.26125c-.53769.14375-.96133.56723-1.10508 1.10508-.26113.9748-.26113 3.00877-.26113 3.00877s0 2.0338.26113 3.0086c.14375.5378.56739.9615 1.10508 1.1052.97492.2611 4.88379.2611 4.88379.2611s3.9089 0 4.8838-.2611c.5378-.1437.9613-.5674 1.1051-1.1052.2611-.9748.2611-3.0086.2611-3.0086s0-2.03397-.2611-3.00877zm-7.2389 4.88377v-3.7501l3.2475 1.8751z" fill-rule="evenodd"/>
</symbol>
</defs>
</svg>
