<svg width="24" height="24" viewBox="0 0 24 24" fill="none" xmlns="http://www.w3.org/2000/svg">
<path fill-rule="evenodd" clip-rule="evenodd" d="M12 0C18.6229 0 24 5.37703 24 12C24 18.6229 18.6229 24 12 24C5.37703 24 0 18.6229 0 12C0 5.37703 5.37703 0 12 0ZM8.24826 18.744V9.37266H5.13276V18.744H8.24826ZM19.4804 18.744V13.3699C19.4804 10.4914 17.9436 9.15229 15.8941 9.15229C14.2415 9.15229 13.5013 10.0612 13.0868 10.6995V9.37266H9.9721C10.0134 10.2519 9.9721 18.744 9.9721 18.744H13.0867V13.5103C13.0867 13.2302 13.1069 12.9502 13.1894 12.75C13.4142 12.1906 13.9271 11.611 14.7876 11.611C15.9143 11.611 16.3656 12.4706 16.3656 13.7299V18.744H19.4804ZM6.71156 4.8539C5.64563 4.8539 4.94921 5.55469 4.94921 6.47321C4.94921 7.37236 5.62444 8.09245 6.67031 8.09245H6.69042C7.77676 8.09245 8.45292 7.37236 8.45292 6.47321C8.43276 5.55469 7.77679 4.8539 6.71156 4.8539Z" fill="#FBFDFE"/>
</svg>
