<svg width="25" height="25" viewBox="0 0 25 25" fill="none" xmlns="http://www.w3.org/2000/svg">
<path d="M12.4997 22.9167C11.0662 22.9167 9.71592 22.6426 8.44875 22.0944C7.18158 21.5459 6.07799 20.8017 5.13798 19.8617C4.19798 18.9217 3.45376 17.8181 2.90535 16.551C2.35712 15.2838 2.08301 13.9335 2.08301 12.5C2.08301 11.0622 2.35712 9.71069 2.90535 8.44564C3.45376 7.18079 4.19798 6.07836 5.13798 5.13835C6.07799 4.19834 7.18158 3.45413 8.44875 2.90571C9.71592 2.35749 11.0662 2.08337 12.4997 2.08337C13.9376 2.08337 15.289 2.35749 16.5541 2.90571C17.8189 3.45413 18.9214 4.19834 19.8614 5.13835C20.8014 6.07836 21.5456 7.18079 22.094 8.44564C22.6422 9.71069 22.9163 11.0622 22.9163 12.5C22.9163 13.9335 22.6422 15.2838 22.094 16.551C21.5456 17.8181 20.8014 18.9217 19.8614 19.8617C18.9214 20.8017 17.8189 21.5459 16.5541 22.0944C15.289 22.6426 13.9376 22.9167 12.4997 22.9167ZM12.4997 21.7683C13.1793 20.8958 13.7395 20.0388 14.1802 19.1974C14.6208 18.3561 14.9791 17.4147 15.2552 16.373H9.74418C10.0499 17.4739 10.4157 18.4451 10.8414 19.2865C11.2673 20.1277 11.8201 20.955 12.4997 21.7683ZM11.0263 21.5947C10.4862 20.9581 9.99311 20.1712 9.54713 19.2341C9.10133 18.297 8.76935 17.3433 8.55118 16.373H4.11281C4.7762 17.8123 5.71659 18.9926 6.93399 19.9141C8.15158 20.8356 9.51568 21.3958 11.0263 21.5947ZM13.9731 21.5947C15.4837 21.3958 16.8478 20.8356 18.0654 19.9141C19.2828 18.9926 20.2231 17.8123 20.8865 16.373H16.4482C16.1559 17.3582 15.7868 18.3193 15.3408 19.2564C14.895 20.1935 14.4391 20.9729 13.9731 21.5947ZM3.64117 15.2156H8.31073C8.22315 14.7407 8.16123 14.278 8.12496 13.8276C8.0885 13.3774 8.07028 12.9348 8.07028 12.5C8.07028 12.0652 8.0885 11.6227 8.12496 11.1725C8.16123 10.7221 8.22315 10.2594 8.31073 9.78447H3.64117C3.51501 10.1851 3.41663 10.6218 3.34603 11.0944C3.27562 11.567 3.24042 12.0355 3.24042 12.5C3.24042 12.9645 3.27562 13.4331 3.34603 13.9057C3.41663 14.3783 3.51501 14.815 3.64117 15.2156ZM9.46813 15.2156H15.5312C15.6188 14.7407 15.6807 14.2854 15.717 13.8499C15.7534 13.4145 15.7717 12.9645 15.7717 12.5C15.7717 12.0355 15.7534 11.5856 15.717 11.1502C15.6807 10.7146 15.6188 10.2594 15.5312 9.78447H9.46813C9.38056 10.2594 9.31864 10.7146 9.28237 11.1502C9.24591 11.5856 9.22768 12.0355 9.22768 12.5C9.22768 12.9645 9.24591 13.4145 9.28237 13.8499C9.31864 14.2854 9.38056 14.7407 9.46813 15.2156ZM16.6886 15.2156H21.3582C21.4843 14.815 21.5827 14.3783 21.6533 13.9057C21.7237 13.4331 21.7589 12.9645 21.7589 12.5C21.7589 12.0355 21.7237 11.567 21.6533 11.0944C21.5827 10.6218 21.4843 10.1851 21.3582 9.78447H16.6886C16.7762 10.2594 16.8381 10.7221 16.8744 11.1725C16.9108 11.6227 16.9291 12.0652 16.9291 12.5C16.9291 12.9348 16.9108 13.3774 16.8744 13.8276C16.8381 14.278 16.7762 14.7407 16.6886 15.2156ZM16.4482 8.62707H20.8865C20.2083 7.15812 19.279 5.97776 18.0986 5.08598C16.9183 4.1942 15.5431 3.62658 13.9731 3.38314C14.5132 4.09398 14.9988 4.90677 15.4299 5.82151C15.8611 6.73644 16.2005 7.67163 16.4482 8.62707ZM9.74418 8.62707H15.2552C14.9494 7.54103 14.5725 6.55878 14.1244 5.68031C13.6763 4.80183 13.1347 3.98567 12.4997 3.23181C11.8646 3.98567 11.3231 4.80183 10.875 5.68031C10.4269 6.55878 10.0499 7.54103 9.74418 8.62707ZM4.11281 8.62707H8.55118C8.79886 7.67163 9.13827 6.73644 9.56941 5.82151C10.0005 4.90677 10.4862 4.09398 11.0263 3.38314C9.44142 3.62658 8.06256 4.19786 6.88972 5.09697C5.71669 5.99628 4.79105 7.17298 4.11281 8.62707Z" fill="#FBFDFE"/>
</svg>
