<?xml version="1.0" encoding="UTF-8"?>
<svg id="Layer_1" data-name="Layer 1" xmlns="http://www.w3.org/2000/svg" viewBox="0 0 350 73">
  <defs>
    <style>
      .cls-1 {
        fill: #ed6c25;
      }

      .cls-2, .cls-3 {
        fill: #084772;
      }

      .cls-3 {
        fill-rule: evenodd;
      }
    </style>
  </defs>
  <path class="cls-3" d="m0,36.46C0,16.32,16.23,0,36.25,0s36.25,16.32,36.25,36.46-16.23,36.46-36.25,36.46S0,56.59,0,36.46Zm4.03,0C4.03,18.56,18.45,4.05,36.25,4.05s32.22,14.51,32.22,32.41-14.42,32.41-32.22,32.41S4.03,54.36,4.03,36.46Z"/>
  <path class="cls-2" d="m26.45,20.3h-9.88c8.09,9.68,26.2,30.76,26.2,30.76,0,0,1.72,2.8,5.58,2.8h9.23l-26.63-30.76c-1.07-1.51-2.58-2.8-4.51-2.8Z"/>
  <path class="cls-1" d="m26.76,53.86h-9.78c8.01-9.68,25.93-30.76,25.93-30.76,0,0,1.7-2.8,5.53-2.8h9.14l-26.36,30.76c-1.06,1.51-2.55,2.8-4.46,2.8Z"/>
  <path class="cls-2" d="m121.67,54.54l-3.8-7.04h-21.24l-3.8,7.04h-8.39l17.82-33.05h10.04l17.77,33.05h-8.4,0Zm-14.47-26.94l-7.27,13.39h14.54l-7.27-13.39Z"/>
  <path class="cls-2" d="m177.05,54.54v-23.3h-.14l-16.09,18.81-16.09-18.81h-.14v23.3h-8.39V21.49h9.57l14.77,17.53,14.77-17.53h9.57v33.05h-7.83Z"/>
  <path class="cls-2" d="m194.87,54.54V21.49h36.35v6.06h-27.96v7.16h19.58v6.61h-19.58v7.16h29.64v6.06h-38.03Z"/>
  <path class="cls-2" d="m248.02,21.49h-9.75c9.02,9.74,27.79,30.07,27.79,30.07,0,0,1.82,2.98,5.92,2.98h8.34l-27.52-30.07c-1.14-1.61-2.73-2.98-4.78-2.98Z"/>
  <path class="cls-2" d="m248.22,54.54h-9.75c9.02-9.74,27.79-30.07,27.79-30.07,0,0,1.82-2.98,5.92-2.98h8.34l-27.52,30.07c-1.14,1.61-2.73,2.98-4.78,2.98Z"/>
  <path class="cls-2" d="m288.2,54.54V21.49h8.37v33.05h-8.37Z"/>
  <path class="cls-2" d="m349.88,38c0,4.62-1.93,8.43-5.8,11.42-2.13,1.64-4.64,2.9-7.54,3.79-2.89.89-6.07,1.34-9.53,1.34s-6.6-.45-9.51-1.34c-2.9-.89-5.41-2.15-7.51-3.79-1.92-1.47-3.36-3.16-4.31-5.09-.96-1.93-1.44-4.03-1.44-6.33s.49-4.36,1.46-6.27c.98-1.91,2.42-3.6,4.34-5.07,2.14-1.64,4.66-2.91,7.58-3.81,2.92-.91,6.07-1.36,9.44-1.36s6.52.45,9.44,1.36c2.92.91,5.45,2.18,7.58,3.81,3.86,2.99,5.8,6.76,5.8,11.33h.01Zm-8.39,0c0-1.55-.34-2.97-1.02-4.25-.68-1.28-1.64-2.38-2.9-3.3-1.25-.92-2.76-1.64-4.54-2.15-1.78-.52-3.76-.78-5.96-.78s-4.18.26-5.96.78c-1.78.52-3.29,1.24-4.54,2.15-1.25.92-2.22,2.02-2.9,3.3-.68,1.28-1.02,2.69-1.02,4.25s.34,3.01,1,4.31c.66,1.29,1.62,2.4,2.88,3.32,1.25.92,2.76,1.63,4.52,2.13,1.76.5,3.76.76,5.98.76s4.23-.25,6.01-.76c1.78-.5,3.29-1.21,4.54-2.13,1.25-.92,2.22-2.03,2.9-3.32.68-1.29,1.02-2.73,1.02-4.31h0Z"/>
</svg>