<?xml version="1.0" standalone="no"?>
<!DOCTYPE svg PUBLIC "-//W3C//DTD SVG 20010904//EN"
 "http://www.w3.org/TR/2001/REC-SVG-20010904/DTD/svg10.dtd">
<svg version="1.0" xmlns="http://www.w3.org/2000/svg"
 width="603.000000pt" height="603.000000pt" viewBox="0 0 603.000000 603.000000"
 preserveAspectRatio="xMidYMid meet">
<metadata>
Created by potrace 1.14, written by Peter Selinger 2001-2017
</metadata>
<g transform="translate(0.000000,603.000000) scale(0.100000,-0.100000)"
fill="#000000" stroke="none">
<path d="M2947 6004 c-1 -1 -51 -5 -112 -8 -60 -3 -120 -8 -132 -10 -12 -3
-50 -7 -84 -11 -35 -4 -66 -8 -69 -10 -3 -1 -27 -6 -53 -9 -123 -17 -362 -84
-536 -152 -129 -50 -421 -193 -421 -206 0 -4 -5 -8 -11 -8 -19 0 -207 -127
-324 -219 -185 -144 -420 -388 -561 -581 -66 -91 -170 -254 -163 -256 2 -1 -3
-10 -13 -20 -15 -17 -138 -256 -138 -268 0 -3 -13 -34 -29 -68 -22 -50 -58
-146 -66 -178 -1 -3 -4 -12 -8 -20 -42 -108 -105 -387 -127 -562 -27 -221 -30
-527 -5 -708 3 -19 7 -55 10 -80 3 -25 7 -56 10 -70 3 -14 7 -41 10 -60 16
-124 103 -414 178 -595 39 -97 143 -311 157 -325 3 -3 14 -21 24 -40 50 -91
167 -260 271 -389 107 -133 325 -345 457 -444 29 -21 55 -42 58 -46 3 -3 39
-28 80 -56 41 -27 77 -53 80 -56 3 -3 25 -16 50 -30 25 -13 47 -27 50 -31 8
-10 281 -148 340 -172 182 -74 411 -146 540 -170 14 -2 45 -9 70 -15 58 -13
121 -21 285 -38 103 -10 426 -10 530 1 44 5 91 10 105 11 33 4 107 15 145 22
17 3 39 7 50 8 11 2 21 4 23 5 3 3 13 6 57 14 22 4 63 14 90 21 28 8 55 15 60
16 29 4 307 105 373 135 116 52 206 98 213 107 3 5 8 7 10 6 7 -5 151 82 264
159 88 60 225 167 291 227 62 56 182 176 234 235 36 40 75 84 88 97 12 13 22
28 22 33 0 6 3 10 8 10 4 0 18 17 32 38 14 20 28 39 31 42 14 12 120 173 173
263 65 110 175 337 200 409 9 26 20 56 25 65 23 46 110 357 126 454 25 152 42
277 39 291 -1 10 1 20 5 22 9 6 7 475 -2 551 -16 129 -29 219 -41 270 -2 11
-11 56 -20 100 -53 259 -209 641 -360 885 -34 55 -144 217 -162 239 -167 205
-272 318 -411 441 -72 64 -80 71 -158 130 -33 25 -62 47 -65 50 -10 11 -186
125 -220 143 -19 11 -49 27 -65 37 -51 31 -225 116 -316 153 -293 121 -619
196 -924 212 -130 7 -265 12 -268 9z m291 -339 c172 -16 268 -32 407 -67 44
-11 87 -21 95 -23 20 -4 170 -54 195 -64 11 -5 36 -15 55 -22 40 -14 279 -130
325 -156 17 -10 53 -31 80 -47 28 -16 52 -32 55 -35 11 -13 70 -51 79 -51 5 0
11 -3 13 -7 2 -5 30 -28 63 -53 408 -307 734 -764 903 -1266 17 -50 33 -102
36 -115 3 -13 10 -40 15 -59 12 -39 41 -170 46 -213 7 -50 16 -112 21 -139 8
-49 15 -202 14 -313 -1 -153 -6 -222 -24 -361 -4 -27 -8 -62 -11 -79 -2 -16
-9 -52 -15 -80 -6 -27 -13 -57 -15 -65 -13 -60 -21 -90 -57 -205 -22 -71 -49
-148 -59 -171 -11 -22 -19 -43 -19 -47 0 -29 -202 -406 -222 -415 -5 -2 -8 -8
-8 -13 0 -16 -100 -151 -210 -284 -41 -49 -231 -237 -290 -287 -30 -25 -95
-75 -145 -112 -49 -36 -95 -70 -102 -76 -7 -5 -17 -10 -23 -10 -5 0 -10 -4
-10 -10 0 -5 -3 -9 -7 -8 -5 1 -28 -11 -53 -27 -57 -37 -265 -142 -350 -178
-113 -46 -272 -99 -339 -112 -11 -2 -25 -6 -29 -9 -5 -3 -24 -8 -43 -11 -19
-3 -56 -10 -84 -15 -82 -17 -90 -18 -141 -24 -27 -4 -71 -9 -99 -13 -117 -15
-512 -8 -615 11 -14 3 -43 7 -65 10 -109 14 -396 88 -422 108 -7 6 -13 8 -13
5 0 -6 -123 40 -195 73 -24 11 -47 20 -50 20 -4 0 -20 9 -36 21 -16 11 -29 17
-29 14 0 -4 -10 -1 -22 7 -13 8 -50 30 -83 48 -299 164 -595 419 -805 695 -51
67 -160 223 -160 229 0 3 -19 37 -43 78 -44 74 -102 192 -139 283 -11 28 -24
59 -29 70 -17 38 -78 225 -73 225 3 0 2 6 -3 13 -4 6 -8 17 -10 22 -1 6 -4 19
-7 30 -30 127 -31 131 -46 225 -6 41 -14 86 -16 100 -23 132 -22 583 1 670 2
8 6 37 10 63 17 140 75 362 139 533 35 92 95 229 116 264 5 8 17 31 27 50 9
19 28 53 42 75 14 22 24 43 23 48 -1 4 2 7 8 7 5 0 10 5 10 10 0 6 5 16 10 23
6 7 25 35 43 62 17 28 35 55 40 60 4 6 27 35 50 65 123 162 286 330 436 450
24 19 49 41 56 48 8 6 16 12 20 12 4 0 12 6 20 13 29 27 46 39 150 104 33 20
63 42 67 47 4 6 8 7 8 3 0 -5 13 1 30 13 33 23 337 170 353 170 3 0 18 5 34
12 15 6 30 12 33 13 3 0 34 11 70 22 70 24 259 73 300 78 14 2 66 10 115 19
50 8 133 18 185 22 52 3 96 7 97 8 5 4 259 -3 321 -9z"/>
<path d="M1434 4351 c-3 -3 66 -92 86 -111 3 -3 30 -34 60 -70 30 -36 57 -67
60 -70 3 -3 44 -50 90 -105 47 -55 94 -111 106 -125 12 -14 54 -63 94 -110 40
-47 84 -99 99 -115 14 -17 46 -55 71 -85 25 -30 50 -59 56 -65 5 -5 35 -39 64
-75 30 -36 64 -76 77 -90 12 -14 48 -56 80 -95 32 -38 65 -77 73 -85 22 -22
115 -133 124 -148 5 -8 -19 -45 -71 -105 -43 -50 -86 -101 -95 -112 -9 -11
-27 -31 -38 -45 -12 -14 -36 -42 -53 -63 -35 -43 -47 -56 -115 -136 -26 -29
-55 -63 -64 -75 -10 -11 -23 -28 -31 -36 -7 -8 -38 -44 -68 -80 -29 -36 -59
-69 -65 -75 -6 -5 -42 -48 -80 -95 -38 -46 -80 -96 -93 -110 -13 -14 -37 -42
-55 -64 -17 -21 -35 -43 -41 -50 -5 -6 -35 -40 -65 -76 -30 -36 -57 -67 -60
-70 -44 -44 -146 -179 -137 -182 7 -2 194 -4 417 -3 469 2 468 2 610 87 58 34
106 81 201 194 41 49 79 94 85 99 6 6 33 37 60 70 27 33 51 62 54 65 3 3 30
34 60 70 70 83 102 120 115 134 6 6 18 21 27 34 l16 23 48 -58 c27 -31 61 -71
76 -88 25 -28 121 -140 179 -209 13 -16 29 -34 34 -40 6 -6 34 -40 64 -76 75
-90 167 -179 222 -216 49 -33 137 -70 191 -80 25 -4 768 -9 836 -5 20 1 14 9
-125 170 -13 14 -26 31 -30 36 -20 25 -120 142 -133 155 -9 8 -35 40 -60 70
-25 30 -47 57 -50 60 -3 3 -44 50 -90 105 -47 55 -87 102 -90 105 -3 3 -28 32
-55 65 -28 33 -52 62 -55 65 -5 4 -203 237 -252 295 -9 11 -27 31 -39 45 -11
14 -38 45 -58 69 -20 25 -51 61 -68 80 -36 40 -39 47 -20 65 6 7 26 29 42 50
17 21 39 48 50 60 11 12 36 41 55 65 19 23 44 53 55 65 11 12 38 44 60 70 22
27 45 54 52 61 6 6 35 41 64 76 29 35 58 69 64 75 6 6 27 31 46 54 18 23 48
57 64 75 17 18 44 50 60 71 17 21 35 42 40 48 6 6 46 54 90 106 43 52 86 102
94 111 9 9 32 35 51 59 19 23 44 52 55 65 11 12 29 33 40 46 44 54 120 144
125 149 41 40 55 38 -397 35 -235 -1 -441 -6 -457 -9 -48 -11 -132 -54 -194
-100 -53 -39 -106 -96 -232 -246 -25 -29 -50 -58 -55 -64 -6 -6 -71 -83 -145
-171 -74 -88 -139 -163 -144 -167 -10 -7 -9 -8 -91 87 -33 39 -62 72 -65 75
-3 3 -22 25 -42 50 -20 25 -47 57 -60 71 -13 15 -41 48 -63 74 -22 26 -48 57
-58 69 -10 11 -37 43 -60 70 -88 104 -166 170 -252 213 -86 43 -130 47 -558
48 -225 0 -410 -2 -413 -4z"/>
</g>
</svg>
